<svg width="42" height="42" viewBox="0 0 42 42" fill="none" xmlns="http://www.w3.org/2000/svg">
<path d="M41.5578 20.992C41.5585 18.2341 41.0216 15.5031 39.9779 12.955C38.9341 10.4068 37.4038 8.09148 35.4745 6.14113C33.5452 4.19078 31.2546 2.64365 28.7335 1.5881C26.2125 0.532549 23.5104 -0.0107423 20.7816 -0.0107422C15.27 -0.0107422 9.98408 2.20205 6.08678 6.14082C2.18948 10.0796 0 15.4217 0 20.992C-8.91099e-08 23.7498 0.537571 26.4807 1.58201 29.0285C2.62644 31.5764 4.15729 33.8913 6.0871 35.8412C8.01692 37.791 10.3079 39.3376 12.8292 40.3925C15.3505 41.4474 18.0528 41.99 20.7816 41.9893C26.2918 41.9893 31.5763 39.7771 35.4726 35.8393C39.3689 31.9015 41.5578 26.5608 41.5578 20.992Z" fill="#008446"/>
<path d="M24.6256 12.4439C26.6665 12.4439 28.6239 11.6248 30.0676 10.1668C31.5112 8.70882 32.323 6.73111 32.3244 4.66846H18.4718C16.4309 4.66846 14.4734 5.48749 13.0298 6.9455C11.5861 8.40352 10.7744 10.3812 10.7729 12.4439V38.8931C12.8148 38.8931 14.773 38.0733 16.2169 36.6141C17.6607 35.155 18.4718 33.1759 18.4718 31.1123V26.4439H23.0858C25.1267 26.4439 27.0842 25.6248 28.5278 24.1668C29.9715 22.7088 30.7832 20.7311 30.7846 18.6685H18.4718V12.4439H24.6256Z" fill="white"/>
</svg>
