<svg preserveAspectRatio="none" width="100%" height="100%" overflow="visible" style="display: block;" viewBox="0 0 18 18" fill="none" xmlns="http://www.w3.org/2000/svg">
<g id="Img">
<path id="Vector" d="M9 0C13.9672 0 18 4.03276 18 9C18 13.9672 13.9672 18 9 18C4.03276 18 0 13.9672 0 9C0 4.03276 4.03276 0 9 0V0M8.15625 4.21875V9C8.15625 9.28125 8.29688 9.54492 8.53242 9.70312L11.9074 11.9531C12.2941 12.2133 12.818 12.1078 13.0781 11.7176Cnan nan 13.2328 10.807 12.8426 10.5469L9.84375 8.55V4.21875C9.84375 3.75117 9.46758 3.375 9 3.375Cnan nan 8.15625 3.75117 8.15625 4.21875V4.21875" fill="var(--fill-0, #9ACBD0)"/>
</g>
</svg>
