<svg preserveAspectRatio="none" width="100%" height="100%" overflow="visible" style="display: block;" viewBox="0 0 10.5 14" fill="none" xmlns="http://www.w3.org/2000/svg">
<g id="Img">
<path id="Vector" d="M1.75 0C0.784766 0 0 0.784766 0 1.75V12.25C0 13.2152 0.784766 14 1.75 14H8.75C9.71523 14 10.5 13.2152 10.5 12.25V4.375H7C6.51602 4.375 6.125 3.98398 6.125 3.5V0H1.75V0M7 0V3.5H10.5L7 0V0M3.0625 7H7.4375C7.67812 7 7.875 7.19688 7.875 7.4375Cnan nan 7.67812 7.875 7.4375 7.875H3.0625C2.82188 7.875 2.625 7.67812 2.625 7.4375Cnan nan 2.82188 7 3.0625 7V7M3.0625 8.75H7.4375C7.67812 8.75 7.875 8.94688 7.875 9.1875Cnan nan 7.67812 9.625 7.4375 9.625H3.0625C2.82188 9.625 2.625 9.42812 2.625 9.1875Cnan nan 2.82188 8.75 3.0625 8.75V8.75M3.0625 10.5H7.4375C7.67812 10.5 7.875 10.6969 7.875 10.9375Cnan nan 7.67812 11.375 7.4375 11.375H3.0625C2.82188 11.375 2.625 11.1781 2.625 10.9375Cnan nan 2.82188 10.5 3.0625 10.5V10.5" fill="var(--fill-0, #2973B2)"/>
</g>
</svg>
