<svg preserveAspectRatio="none" width="100%" height="100%" overflow="visible" style="display: block;" viewBox="0 0 13.5 18" fill="none" xmlns="http://www.w3.org/2000/svg">
<g id="Img">
<path id="Vector" d="M7.5832 17.55C9.38672 15.293 13.5 9.82266 13.5 6.75C13.5 3.02344 10.4766 0 6.75 0C3.02344 0 0 3.02344 0 6.75C0 9.82266 4.11328 15.293 5.9168 17.55C6.34922 18.0879 7.15078 18.0879 7.5832 17.55V17.55M6.75 4.5C7.99181 4.5 9 5.50819 9 6.75C9 7.99181 7.99181 9 6.75 9C5.50819 9 4.5 7.99181 4.5 6.75C4.5 5.50819 5.50819 4.5 6.75 4.5V4.5" fill="var(--fill-0, #9ACBD0)"/>
</g>
</svg>
