<svg preserveAspectRatio="none" width="100%" height="100%" overflow="visible" style="display: block;" viewBox="0 0 14 14.0006" fill="none" xmlns="http://www.w3.org/2000/svg">
<g id="Img">
<path id="Vector" d="M7.65625 0.000616536C11.159 0.000616536 14 2.84163 14 6.34437C14 6.70804 13.7074 7.00062 13.3438 7.00062C12.9801 7.00062 12.6875 6.70804 12.6875 6.34437C12.6875 3.56624 10.4344 1.31312 7.65625 1.31312C7.29258 1.31312 7 1.02054 7 0.656867C7 0.293195 7.29258 0.000616536 7.65625 0.000616536V0.000616536M7.875 5.25062C8.35793 5.25062 8.75 5.64269 8.75 6.12562C8.75 6.60854 8.35793 7.00062 7.875 7.00062C7.39207 7.00062 7 6.60854 7 6.12562C7 5.64269 7.39207 5.25062 7.875 5.25062V5.25062M7 3.28187C7 2.91819 7.29258 2.62562 7.65625 2.62562C9.70977 2.62562 11.375 4.29085 11.375 6.34437C11.375 6.70804 11.0824 7.00062 10.7188 7.00062Cnan nan 10.0625 6.70804 10.0625 6.34437C10.0625 5.01546 8.98516 3.93812 7.65625 3.93812C7.29258 3.93812 7 3.64554 7 3.28187V3.28187M3.21289 0.0388978C3.74336 -0.106024 4.29844 0.164679 4.50898 0.673273L5.60273 3.29827C5.78867 3.74398 5.66016 4.26077 5.28555 4.56429L3.9375 5.66898C4.84805 7.59398 6.40664 9.15257 8.33164 10.0631L9.43359 8.71507C9.73984 8.34046 10.2539 8.21194 10.6996 8.39788L13.3246 9.49163C13.8332 9.70218 14.1039 10.2573 13.959 10.7877L13.3027 13.194C13.1742 13.6698 12.7422 14.0006 12.25 14.0006C5.48516 14.0006 0 8.51546 0 1.75062C0 1.25843 0.330859 0.826398 0.806641 0.695148L3.21289 0.0388978V0.0388978" fill="var(--fill-0, white)"/>
</g>
</svg>
