<svg preserveAspectRatio="none" width="100%" height="100%" overflow="visible" style="display: block;" viewBox="0 0 17.5 14" fill="none" xmlns="http://www.w3.org/2000/svg">
<g id="Img">
<path id="Vector" d="M8.84297 2.32969L6.19609 4.47344C5.75586 4.82891 5.67109 5.46875 6.00469 5.92539C6.35742 6.41211 7.04375 6.50781 7.5168 6.13867L10.232 4.02773C10.4234 3.88008 10.6969 3.91289 10.8473 4.1043C10.9977 4.2957 10.9621 4.56914 10.7707 4.71953L10.1992 5.1625L14 8.6625V3.5H13.9809L13.8742 3.43164L11.8891 2.16016C11.4707 1.89219 10.9813 1.75 10.4836 1.75C9.8875 1.75 9.30781 1.95508 8.84297 2.32969V2.32969M9.46641 5.73125L8.05273 6.83047C7.19141 7.50312 5.9418 7.32812 5.29648 6.44219C4.68945 5.6082 4.84258 4.44336 5.64375 3.79531L7.91875 1.95508C7.60156 1.82109 7.25977 1.75273 6.9125 1.75273C6.39844 1.75 5.89805 1.90312 5.46875 2.1875L3.5 3.5V9.625H4.27109L6.77031 11.9055C7.30625 12.3949 8.13477 12.3566 8.62422 11.8207C8.77461 11.6539 8.87578 11.4598 8.92773 11.2574L9.39258 11.684C9.92578 12.1734 10.757 12.1379 11.2465 11.6047C11.3695 11.4707 11.4598 11.3148 11.5172 11.1535C12.0477 11.509 12.7695 11.4352 13.2152 10.9484C13.7047 10.4152 13.6691 9.58398 13.1359 9.09453L9.46641 5.73125V5.73125M0.4375 3.5C0.196875 3.5 0 3.69688 0 3.9375V9.625C0 10.109 0.391016 10.5 0.875 10.5H1.75C2.23398 10.5 2.625 10.109 2.625 9.625V3.5H0.4375V3.5M1.3125 8.75C1.55396 8.75 1.75 8.94604 1.75 9.1875C1.75 9.42896 1.55396 9.625 1.3125 9.625C1.07104 9.625 0.875 9.42896 0.875 9.1875C0.875 8.94604 1.07104 8.75 1.3125 8.75V8.75M14.875 3.5V9.625C14.875 10.109 15.266 10.5 15.75 10.5H16.625C17.109 10.5 17.5 10.109 17.5 9.625V3.9375C17.5 3.69688 17.3031 3.5 17.0625 3.5H14.875V3.5M15.75 9.1875C15.75 8.94604 15.946 8.75 16.1875 8.75C16.429 8.75 16.625 8.94604 16.625 9.1875C16.625 9.42896 16.429 9.625 16.1875 9.625C15.946 9.625 15.75 9.42896 15.75 9.1875V9.1875" fill="var(--fill-0, #7A9C59)"/>
</g>
</svg>
