<svg preserveAspectRatio="none" width="100%" height="100%" overflow="visible" style="display: block;" viewBox="0 0 14 14" fill="none" xmlns="http://www.w3.org/2000/svg">
<g id="Img">
<path id="Vector" d="M12.25 7C12.25 4.10245 9.89755 1.75 7 1.75C4.10245 1.75 1.75 4.10245 1.75 7C1.75 9.89755 4.10245 12.25 7 12.25C9.89755 12.25 12.25 9.89755 12.25 7V7M0 7C0 3.13659 3.13659 0 7 0C10.8634 0 14 3.13659 14 7C14 10.8634 10.8634 14 7 14C3.13659 14 0 10.8634 0 7V7M7 9.1875C8.20731 9.1875 9.1875 8.20731 9.1875 7C9.1875 5.79269 8.20731 4.8125 7 4.8125C5.79269 4.8125 4.8125 5.79269 4.8125 7C4.8125 8.20731 5.79269 9.1875 7 9.1875V9.1875M7 3.0625C9.17317 3.0625 10.9375 4.82683 10.9375 7C10.9375 9.17317 9.17317 10.9375 7 10.9375C4.82683 10.9375 3.0625 9.17317 3.0625 7C3.0625 4.82683 4.82683 3.0625 7 3.0625V3.0625M6.125 7C6.125 6.51707 6.51707 6.125 7 6.125C7.48293 6.125 7.875 6.51707 7.875 7C7.875 7.48293 7.48293 7.875 7 7.875C6.51707 7.875 6.125 7.48293 6.125 7V7" fill="var(--fill-0, #2973B2)"/>
</g>
</svg>
