<svg preserveAspectRatio="none" width="100%" height="100%" overflow="visible" style="display: block;" viewBox="0 0 15.7521 14" fill="none" xmlns="http://www.w3.org/2000/svg">
<g id="Img">
<path id="Vector" d="M7.875 0.875C5.66562 0.875 3.89648 1.88125 2.60859 3.07891C1.32891 4.26562 0.473047 5.6875 0.0683594 6.66367C-0.021875 6.87969 -0.021875 7.12031 0.0683594 7.33633C0.473047 8.3125 1.32891 9.73438 2.60859 10.9211C3.89648 12.1188 5.66562 13.125 7.875 13.125C10.0844 13.125 11.8535 12.1188 13.1414 10.9211C14.4211 9.73164 15.277 8.3125 15.6844 7.33633C15.7746 7.12031 15.7746 6.87969 15.6844 6.66367C15.277 5.6875 14.4211 4.26562 13.1414 3.07891C11.8535 1.88125 10.0844 0.875 7.875 0.875V0.875M3.9375 7C3.9375 5.59327 4.68798 4.29339 5.90625 3.59002C7.12452 2.88666 8.62548 2.88666 9.84375 3.59002C11.062 4.29339 11.8125 5.59327 11.8125 7C11.8125 9.17317 10.0482 10.9375 7.875 10.9375C5.70183 10.9375 3.9375 9.17317 3.9375 7V7M7.875 5.25C7.875 6.21523 7.09023 7 6.125 7C5.93086 7 5.74492 6.96719 5.56992 6.90977C5.41953 6.86055 5.24453 6.95352 5.25 7.11211C5.2582 7.30078 5.28555 7.48945 5.3375 7.67812C5.71211 9.07812 7.15313 9.90937 8.55313 9.53477Cnan nan 10.7844 7.71914 10.4098 6.31914C10.1063 5.18437 9.10273 4.42148 7.98711 4.375C7.82852 4.36953 7.73555 4.5418 7.78477 4.69492C7.84219 4.86992 7.875 5.05586 7.875 5.25V5.25" fill="var(--fill-0, #48A6A7)"/>
</g>
</svg>
