<svg preserveAspectRatio="none" width="100%" height="100%" overflow="visible" style="display: block;" viewBox="0 0 24 24" fill="none" xmlns="http://www.w3.org/2000/svg">
<g id="Img">
<path id="Vector" d="M6.69844 6.69844C9.61406 3.78281 14.325 3.76875 17.2594 6.65156L15.3281 8.57812C15.0047 8.90156 14.9109 9.38437 15.0844 9.80625C15.2578 10.2281 15.6703 10.5 16.125 10.5H21.7266V10.5H22.125C22.7484 10.5 23.25 9.99844 23.25 9.375V3.375C23.25 2.92031 22.9781 2.50781 22.5562 2.33438C22.1344 2.16094 21.6516 2.25469 21.3281 2.57812L19.3781 4.52813C15.2719 0.473438 8.65781 0.4875 4.575 4.575C3.43125 5.71875 2.60625 7.06406 2.1 8.50313C1.82344 9.28594 2.23594 10.1391 3.01406 10.4156C3.79219 10.6922 4.65 10.2797 4.92656 9.50156C5.2875 8.47969 5.87344 7.51875 6.69844 6.69844V6.69844M0.75 14.625V14.9812V15.0141V20.625C0.75 21.0797 1.02188 21.4922 1.44375 21.6656Cnan nan 2.34844 21.7453 2.67188 21.4219L4.62188 19.4719C8.72812 23.5266 15.3422 23.5125 19.425 19.425C20.5687 18.2812 21.3984 16.9359 21.9047 15.5016C22.1813 14.7187 21.7688 13.8656 20.9906 13.5891Cnan nan 19.3547 13.725 19.0781 14.5031C18.7172 15.525 18.1312 16.4859 17.3062 17.3062C14.3906 20.2219 9.67969 20.2359 6.74531 17.3531L8.67188 15.4219C8.99531 15.0984 9.08906 14.6156 8.91562 14.1938Cnan nan 8.32969 13.5 7.875 13.5H2.26875H2.23594H1.875C1.25156 13.5 0.75 14.0016 0.75 14.625V14.625" fill="var(--fill-0, #7A9C59)"/>
</g>
</svg>
