<svg preserveAspectRatio="none" width="100%" height="100%" overflow="visible" style="display: block;" viewBox="0 0 30.0003 24.0005" fill="none" xmlns="http://www.w3.org/2000/svg">
<g id="Img">
<path id="Vector" d="M15.0003 24.0003C17.494 24.0003 19.7534 22.9878 21.38 21.3471L7.39714 10.3315C6.56276 12.0518 6.00026 13.7018 6.00026 15.0003C6.00026 19.969 10.0315 24.0003 15.0003 24.0003V24.0003M23.6815 17.3768C23.8878 16.6221 24.0003 15.8253 24.0003 15.0003C24.0003 10.7253 17.8971 2.70495 16.1909 0.548701C15.9096 0.197138 15.4925 0.000263493 15.0425 0.000263493H14.9581C14.5081 0.000263493 14.0909 0.197138 13.8096 0.548701C13.0221 1.54714 11.2831 3.8112 9.64714 6.37526L1.81901 0.239326C1.33151 -0.145049 0.623701 -0.0559865 0.239326 0.431513C-0.145049 0.919014 -0.0559865 1.62683 0.431513 2.0112L28.1815 23.7612C28.669 24.1456 29.3768 24.0565 29.7612 23.569Cnan nan 30.0565 22.3737 29.569 21.9893L23.6815 17.3768V17.3768M10.5003 15.7503C10.5003 17.8221 12.1784 19.5003 14.2503 19.5003C14.6628 19.5003 15.0003 19.8378 15.0003 20.2503Cnan nan 14.6628 21.0003 14.2503 21.0003C11.3487 21.0003 9.00026 18.6518 9.00026 15.7503C9.00026 15.3378 9.33776 15.0003 9.75026 15.0003Cnan nan 10.5003 15.3378 10.5003 15.7503V15.7503" fill="var(--fill-0, #48A6A7)"/>
</g>
</svg>
