<svg preserveAspectRatio="none" width="100%" height="100%" overflow="visible" style="display: block;" viewBox="0 0 24 24" fill="none" xmlns="http://www.w3.org/2000/svg">
<g id="Img">
<path id="Vector" d="M0 19.5C0 20.3297 0.670313 21 1.5 21H4.06406C4.64063 22.3266 5.9625 23.25 7.5 23.25C9.0375 23.25 10.3594 22.3266 10.9359 21H22.5C23.3297 21 24 20.3297 24 19.5C24 18.6703 23.3297 18 22.5 18H10.9359C10.3594 16.6734 9.0375 15.75 7.5 15.75C5.9625 15.75 4.64063 16.6734 4.06406 18H1.5C0.670313 18 0 18.6703 0 19.5V19.5M6 19.5C6 18.6721 6.67213 18 7.5 18C8.32787 18 9 18.6721 9 19.5C9 20.3279 8.32787 21 7.5 21C6.67213 21 6 20.3279 6 19.5V19.5M15 12C15 11.1721 15.6721 10.5 16.5 10.5C17.3279 10.5 18 11.1721 18 12C18 12.8279 17.3279 13.5 16.5 13.5C15.6721 13.5 15 12.8279 15 12V12M16.5 8.25C14.9625 8.25 13.6406 9.17344 13.0641 10.5H1.5C0.670313 10.5 0 11.1703 0 12Cnan nan 0.670313 13.5 1.5 13.5H13.0641C13.6406 14.8266 14.9625 15.75 16.5 15.75Cnan nan 19.3594 14.8266 19.9359 13.5H22.5C23.3297 13.5 24 12.8297 24 12Cnan nan 23.3297 10.5 22.5 10.5H19.9359C19.3594 9.17344 18.0375 8.25 16.5 8.25V8.25M9 6C8.17213 6 7.5 5.32787 7.5 4.5C7.5 3.67213 8.17213 3 9 3C9.82787 3 10.5 3.67213 10.5 4.5C10.5 5.32787 9.82787 6 9 6V6M12.4359 3C11.8594 1.67344 10.5375 0.75 9 0.75C7.4625 0.75 6.14063 1.67344 5.56406 3H1.5C0.670313 3 0 3.67031 0 4.5C0 5.32969 0.670313 6 1.5 6H5.56406C6.14063 7.32656 7.4625 8.25 9 8.25Cnan nan 11.8594 7.32656 12.4359 6H22.5C23.3297 6 24 5.32969 24 4.5Cnan nan 23.3297 3 22.5 3H12.4359V3" fill="var(--fill-0, #2973B2)"/>
</g>
</svg>
