<svg preserveAspectRatio="none" width="100%" height="100%" overflow="visible" style="display: block;" viewBox="0 0 24.0039 24.0039" fill="none" xmlns="http://www.w3.org/2000/svg">
<g id="Img">
<path id="Vector" d="M9.89254 0.344103C9.61129 0.0487902 9.18941 -0.0637098 8.79566 0.0394152C8.40191 0.14254 8.09723 0.456603 7.9941 0.850353L7.25348 3.78004L4.34723 2.95973C3.95348 2.84723 3.5316 2.95973 3.24567 3.24567C2.95973 3.5316 2.84723 3.95348 2.95973 4.34723L3.78004 7.25348L0.850353 7.99879C0.456603 8.09723 0.147228 8.4066 0.0394152 8.80035C-0.0683973 9.1941 0.0487902 9.61129 0.344103 9.89254L2.50973 12.0019L0.344103 14.1113C0.0487902 14.3925 -0.0637098 14.8144 0.0394152 15.2082C0.14254 15.6019 0.456603 15.9066 0.850353 16.0097L3.78004 16.7504L2.95973 19.6566C2.84723 20.0504 2.95973 20.4722 3.24567 20.7582C3.5316 21.0441 3.95348 21.1566 4.34723 21.0441L7.25348 20.2238L7.9941 23.1535C8.09254 23.5472 8.40191 23.8566 8.79566 23.9644C9.18941 24.0722 9.6066 23.955 9.89254 23.6644L12.0019 21.4988L14.1113 23.6644C14.3972 23.955 14.8144 24.0722 15.2082 23.9644C15.6019 23.8566 15.9066 23.5472 16.0097 23.1535L16.7504 20.2238L19.6566 21.0441C20.0504 21.1566 20.4722 21.0441 20.7582 20.7582C21.0441 20.4722 21.1566 20.0504 21.0441 19.6566L20.2238 16.7504L23.1535 16.0097C23.5472 15.9113 23.8566 15.6019 23.9644 15.2082C24.0722 14.8144 23.955 14.3972 23.6644 14.1113L21.4988 12.0019L23.6644 9.89254C23.955 9.6066 24.0722 9.18941 23.9644 8.79566C23.8566 8.40191 23.5472 8.09723 23.1535 7.9941L20.2238 7.25348L21.0441 4.34723C21.1566 3.95348 21.0441 3.5316 20.7582 3.24567C20.4722 2.95973 20.0504 2.84723 19.6566 2.95973L16.7504 3.78004L16.005 0.850353C15.9066 0.456603 15.5972 0.147228 15.2035 0.0394152C14.8097 -0.0683973 14.3925 0.0487902 14.1113 0.344103L12.0019 2.50973L9.89254 0.344103V0.344103" fill="var(--fill-0, #2973B2)"/>
</g>
</svg>
