<svg preserveAspectRatio="none" width="100%" height="100%" overflow="visible" style="display: block;" viewBox="0 0 12.5 20" fill="none" xmlns="http://www.w3.org/2000/svg">
<g id="Img">
<path id="Vector" d="M6.25 2.5C5.21484 2.5 4.375 3.33984 4.375 4.375V10.8008C4.375 11.4766 4.09766 12.0469 3.77734 12.4609C3.36719 12.9922 3.125 13.6523 3.125 14.375C3.125 16.1016 4.52344 17.5 6.25 17.5C7.97656 17.5 9.375 16.1016 9.375 14.375C9.375 13.6523 9.13281 12.9922 8.72266 12.4648C8.40234 12.0508 8.125 11.4805 8.125 10.8047V4.375C8.125 3.33984 7.28516 2.5 6.25 2.5V2.5M1.875 4.375C1.875 1.96094 3.83203 0 6.25 0C8.66797 0 10.625 1.95703 10.625 4.375V10.8008C10.625 10.8047 10.6289 10.8125 10.6328 10.8242C10.6406 10.8477 10.6641 10.8867 10.6992 10.9336C11.4375 11.8867 11.875 13.082 11.875 14.375C11.875 17.4805 9.35547 20 6.25 20Cnan nan 0.625 17.4805 0.625 14.375C0.625 13.0781 1.0625 11.8828 1.80078 10.9336C1.83594 10.8867 1.85938 10.8477 1.86719 10.8242C1.87109 10.8125 1.875 10.8047 1.875 10.8008V4.375V4.375M8.125 14.375C8.125 15.4102 7.28516 16.25 6.25 16.25Cnan nan 4.375 15.4102 4.375 14.375C4.375 13.5586 4.89844 12.8633 5.625 12.6055V8.125C5.625 7.78125 5.90625 7.5 6.25 7.5Cnan nan 6.875 7.78125 6.875 8.125V12.6055C7.60156 12.8633 8.125 13.5586 8.125 14.375V14.375" fill="var(--fill-0, #2973B2)"/>
</g>
</svg>
