<svg preserveAspectRatio="none" width="100%" height="100%" overflow="visible" style="display: block;" viewBox="0 0 20 20" fill="none" xmlns="http://www.w3.org/2000/svg">
<g id="Img">
<path id="Vector" d="M10.625 3.75C7.55469 3.75 4.95703 5.76172 4.07422 8.53516C5.38672 7.87109 6.86719 7.5 8.4375 7.5H11.875C12.2188 7.5 12.5 7.78125 12.5 8.125C12.5 8.46875 12.2188 8.75 11.875 8.75H11.25H8.4375V8.75C7.78906 8.75 7.16016 8.82422 6.55469 8.96094C5.54297 9.19141 4.60156 9.60156 3.76562 10.1602V10.1602C1.49609 11.6719 0 14.2539 0 17.1875V17.8125C0 18.332 0.417969 18.75 0.9375 18.75C1.45703 18.75 1.875 18.332 1.875 17.8125V17.1875C1.875 15.2852 2.68359 13.5742 3.97656 12.375C4.75 15.3242 7.43359 17.5 10.625 17.5H10.6641C15.8242 17.4727 20 12.3867 20 6.11719C20 4.45312 19.707 2.87109 19.1758 1.44531C19.0742 1.17578 18.6797 1.1875 18.543 1.44141C17.8086 2.81641 16.3555 3.75 14.6875 3.75H10.625V3.75" fill="var(--fill-0, #7A9C59)"/>
</g>
</svg>
