<svg viewBox="0 0 100 42" fill="none" xmlns="http://www.w3.org/2000/svg">
<g clip-path="url(#clip0_114_309)">
<path d="M41.5578 20.992C41.5585 18.2341 41.0216 15.5031 39.9779 12.955C38.9341 10.4068 37.4038 8.09148 35.4745 6.14113C33.5452 4.19078 31.2546 2.64365 28.7335 1.5881C26.2125 0.532549 23.5104 -0.0107423 20.7816 -0.0107422C15.27 -0.0107422 9.98408 2.20205 6.08678 6.14082C2.18948 10.0796 0 15.4217 0 20.992C-8.91099e-08 23.7498 0.537571 26.4807 1.58201 29.0285C2.62644 31.5764 4.15729 33.8913 6.0871 35.8412C8.01692 37.791 10.3079 39.3376 12.8292 40.3925C15.3505 41.4474 18.0528 41.99 20.7816 41.9893C26.2918 41.9893 31.5763 39.7771 35.4726 35.8393C39.3689 31.9015 41.5578 26.5608 41.5578 20.992Z" fill="#008446"/>
<path d="M50.1617 21.3813C47.1618 19.6964 46.0946 17.0509 46.0946 14.1425C46.0946 8.38476 50.8732 4.6178 57.8393 4.6178C66.2284 4.6178 69.1805 9.30236 69.1805 13.2786C69.2048 14.7608 68.8113 16.2194 68.046 17.4841C67.2807 18.7488 66.1752 19.7673 64.8585 20.4208V20.5227C67.7044 21.596 70.699 24.2414 70.699 28.6255C70.699 34.7374 65.6125 38.8692 57.3774 38.8692C48.2768 38.8692 44.5654 33.8735 44.5654 29.5914C44.5654 25.6205 46.753 23.0233 50.2095 21.494L50.1617 21.3813ZM61.487 29.2211C61.487 26.8278 59.257 24.7458 56.8677 24.1341C54.8872 24.6439 53.7881 26.6561 53.7881 28.6899C53.7993 29.7412 54.2204 30.7457 54.96 31.4852C55.6997 32.2246 56.698 32.6393 57.7384 32.6393C59.8622 32.6393 61.487 31.1582 61.487 29.2211ZM53.7881 13.9494C53.7881 15.6826 56.2199 17.2012 58.4074 17.9148C59.7295 17.609 60.7224 15.9187 60.7224 14.2928C60.7224 12.5059 59.8304 10.8371 57.4942 10.8371C55.3066 10.8371 53.7775 12.2161 53.7775 13.9494" fill="#008446"/>
<path d="M79.4576 21.4159C76.4577 19.7309 75.3905 17.0855 75.3905 14.1771C75.3905 8.4193 80.1691 4.65234 87.1352 4.65234C95.5243 4.65234 98.4764 9.33691 98.4764 13.3131C98.5007 14.7954 98.1072 16.254 97.3419 17.5187C96.5766 18.7834 95.4711 19.8019 94.1544 20.4553V20.5573C97.0003 21.6305 99.9949 24.276 99.9949 28.66C99.9949 34.7719 94.9084 38.9038 86.6733 38.9038C77.5727 38.9038 73.8613 33.908 73.8613 29.6259C73.8613 25.655 76.0489 23.0579 79.5054 21.5285L79.4576 21.4159ZM90.7829 29.2556C90.7829 26.8624 88.5528 24.7804 86.1635 24.1686C84.1831 24.6784 83.084 26.6907 83.084 28.7244C83.0952 29.7758 83.5163 30.7803 84.2559 31.5197C84.9956 32.2592 85.9939 32.6739 87.0343 32.6738C89.1581 32.6738 90.7829 31.1928 90.7829 29.2556ZM83.084 13.9839C83.084 15.7171 85.5158 17.2357 87.7033 17.9494C89.0254 17.6435 90.0183 15.9532 90.0183 14.3273C90.0183 12.5404 89.1263 10.8716 86.7901 10.8716C84.6025 10.8716 83.0734 12.2507 83.0734 13.9839" fill="#008446"/>
<path d="M24.6256 12.4439C26.6665 12.4439 28.6239 11.6248 30.0676 10.1668C31.5112 8.70882 32.323 6.73111 32.3244 4.66846H18.4718C16.4309 4.66846 14.4734 5.48749 13.0298 6.9455C11.5861 8.40352 10.7744 10.3812 10.7729 12.4439V38.8931C12.8148 38.8931 14.773 38.0733 16.2169 36.6141C17.6607 35.155 18.4718 33.1759 18.4718 31.1123V26.4439H23.0858C25.1267 26.4439 27.0842 25.6248 28.5278 24.1668C29.9715 22.7088 30.7832 20.7311 30.7846 18.6685H18.4718V12.4439H24.6256Z" fill="white"/>
</g>
<defs>
<clipPath id="clip0_114_309">
<rect width="100" height="42" fill="white"/>
</clipPath>
</defs>
</svg>
