<svg width="16" height="16" viewBox="0 0 16 16" fill="currentColor" xmlns="http://www.w3.org/2000/svg">
  <path d="M8.051 1.999h.09c.75.004 3.042.018 4.474.272.636.113 1.15.437 1.503.807.386.406.603.92.7 1.478.14.824.175 1.956.182 2.45v.988c-.007.494-.042 1.626-.182 2.45-.097.558-.314 1.072-.7 1.478-.353.37-.867.694-1.503.807-1.432.254-3.724.268-4.474.272h-.09c-.75-.004-3.042-.018-4.474-.272-.636-.113-1.15-.437-1.503-.807-.386-.406-.603-.92-.7-1.478-.14-.824-.175-1.956-.182-2.45v-.988c.007-.494.042-1.626.182-2.45.097-.558.314-1.072.7-1.478.353-.37.867-.694 1.503-.807 1.432-.254 3.724-.268 4.474-.272zM6.4 5.209v5.582l4.8-2.791L6.4 5.209z"/>
</svg>
