<svg width="60" height="14" viewBox="0 0 60 14" fill="none" xmlns="http://www.w3.org/2000/svg">
<g clip-path="url(#clip0_21_342)">
<path d="M3.15452e-06 14C2.65581 8.7475 16.8344 1.75796 26.9436 0.517213C37.8667 -0.847608 44.1635 0.310422 57.0142 6.14193C56.8428 5.31477 56.6286 4.65304 56.543 4.03266C56.4145 3.32957 56.286 2.58513 56.3288 1.88204C56.3288 1.67524 56.7143 1.30302 56.9713 1.26166C57.2283 1.2203 57.6567 1.50981 57.7424 1.7166C58.5134 3.7018 59.1988 5.68699 59.927 7.71355C60.1412 8.37528 59.8841 8.87158 59.1559 9.07837C56.3716 9.7401 53.5873 10.4432 50.7602 11.0636C50.1176 11.1876 49.3466 11.0222 48.4899 11.0222C49.1753 9.2438 50.7173 9.45059 51.8311 8.99565C52.9876 8.49935 54.2299 8.20984 55.7291 7.71355C52.1737 5.39748 48.5756 3.94995 44.7632 3.04007C30.7988 -0.35131 17.9481 2.46105 6.08266 9.98825C4.54058 10.9808 3.12701 12.1389 1.62776 13.1728C1.15657 13.3796 0.728206 13.5864 3.15452e-06 14Z" fill="#99A1AF"/>
</g>
<defs>
<clipPath id="clip0_21_342">
<rect width="60" height="14" fill="white"/>
</clipPath>
</defs>
</svg>
