<svg width="14" height="14" viewBox="0 0 18 18" fill="none" xmlns="http://www.w3.org/2000/svg">
  <path d="M4.13086 0.0500114C4.81289 -0.136317 5.52656 0.21173 5.79727 0.865636L7.20352 4.24064C7.44258 4.81368 7.27734 5.47814 6.7957 5.86837L5.0625 7.28868C6.2332 9.76368 8.23711 11.7676 10.7121 12.9383L12.1289 11.2051C12.5227 10.7234 13.1836 10.5582 13.7566 10.7973L17.1316 12.2035C17.7855 12.4742 18.1336 13.1879 17.9473 13.8699L17.1035 16.9637C16.9383 17.5754 16.3828 18.0008 15.75 18.0008C7.05234 18.0008 0 10.9484 0 2.25079C0 1.61798 0.425391 1.06251 1.03711 0.893761L4.13086 0.0500114Z" fill="currentColor"/>
</svg>
