<svg width="23" height="18" viewBox="0 0 23 18" fill="none" xmlns="http://www.w3.org/2000/svg">
  <path d="M18.5 2H14V0H4C2.9 0 2 0.9 2 2V12H0V14H2.55C2.22 14.58 2 15.26 2 16C2 17.66 3.34 19 5 19C6.66 19 8 17.66 8 16H15C15 17.66 16.34 19 18 19C19.66 19 21 17.66 21 16C21 15.26 20.78 14.58 20.45 14H22V7L18.5 2ZM5 17C4.45 17 4 16.55 4 16C4 15.45 4.45 15 5 15C5.55 15 6 15.45 6 16C6 16.55 5.55 17 5 17ZM7 12V4H12V12H7ZM18 17C17.45 17 17 16.55 17 16C17 15.45 17.45 15 18 15C18.55 15 19 15.45 19 16C19 16.55 18.55 17 18 17ZM16 12V5.5L19.5 12H16Z" fill="currentColor"/>
</svg>
