<svg xmlns="http://www.w3.org/2000/svg" width="22" height="22" viewBox="0 0 22 22" fill="none">
    <g clip-path="url(#clip0_87_358)">
        <path d="M5.5 20.1668V3.66683C5.5 3.1806 5.69315 2.71428 6.03697 2.37047C6.38079 2.02665 6.8471 1.8335 7.33333 1.8335H14.6667C15.1529 1.8335 15.6192 2.02665 15.963 2.37047C16.3068 2.71428 16.5 3.1806 16.5 3.66683V20.1668H5.5Z" stroke="#00844A" stroke-width="1.83333" stroke-linecap="round" stroke-linejoin="round"/>
        <path d="M5.50016 11H3.66683C3.1806 11 2.71428 11.1932 2.37047 11.537C2.02665 11.8808 1.8335 12.3471 1.8335 12.8333V18.3333C1.8335 18.8196 2.02665 19.2859 2.37047 19.6297C2.71428 19.9735 3.1806 20.1667 3.66683 20.1667H5.50016" stroke="#00844A" stroke-width="1.83333" stroke-linecap="round" stroke-linejoin="round"/>
        <path d="M16.5 8.25H18.3333C18.8196 8.25 19.2859 8.44315 19.6297 8.78697C19.9735 9.13079 20.1667 9.5971 20.1667 10.0833V18.3333C20.1667 18.8196 19.9735 19.2859 19.6297 19.6297C19.2859 19.9735 18.8196 20.1667 18.3333 20.1667H16.5" stroke="#00844A" stroke-width="1.83333" stroke-linecap="round" stroke-linejoin="round"/>
        <path d="M9.1665 5.5H12.8332" stroke="#00844A" stroke-width="1.83333" stroke-linecap="round" stroke-linejoin="round"/>
        <path d="M9.1665 9.1665H12.8332" stroke="#00844A" stroke-width="1.83333" stroke-linecap="round" stroke-linejoin="round"/>
        <path d="M9.1665 12.8335H12.8332" stroke="#00844A" stroke-width="1.83333" stroke-linecap="round" stroke-linejoin="round"/>
        <path d="M9.1665 16.5H12.8332" stroke="#00844A" stroke-width="1.83333" stroke-linecap="round" stroke-linejoin="round"/>
    </g>
    <defs>
        <clipPath id="clip0_87_358">
            <rect width="22" height="22" fill="white"/>
        </clipPath>
    </defs>
</svg>