<svg xmlns="http://www.w3.org/2000/svg" viewBox="0 0 44 44" fill="none">
    <path d="M24.75 3.66699C24.75 3.66699 29.028 4.0559 34.4727 9.50062C39.9174 14.9453 40.3063 19.2233 40.3063 19.2233" stroke="#00844A" stroke-width="1.5" stroke-linecap="round"/>
    <path d="M26.0464 10.1484C26.0464 10.1484 27.8613 10.667 30.5837 13.3893C33.306 16.1117 33.8246 17.9266 33.8246 17.9266" stroke="#00844A" stroke-width="1.5" stroke-linecap="round"/>
    <path d="M27.6846 27.5499L27.1409 27.0334V27.0334L27.6846 27.5499ZM28.5196 26.6708L29.0634 27.1873H29.0634L28.5196 26.6708ZM32.9502 26.0559L32.576 26.7059V26.7059L32.9502 26.0559ZM36.4528 28.072L36.0786 28.722L36.4528 28.072ZM37.4397 34.3905L37.9835 34.907V34.907L37.4397 34.3905ZM34.8354 37.1323L34.2916 36.6158V36.6158L34.8354 37.1323ZM32.4065 38.4323L32.4802 39.1787V39.1787L32.4065 38.4323ZM14.3282 30.2045L14.872 29.688L14.3282 30.2045ZM5.50529 12.7709L4.75637 12.8111L4.75637 12.8111L5.50529 12.7709ZM17.3755 15.589L17.9192 16.1056V16.1056L17.3755 15.589ZM17.6628 10.4374L18.2752 10.0044V10.0044L17.6628 10.4374ZM15.351 7.16763L14.7386 7.60061V7.60061L15.351 7.16763ZM9.64599 6.61584L10.1898 7.13236V7.13236L9.64599 6.61584ZM6.76839 9.64542L6.2246 9.1289L6.2246 9.1289L6.76839 9.64542ZM20.2824 23.9358L20.8262 23.4193L20.2824 23.9358ZM27.6846 27.5499L28.2284 28.0664L29.0634 27.1873L28.5196 26.6708L27.9758 26.1543L27.1409 27.0334L27.6846 27.5499ZM32.9502 26.0559L32.576 26.7059L36.0786 28.722L36.4528 28.072L36.8269 27.422L33.3243 25.4059L32.9502 26.0559ZM37.4397 34.3905L36.8959 33.8739L34.2916 36.6158L34.8354 37.1323L35.3792 37.6489L37.9835 34.907L37.4397 34.3905ZM32.4065 38.4323L32.3328 37.686C29.54 37.9616 22.4751 37.6927 14.872 29.688L14.3282 30.2045L13.7844 30.721C21.7527 39.1102 29.2984 39.4928 32.4802 39.1787L32.4065 38.4323ZM14.3282 30.2045L14.872 29.688C7.65862 22.0937 6.41038 15.6401 6.25422 12.7307L5.50529 12.7709L4.75637 12.8111C4.93075 16.0599 6.314 22.8561 13.7844 30.721L14.3282 30.2045ZM16.8496 16.1426L17.3934 16.6592L17.9192 16.1056L17.3755 15.589L16.8317 15.0725L16.3058 15.6261L16.8496 16.1426ZM17.6628 10.4374L18.2752 10.0044L15.9634 6.73464L15.351 7.16763L14.7386 7.60061L17.0504 10.8703L17.6628 10.4374ZM9.64599 6.61584L9.1022 6.09933L6.2246 9.1289L6.76839 9.64542L7.31218 10.1619L10.1898 7.13236L9.64599 6.61584ZM16.8496 16.1426C16.3058 15.6261 16.3051 15.6269 16.3044 15.6276C16.3042 15.6279 16.3035 15.6286 16.303 15.6291C16.302 15.6302 16.301 15.6312 16.3 15.6324C16.2979 15.6346 16.2957 15.637 16.2934 15.6395C16.2888 15.6446 16.2837 15.6503 16.2782 15.6566C16.2672 15.6693 16.2545 15.6844 16.2405 15.7021C16.2126 15.7374 16.1792 15.783 16.1432 15.8393C16.071 15.9521 15.9887 16.107 15.9176 16.3068C15.7738 16.7109 15.6847 17.2743 15.7924 18.0091C16.0054 19.4627 16.98 21.548 19.7386 24.4523L20.2824 23.9358L20.8262 23.4193C18.1673 20.62 17.4255 18.8087 17.2765 17.7916C17.2032 17.2911 17.2717 16.9756 17.3308 16.8097C17.3611 16.7245 17.3915 16.6716 17.4067 16.6478C17.4143 16.6358 17.4183 16.631 17.4168 16.6329C17.416 16.6339 17.4138 16.6366 17.41 16.641C17.4081 16.6432 17.4058 16.6458 17.403 16.6488C17.4017 16.6503 17.4002 16.652 17.3986 16.6537C17.3978 16.6545 17.3969 16.6554 17.3961 16.6563C17.3957 16.6568 17.395 16.6575 17.3948 16.6577C17.3941 16.6584 17.3934 16.6592 16.8496 16.1426ZM20.2824 23.9358L19.7386 24.4523C22.4927 27.3519 24.484 28.3929 25.8949 28.622C26.6118 28.7384 27.166 28.6423 27.5651 28.4849C27.7615 28.4075 27.9131 28.318 28.0227 28.2403C28.0774 28.2015 28.1215 28.1657 28.1556 28.1358C28.1727 28.1208 28.1872 28.1073 28.1993 28.0956C28.2054 28.0898 28.2108 28.0844 28.2157 28.0795C28.2181 28.0771 28.2204 28.0748 28.2225 28.0726C28.2236 28.0715 28.2246 28.0704 28.2256 28.0694C28.2261 28.0689 28.2268 28.0681 28.227 28.0679C28.2277 28.0671 28.2284 28.0664 27.6846 27.5499C27.1409 27.0334 27.1415 27.0326 27.1422 27.0319C27.1424 27.0317 27.1431 27.031 27.1435 27.0306C27.1444 27.0296 27.1452 27.0288 27.1461 27.0279C27.1477 27.0262 27.1493 27.0247 27.1507 27.0232C27.1536 27.0203 27.1561 27.0178 27.1583 27.0157C27.1625 27.0116 27.1653 27.0092 27.1665 27.0081C27.1688 27.0061 27.165 27.0096 27.1549 27.0168C27.1348 27.031 27.089 27.0603 27.0147 27.0896C26.8723 27.1457 26.5917 27.2155 26.1353 27.1414C25.1994 26.9894 23.4896 26.2234 20.8262 23.4193L20.2824 23.9358ZM15.351 7.16763L15.9634 6.73464C14.314 4.4018 11.0571 4.04114 9.1022 6.09933L9.64599 6.61584L10.1898 7.13236C11.4414 5.81467 13.5904 5.9767 14.7386 7.60061L15.351 7.16763ZM5.50529 12.7709L6.25422 12.7307C6.20342 11.7843 6.61944 10.8913 7.31218 10.1619L6.76839 9.64542L6.2246 9.1289C5.3274 10.0735 4.67797 11.3503 4.75637 12.8111L5.50529 12.7709ZM34.8354 37.1323L34.2916 36.6158C33.7116 37.2265 33.0461 37.6156 32.3328 37.686L32.4065 38.4323L32.4802 39.1787C33.6567 39.0626 34.6348 38.4325 35.3792 37.6489L34.8354 37.1323ZM17.3755 15.589L17.9192 16.1056C19.4756 14.467 19.5996 11.8776 18.2752 10.0044L17.6628 10.4374L17.0504 10.8703C17.9862 12.194 17.866 13.9836 16.8317 15.0725L17.3755 15.589ZM36.4528 28.072L36.0786 28.722C37.9219 29.7829 38.3078 32.3875 36.8959 33.8739L37.4397 34.3905L37.9835 34.907C40.0876 32.6918 39.4822 28.9503 36.8269 27.422L36.4528 28.072ZM28.5196 26.6708L29.0634 27.1873C29.9735 26.2291 31.392 26.0244 32.576 26.7059L32.9502 26.0559L33.3243 25.4059C31.5545 24.3872 29.3743 24.682 27.9758 26.1543L28.5196 26.6708Z" fill="#00844A"/>
</svg>
