<svg xmlns="http://www.w3.org/2000/svg" viewBox="0 0 32 32" fill="none">
    <path fill-rule="evenodd" clip-rule="evenodd" d="M15.9998 2.66699C23.3636 2.66699 29.3332 8.63653 29.3332 16.0003C29.3332 23.3641 23.3636 29.3337 15.9998 29.3337C8.63604 29.3337 2.6665 23.3641 2.6665 16.0003C2.6665 8.63653 8.63604 2.66699 15.9998 2.66699ZM22.8201 9.77897C22.4997 9.7712 22.1889 9.89552 21.9569 10.124L13.729 18.2998L10.104 14.2725C9.88829 14.0275 9.58694 13.882 9.26676 13.8662C8.94644 13.8505 8.63292 13.9662 8.39567 14.1891C8.15855 14.4119 8.01646 14.723 8.00114 15.0537C7.98596 15.3846 8.09925 15.7084 8.31494 15.9535L12.772 20.9248C12.8804 21.048 13.0125 21.1477 13.1587 21.2178C13.3048 21.2877 13.4626 21.3277 13.6235 21.3337C13.7846 21.3396 13.9455 21.312 14.0962 21.2529C14.2469 21.1938 14.3845 21.1035 14.5011 20.9886L23.6261 11.93C23.8577 11.7014 23.9923 11.3872 23.9998 11.0563C24.0073 10.7256 23.8873 10.4053 23.6665 10.1657C23.4452 9.92627 23.1405 9.78682 22.8201 9.77897Z" fill="#00C950"/>
</svg>
