<svg xmlns="http://www.w3.org/2000/svg" width="24" height="24" viewBox="0 0 24 24" fill="none">
    <path d="M6.5 5.5H17.5C17.8962 5.5 18.2974 5.77303 18.4258 6.1582L18.4277 6.16504L20.5 12.084V20C20.5 20.0874 20.4513 20.2167 20.334 20.334C20.2167 20.4513 20.0874 20.5 20 20.5H19C18.9126 20.5 18.7833 20.4513 18.666 20.334C18.5487 20.2167 18.5 20.0874 18.5 20V18.5H5.5V20C5.5 20.2569 5.29193 20.5 5 20.5H4C3.91262 20.5 3.78334 20.4513 3.66602 20.334C3.54869 20.2167 3.5 20.0874 3.5 20V12.084L5.57227 6.16504L5.57422 6.1582C5.70891 5.75413 6.02378 5.5 6.5 5.5ZM4.5 17.5H19.5V11.5H4.5V17.5ZM7.5 13.5C8.02386 13.5 8.5 13.9761 8.5 14.5C8.5 15.0239 8.02386 15.5 7.5 15.5C6.97614 15.5 6.5 15.0239 6.5 14.5C6.5 13.9761 6.97614 13.5 7.5 13.5ZM16.5 13.5C17.0239 13.5 17.5 13.9761 17.5 14.5C17.5 15.0239 17.0239 15.5 16.5 15.5C15.9761 15.5 15.5 15.0239 15.5 14.5C15.5 13.9761 15.9761 13.5 16.5 13.5ZM6.3252 6.8418L5.3252 9.8418L5.10645 10.5H18.916L18.6699 9.82812L17.5693 6.82812L17.4492 6.5H6.43945L6.3252 6.8418Z" fill="#DAF2ED" stroke="#00844A"/>
</svg>