<svg viewBox="0 0 187 199" fill="none" xmlns="http://www.w3.org/2000/svg" preserveAspectRatio="xMidYMid meet" overflow="visible">
    <g clip-path="url(#clip0_228_653)">
        <path d="M186.301 99.9391C186.301 87.5991 188.721 75.6191 193.491 64.3391C198.101 53.4491 204.691 43.6691 213.081 35.2791C221.471 26.8891 231.251 20.2891 242.141 15.6891C253.431 10.9191 265.401 8.4991 277.741 8.4991C290.081 8.4991 302.061 10.9191 313.341 15.6891C324.231 20.2991 334.011 26.8891 342.401 35.2791C350.791 43.6691 357.391 53.4491 361.991 64.3391C366.761 75.6291 369.181 87.5991 369.181 99.9391C369.181 112.279 366.761 124.259 361.991 135.539C357.381 146.429 350.791 156.209 342.401 164.599C334.011 172.989 324.231 179.589 313.341 184.189C302.061 188.959 290.081 191.379 277.741 191.379C265.401 191.379 253.421 188.959 242.141 184.189C231.691 179.769 222.261 173.519 214.101 165.599C214.971 164.599 215.501 163.289 215.501 161.859C215.501 158.709 212.941 156.149 209.791 156.149C206.641 156.149 204.081 158.709 204.081 161.859C204.081 165.009 206.641 167.569 209.791 167.569C210.821 167.569 211.781 167.299 212.621 166.819C220.991 174.969 230.661 181.399 241.401 185.939C252.921 190.809 265.151 193.279 277.741 193.279C290.331 193.279 302.561 190.809 314.081 185.939C325.201 181.239 335.181 174.509 343.751 165.939C352.321 157.369 359.051 147.389 363.751 136.269C368.621 124.749 371.091 112.519 371.091 99.9291C371.091 87.3391 368.621 75.1091 363.751 63.5891C359.051 52.4691 352.321 42.4891 343.751 33.9191C335.181 25.3491 325.201 18.6191 314.081 13.9191C302.561 9.0491 290.331 6.5791 277.741 6.5791C265.151 6.5791 252.921 9.0491 241.401 13.9191C230.281 18.6191 220.301 25.3491 211.731 33.9191C203.161 42.4891 196.431 52.4691 191.731 63.5891C186.861 75.1091 184.391 87.3391 184.391 99.9291H186.301V99.9391ZM205.991 161.869C205.991 159.769 207.701 158.059 209.801 158.059C211.901 158.059 213.611 159.769 213.611 161.869C213.611 163.969 211.901 165.679 209.801 165.679C207.701 165.679 205.991 163.969 205.991 161.869Z" fill="#FFCA05"/>
        <path d="M186.219 99.3496H184.319C184.319 111.69 181.899 123.67 177.129 134.95C172.519 145.84 165.929 155.62 157.539 164.01C149.149 172.4 139.369 179 128.479 183.6C117.199 188.37 105.219 190.79 92.8791 190.79C80.5391 190.79 68.5591 188.37 57.2791 183.6C46.3891 178.99 36.6091 172.4 28.2191 164.01C19.8291 155.62 13.2291 145.84 8.62906 134.95C3.85906 123.67 1.43906 111.69 1.43906 99.3496H-0.460938C-0.460938 111.95 2.00906 124.17 6.87906 135.69C11.5791 146.81 18.3091 156.79 26.8791 165.36C35.4491 173.93 45.429 180.66 56.549 185.36C68.069 190.23 80.2991 192.7 92.8891 192.7C105.479 192.7 117.709 190.23 129.229 185.36C140.349 180.66 150.329 173.93 158.899 165.36C167.469 156.79 174.199 146.81 178.899 135.69C183.769 124.17 186.239 111.94 186.239 99.3496H186.219Z" fill="#8BC53F"/>
        <path opacity="0.5" d="M204.029 68.5596H167.029V91.2696H204.029V68.5596Z" fill="url(#paint0_radial_228_653)" style="mix-blend-mode:multiply"/>
        <path d="M204.02 91.2695H167.02V107.44H204.02V91.2695Z" fill="white"/>
        <path opacity="0.5" d="M204.029 107.439H167.029V130.149H204.029V107.439Z" fill="url(#paint1_radial_228_653)" style="mix-blend-mode:multiply"/>
        <path d="M204.029 91.2695H167.029V107.44H204.029V91.2695Z" fill="white"/>
        <path d="M1.1302 99.0394H-0.769791C-0.769791 86.6994 -3.18979 74.7195 -7.95979 63.4395C-12.5698 52.5495 -19.1598 42.7695 -27.5498 34.3795C-35.9398 25.9895 -45.7198 19.3895 -56.6098 14.7895C-67.8898 10.0195 -79.8698 7.59945 -92.2098 7.59945C-104.55 7.59945 -116.53 10.0195 -127.81 14.7895C-138.7 19.3995 -148.48 25.9895 -156.87 34.3795C-165.26 42.7695 -171.86 52.5495 -176.46 63.4395C-181.23 74.7195 -183.65 86.6994 -183.65 99.0394H-185.55C-185.55 86.4394 -183.08 74.2195 -178.21 62.6995C-173.51 51.5795 -166.78 41.5995 -158.21 33.0295C-149.64 24.4595 -139.66 17.7295 -128.54 13.0295C-117.02 8.15945 -104.79 5.68945 -92.1998 5.68945C-79.6098 5.68945 -67.3798 8.15945 -55.8598 13.0295C-44.7398 17.7295 -34.7598 24.4595 -26.1898 33.0295C-17.6198 41.5995 -10.8898 51.5795 -6.1898 62.6995C-1.31981 74.2195 1.15019 86.4494 1.15019 99.0394H1.1302Z" fill="#209E3D"/>
        <path d="M95.9293 2.63965C84.7793 2.63965 73.9493 4.82965 63.7593 9.13965C60.0593 10.7096 56.4493 12.5497 53.0293 14.6297L54.0193 16.2596C57.3593 14.2296 60.8793 12.4297 64.4993 10.8997C74.4593 6.68965 85.0293 4.54965 95.9293 4.54965C106.829 4.54965 117.399 6.68965 127.359 10.8997C136.979 14.9697 145.609 20.7896 153.019 28.1996C160.209 35.3896 165.899 43.7296 169.949 52.9996C170.159 53.4796 170.709 53.6896 171.189 53.4896C171.679 53.2796 171.899 52.7197 171.689 52.2297C167.549 42.7397 161.719 34.2096 154.359 26.8496C146.769 19.2596 137.929 13.2996 128.089 9.13965C117.889 4.82965 107.069 2.63965 95.9193 2.63965H95.9293Z" fill="#8BC53F"/>
        <path d="M168.129 131.149C167.649 130.949 167.099 131.169 166.889 131.639C162.839 140.909 157.149 149.249 149.959 156.439C145.369 161.029 140.259 165.049 134.779 168.379L135.769 170.009C141.379 166.599 146.609 162.489 151.309 157.789C158.669 150.429 164.499 141.899 168.639 132.409C168.849 131.919 168.629 131.359 168.139 131.149H168.129Z" fill="#8BC53F"/>
        <path opacity="0.5" d="M146.973 143.881L128.391 156.937L147.422 184.026L166.005 170.971L146.973 143.881Z" fill="url(#paint2_radial_228_653)" style="mix-blend-mode:multiply"/>
        <path d="M125.811 153.607L112.58 162.902L130.624 188.586L143.855 179.291L125.811 153.607Z" fill="white"/>
        <path opacity="0.5" d="M64.5532 -12.6889L45.9707 0.366211L67.2406 30.6415L85.8231 17.5863L64.5532 -12.6889Z" fill="url(#paint3_radial_228_653)" style="mix-blend-mode:multiply"/>
        <path d="M45.9635 0.332397L32.7324 9.62793L54.0023 39.9032L67.2334 30.6076L45.9635 0.332397Z" fill="white"/>
        <path opacity="0.5" d="M18.6797 68.25H-18.3203V90.96H18.6797V68.25Z" fill="url(#paint4_radial_228_653)" style="mix-blend-mode:multiply"/>
        <path d="M18.6797 90.96H-18.3203V107.13H18.6797V90.96Z" fill="white"/>
        <path opacity="0.5" d="M18.6797 107.13H-18.3203V129.84H18.6797V107.13Z" fill="url(#paint5_radial_228_653)" style="mix-blend-mode:multiply"/>
        <path d="M18.6699 90.96H-18.3301V107.13H18.6699V90.96Z" fill="white"/>
        <path d="M92.9395 174.689C134.775 174.689 168.689 140.775 168.689 98.9395C168.689 57.1039 134.775 23.1895 92.9395 23.1895C51.1039 23.1895 17.1895 57.1039 17.1895 98.9395C17.1895 140.775 51.1039 174.689 92.9395 174.689Z" fill="#8BC53F"/>
        <path d="M93.2306 165.53C130.007 165.53 159.821 135.716 159.821 98.9396C159.821 62.163 130.007 32.3496 93.2306 32.3496C56.454 32.3496 26.6406 62.163 26.6406 98.9396C26.6406 135.716 56.454 165.53 93.2306 165.53Z" fill="url(#paint6_linear_228_653)"/>
        <path d="M93.2297 162.74C128.465 162.74 157.03 134.175 157.03 98.9397C157.03 63.7039 128.465 35.1396 93.2297 35.1396C57.9939 35.1396 29.4297 63.7039 29.4297 98.9397C29.4297 134.175 57.9939 162.74 93.2297 162.74Z" fill="url(#paint7_linear_228_653)"/>
        <path fill-rule="evenodd" clip-rule="evenodd" d="M99.419 132.549V123.729L91.839 122.019V121.939H91.499V122.019L83.919 123.729V132.549C83.919 132.549 83.129 136.509 87.209 136.509H96.169C100.239 136.509 99.459 132.549 99.459 132.549H99.419Z" fill="url(#paint8_radial_228_653)"/>
        <path fill-rule="evenodd" clip-rule="evenodd" d="M96.7299 123.759H99.2599C99.5999 123.759 99.8499 123.539 99.9099 123.229C100.33 120.309 101.54 117.669 103.59 115.229C112.77 104.249 114.18 101.609 114.18 95.0393C114.18 88.4693 112.33 85.2993 108.93 81.5293H74.4199C71.0199 85.2893 69.1699 90.0693 69.1699 95.0393C69.1699 100.009 70.5499 104.279 79.7599 115.229C81.8099 117.669 83.0199 120.309 83.4399 123.229C83.4999 123.539 83.7799 123.759 84.0899 123.759H86.6199" fill="url(#paint9_radial_228_653)"/>
        <path fill-rule="evenodd" clip-rule="evenodd" d="M89.9597 138.81H93.3597C94.8797 138.81 96.1698 137.83 96.5598 136.54H86.7598C87.1498 137.86 88.4397 138.81 89.9597 138.81Z" fill="url(#paint10_linear_228_653)"/>
        <path fill-rule="evenodd" clip-rule="evenodd" d="M83.1406 133.219C83.1406 133.749 83.6206 134.199 84.2106 134.199H99.1206C99.7106 134.199 100.191 133.749 100.191 133.219V132.289C100.191 131.919 99.8506 131.619 99.4606 131.619H83.9006C83.5106 131.619 83.1706 131.929 83.1706 132.289V133.219H83.1406Z" fill="url(#paint11_linear_228_653)"/>
        <path fill-rule="evenodd" clip-rule="evenodd" d="M99.4203 126.06H83.8603C83.3003 126.06 82.8203 126.65 82.8203 127.35V128.05C82.8203 128.75 83.3003 129.34 83.8603 129.34H99.4203C99.9803 129.34 100.46 128.75 100.46 128.05V127.35C100.46 126.65 99.9803 126.06 99.4203 126.06Z" fill="url(#paint12_linear_228_653)"/>
        <path fill-rule="evenodd" clip-rule="evenodd" d="M71.4798 69.3195H71.6998L75.4297 80.0195H107.89L111.65 69.2395C111.76 69.2395 111.87 69.2695 112.02 69.2695C112.95 69.2695 113.68 68.5695 113.68 67.7295C113.68 66.8895 112.95 66.1895 112.02 66.1895C111.09 66.1895 110.36 66.8895 110.36 67.7295C110.36 68.5695 110.44 68.2895 110.58 68.5195L99.7097 73.5495C99.3997 73.6895 99.0598 73.7195 98.7598 73.6095C98.4498 73.4995 98.1698 73.2695 98.0298 72.9895L93.1398 63.2195C93.6998 62.7995 94.0398 62.1795 94.0398 61.4795C94.0398 60.2395 92.9697 59.2295 91.6497 59.2295C90.3298 59.2295 89.2598 60.2395 89.2598 61.4795C89.2598 62.7195 89.6298 62.8295 90.1598 63.2195L85.2697 72.9895C85.1297 73.2695 84.8798 73.4995 84.5398 73.6095C84.1998 73.7195 83.8698 73.6895 83.5898 73.5495L72.8597 68.5795C72.9997 68.3595 73.0797 68.0695 73.0797 67.7895C73.0797 66.9495 72.3498 66.2495 71.4198 66.2495C70.4898 66.2495 69.7598 66.9495 69.7598 67.7895C69.7598 68.6295 70.4898 69.3295 71.4198 69.3295H71.4798V69.3195Z" fill="url(#paint13_linear_228_653)"/>
        <path opacity="0.3" d="M93.8102 86.2495C93.8102 86.2495 86.3402 98.0695 85.1602 101.239C85.1602 101.239 84.7902 101.829 85.6402 101.859C86.4902 101.889 90.6102 101.859 90.6102 101.859C90.6102 101.859 89.4002 106.489 89.1202 107.559C88.8402 108.629 88.1402 111.409 88.1402 111.409C88.1402 111.409 88.2002 111.519 88.3102 111.409C88.4202 111.299 91.9902 106.999 94.0102 104.169C96.0302 101.339 97.8802 98.6095 98.3602 97.8795C98.8402 97.1495 98.8902 97.0095 98.2802 97.0095H92.1602C92.1602 97.0095 93.1702 91.1995 93.5102 89.1495C93.8502 87.0995 93.8202 86.2295 93.8202 86.2295V86.2595H93.8102V86.2495Z" fill="#F3A41E"/>
        <path d="M93.5504 85.7397C93.5504 85.7397 86.0805 97.5597 84.9005 100.73C84.9005 100.73 84.5305 101.32 85.3805 101.35C86.2305 101.38 90.3505 101.35 90.3505 101.35C90.3505 101.35 89.1404 105.98 88.8604 107.05C88.5804 108.12 87.8805 110.9 87.8805 110.9C87.8805 110.9 87.9404 111.01 88.0504 110.9C88.1604 110.79 91.7305 106.49 93.7505 103.66C95.7705 100.82 97.6205 98.0997 98.1005 97.3697C98.5805 96.6397 98.6304 96.4997 98.0204 96.4997H91.9005C91.9005 96.4997 92.9105 90.6897 93.2505 88.6397C93.5905 86.5897 93.5605 85.7197 93.5605 85.7197V85.7497H93.5504V85.7397Z" fill="white"/>
    </g>
    <defs>
        <radialGradient id="paint0_radial_228_653" cx="0" cy="0" r="1" gradientUnits="userSpaceOnUse" gradientTransform="translate(185.909 100.02) scale(28.98 28.98)">
            <stop offset="0.02"/>
            <stop offset="0.05" stop-color="#1E1E1E"/>
            <stop offset="0.11" stop-color="#4C4C4C"/>
            <stop offset="0.16" stop-color="#777777"/>
            <stop offset="0.22" stop-color="#9C9C9C"/>
            <stop offset="0.28" stop-color="#BABABA"/>
            <stop offset="0.35" stop-color="#D3D3D3"/>
            <stop offset="0.43" stop-color="#E7E7E7"/>
            <stop offset="0.52" stop-color="#F4F4F4"/>
            <stop offset="0.63" stop-color="#FCFCFC"/>
            <stop offset="0.84" stop-color="white"/>
        </radialGradient>
        <radialGradient id="paint1_radial_228_653" cx="0" cy="0" r="1" gradientUnits="userSpaceOnUse" gradientTransform="translate(188.779 102.359) scale(23.22 23.22)">
            <stop offset="0.02"/>
            <stop offset="0.05" stop-color="#1E1E1E"/>
            <stop offset="0.11" stop-color="#4C4C4C"/>
            <stop offset="0.16" stop-color="#777777"/>
            <stop offset="0.22" stop-color="#9C9C9C"/>
            <stop offset="0.28" stop-color="#BABABA"/>
            <stop offset="0.35" stop-color="#D3D3D3"/>
            <stop offset="0.43" stop-color="#E7E7E7"/>
            <stop offset="0.52" stop-color="#F4F4F4"/>
            <stop offset="0.63" stop-color="#FCFCFC"/>
            <stop offset="0.84" stop-color="white"/>
        </radialGradient>
        <radialGradient id="paint2_radial_228_653" cx="0" cy="0" r="1" gradientTransform="matrix(42 2.5 -7.94708 41.651 122 164)" gradientUnits="userSpaceOnUse">
            <stop offset="0.02"/>
            <stop offset="0.05" stop-color="#1E1E1E"/>
            <stop offset="0.11" stop-color="#4C4C4C"/>
            <stop offset="0.16" stop-color="#777777"/>
            <stop offset="0.22" stop-color="#9C9C9C"/>
            <stop offset="0.28" stop-color="#BABABA"/>
            <stop offset="0.35" stop-color="#D3D3D3"/>
            <stop offset="0.43" stop-color="#E7E7E7"/>
            <stop offset="0.52" stop-color="#F4F4F4"/>
            <stop offset="0.63" stop-color="#FCFCFC"/>
            <stop offset="0.84" stop-color="white"/>
        </radialGradient>
        <radialGradient id="paint3_radial_228_653" cx="0" cy="0" r="1" gradientUnits="userSpaceOnUse" gradientTransform="translate(61.5 36.999) rotate(-46.0416) scale(38.8973 38.8973)">
            <stop offset="0.02"/>
            <stop offset="0.05" stop-color="#1E1E1E"/>
            <stop offset="0.11" stop-color="#4C4C4C"/>
            <stop offset="0.16" stop-color="#777777"/>
            <stop offset="0.22" stop-color="#9C9C9C"/>
            <stop offset="0.28" stop-color="#BABABA"/>
            <stop offset="0.35" stop-color="#D3D3D3"/>
            <stop offset="0.43" stop-color="#E7E7E7"/>
            <stop offset="0.52" stop-color="#F4F4F4"/>
            <stop offset="0.63" stop-color="#FCFCFC"/>
            <stop offset="0.84" stop-color="white"/>
        </radialGradient>
        <radialGradient id="paint4_radial_228_653" cx="0" cy="0" r="1" gradientUnits="userSpaceOnUse" gradientTransform="translate(-1.91031 99.49) scale(26.88 26.88)">
            <stop offset="0.02"/>
            <stop offset="0.05" stop-color="#1E1E1E"/>
            <stop offset="0.11" stop-color="#4C4C4C"/>
            <stop offset="0.16" stop-color="#777777"/>
            <stop offset="0.22" stop-color="#9C9C9C"/>
            <stop offset="0.28" stop-color="#BABABA"/>
            <stop offset="0.35" stop-color="#D3D3D3"/>
            <stop offset="0.43" stop-color="#E7E7E7"/>
            <stop offset="0.52" stop-color="#F4F4F4"/>
            <stop offset="0.63" stop-color="#FCFCFC"/>
            <stop offset="0.84" stop-color="white"/>
        </radialGradient>
        <radialGradient id="paint5_radial_228_653" cx="0" cy="0" r="1" gradientUnits="userSpaceOnUse" gradientTransform="translate(-0.870313 97.1499) scale(26.45 26.45)">
            <stop offset="0.02"/>
            <stop offset="0.05" stop-color="#1E1E1E"/>
            <stop offset="0.11" stop-color="#4C4C4C"/>
            <stop offset="0.16" stop-color="#777777"/>
            <stop offset="0.22" stop-color="#9C9C9C"/>
            <stop offset="0.28" stop-color="#BABABA"/>
            <stop offset="0.35" stop-color="#D3D3D3"/>
            <stop offset="0.43" stop-color="#E7E7E7"/>
            <stop offset="0.52" stop-color="#F4F4F4"/>
            <stop offset="0.63" stop-color="#FCFCFC"/>
            <stop offset="0.84" stop-color="white"/>
        </radialGradient>
        <linearGradient id="paint6_linear_228_653" x1="159.821" y1="98.9396" x2="26.6406" y2="98.9396" gradientUnits="userSpaceOnUse">
            <stop stop-color="white"/>
            <stop offset="0.33" stop-color="#FBFBFC"/>
            <stop offset="0.59" stop-color="#F1F2F2"/>
            <stop offset="0.83" stop-color="#E1E2E3"/>
            <stop offset="1" stop-color="#D0D2D3"/>
        </linearGradient>
        <linearGradient id="paint7_linear_228_653" x1="29.4297" y1="98.9397" x2="265.35" y2="98.9397" gradientUnits="userSpaceOnUse">
            <stop stop-color="white"/>
            <stop offset="0.33" stop-color="#FBFBFC"/>
            <stop offset="0.59" stop-color="#F1F2F2"/>
            <stop offset="0.83" stop-color="#E1E2E3"/>
            <stop offset="1" stop-color="#D0D2D3"/>
        </linearGradient>
        <radialGradient id="paint8_radial_228_653" cx="0" cy="0" r="1" gradientUnits="userSpaceOnUse" gradientTransform="translate(88.877 98.0865) scale(29.061 29.061)">
            <stop stop-color="#70BE44"/>
            <stop offset="1" stop-color="#008748"/>
        </radialGradient>
        <radialGradient id="paint9_radial_228_653" cx="0" cy="0" r="1" gradientUnits="userSpaceOnUse" gradientTransform="translate(125.9 122.099) scale(37.6 37.6)">
            <stop stop-color="#70BE44" offset=""/>
            <stop offset="1" stop-color="#008748"/>
        </radialGradient>
        <linearGradient id="paint10_linear_228_653" x1="86.7598" y1="137.67" x2="96.5598" y2="137.67" gradientUnits="userSpaceOnUse">
            <stop stop-color="#F9C815" offset=""/>
            <stop offset="1" stop-color="#F3A41E"/>
        </linearGradient>
        <linearGradient id="paint11_linear_228_653" x1="83.1406" y1="132.909" x2="100.151" y2="132.909" gradientUnits="userSpaceOnUse">
            <stop stop-color="#F9C815" offset=""/>
            <stop offset="1" stop-color="#F3A41E"/>
        </linearGradient>
        <linearGradient id="paint12_linear_228_653" x1="82.8203" y1="127.7" x2="100.46" y2="127.7" gradientUnits="userSpaceOnUse">
            <stop stop-color="#F9C815" offset=""/>
            <stop offset="1" stop-color="#F3A41E"/>
        </linearGradient>
        <linearGradient id="paint13_linear_228_653" x1="91.7198" y1="59.8795" x2="91.7198" y2="75.4395" gradientUnits="userSpaceOnUse">
            <stop stop-color="#F9C815" offset=""/>
            <stop offset="1" stop-color="#F3A41E"/>
        </linearGradient>
        <clipPath id="clip0_228_653">
            <rect width="187" height="199" fill="white"/>
        </clipPath>
    </defs>
</svg>
