<svg viewBox="0 0 187 199" fill="none" xmlns="http://www.w3.org/2000/svg" preserveAspectRatio="xMidYMid meet" overflow="visible">
    <g clip-path="url(#clip0_228_828)">
        <path d="M90.6289 17.29C101.779 17.29 112.609 19.48 122.799 23.79C132.639 27.95 141.479 33.91 149.069 41.5C156.659 49.09 162.619 57.93 166.779 67.77C171.089 77.96 173.279 88.79 173.279 99.94C173.279 111.09 171.089 121.92 166.779 132.11C162.619 141.95 156.659 150.79 149.069 158.38C141.479 165.97 132.639 171.93 122.799 176.09C112.609 180.4 101.779 182.59 90.6289 182.59V180.69C101.529 180.69 112.099 178.55 122.059 174.34C131.679 170.27 140.309 164.45 147.719 157.04C155.129 149.63 160.959 140.99 165.019 131.38C169.229 121.42 171.369 110.85 171.369 99.95C171.369 89.05 169.229 78.48 165.019 68.52C160.949 58.9 155.129 50.27 147.719 42.86C140.309 35.45 131.669 29.62 122.059 25.56C112.099 21.35 101.529 19.21 90.6289 19.21V17.29Z" fill="#FFCA05"/>
        <path opacity="0.5" d="M115.888 -0.280273H93.1777V36.7197H115.888V-0.280273Z" fill="url(#paint0_radial_228_828)" style="mix-blend-mode:multiply"/>
        <path d="M93.1778 -0.280273H77.0078V36.7197H93.1778V-0.280273Z" fill="white"/>
        <path opacity="0.5" d="M114.679 163.13H91.9688V200.13H114.679V163.13Z" fill="url(#paint1_radial_228_828)" style="mix-blend-mode:multiply"/>
        <path d="M91.9689 163.14H75.7988V200.14H91.9689V163.14Z" fill="white"/>
        <path d="M-0.820496 99.9401C-0.820496 87.6001 1.59951 75.6201 6.36951 64.3401C10.9795 53.4501 17.5695 43.6701 25.9595 35.2801C34.3495 26.8901 44.1295 20.2901 55.0195 15.6901C66.3095 10.9201 78.2795 8.50008 90.6195 8.50008C102.96 8.50008 114.94 10.9201 126.22 15.6901C137.11 20.3001 146.89 26.8901 155.28 35.2801C163.67 43.6701 170.27 53.4501 174.87 64.3401C179.64 75.6301 182.06 87.6001 182.06 99.9401C182.06 112.28 179.64 124.26 174.87 135.54C170.26 146.43 163.67 156.21 155.28 164.6C146.89 172.99 137.11 179.59 126.22 184.19C114.94 188.96 102.96 191.38 90.6195 191.38C78.2795 191.38 66.2995 188.96 55.0195 184.19C44.5695 179.77 35.1395 173.52 26.9795 165.6C27.8495 164.6 28.3795 163.29 28.3795 161.86C28.3795 158.71 25.8195 156.15 22.6695 156.15C19.5195 156.15 16.9595 158.71 16.9595 161.86C16.9595 165.01 19.5195 167.57 22.6695 167.57C23.6995 167.57 24.6595 167.3 25.4995 166.82C33.8695 174.97 43.5395 181.4 54.2795 185.94C65.7995 190.81 78.0295 193.28 90.6195 193.28C103.21 193.28 115.44 190.81 126.96 185.94C138.08 181.24 148.06 174.51 156.63 165.94C165.2 157.37 171.93 147.39 176.63 136.27C181.5 124.75 183.97 112.52 183.97 99.9301C183.97 87.3401 181.5 75.1101 176.63 63.5901C171.93 52.4701 165.2 42.4901 156.63 33.9201C148.06 25.3501 138.08 18.6201 126.96 13.9201C115.44 9.05007 103.21 6.58008 90.6195 6.58008C78.0295 6.58008 65.7995 9.05007 54.2795 13.9201C43.1595 18.6201 33.1795 25.3501 24.6095 33.9201C16.0395 42.4901 9.3095 52.4701 4.6095 63.5901C-0.260503 75.1101 -2.73047 87.3401 -2.73047 99.9301H-0.820496V99.9401ZM18.8695 161.87C18.8695 159.77 20.5795 158.06 22.6795 158.06C24.7795 158.06 26.4895 159.77 26.4895 161.87C26.4895 163.97 24.7795 165.68 22.6795 165.68C20.5795 165.68 18.8695 163.97 18.8695 161.87Z" fill="#FFCA05"/>
        <path d="M22.6788 164.249C23.9933 164.249 25.0588 163.184 25.0588 161.869C25.0588 160.555 23.9933 159.489 22.6788 159.489C21.3644 159.489 20.2988 160.555 20.2988 161.869C20.2988 163.184 21.3644 164.249 22.6788 164.249Z" fill="#FFCA05"/>
        <path opacity="0.5" d="M16.9082 68.5596H-20.0918V91.2696H16.9082V68.5596Z" fill="url(#paint2_radial_228_828)" style="mix-blend-mode:multiply"/>
        <path d="M16.8984 91.2695H-20.1016V107.44H16.8984V91.2695Z" fill="white"/>
        <path opacity="0.5" d="M16.9082 107.44H-20.0918V130.15H16.9082V107.44Z" fill="url(#paint3_radial_228_828)" style="mix-blend-mode:multiply"/>
        <path d="M16.9082 91.2695H-20.0918V107.44H16.9082V91.2695Z" fill="white"/>
        <path d="M90.6387 175.59C132.474 175.59 166.389 141.675 166.389 99.8398C166.389 58.0043 132.474 24.0898 90.6387 24.0898C48.8031 24.0898 14.8887 58.0043 14.8887 99.8398C14.8887 141.675 48.8031 175.59 90.6387 175.59Z" fill="#FFCA05"/>
        <path d="M90.6291 165.53C127.406 165.53 157.219 135.716 157.219 98.9396C157.219 62.163 127.406 32.3496 90.6291 32.3496C53.8524 32.3496 24.0391 62.163 24.0391 98.9396C24.0391 135.716 53.8524 165.53 90.6291 165.53Z" fill="url(#paint4_linear_228_828)"/>
        <path d="M90.6281 162.74C125.864 162.74 154.428 134.175 154.428 98.9397C154.428 63.7039 125.864 35.1396 90.6281 35.1396C55.3923 35.1396 26.8281 63.7039 26.8281 98.9397C26.8281 134.175 55.3923 162.74 90.6281 162.74Z" fill="url(#paint5_linear_228_828)"/>
        <path d="M95.1782 128.44C105.821 128.44 114.448 119.893 114.448 109.35C114.448 98.8067 105.821 90.2598 95.1782 90.2598C84.5356 90.2598 75.9082 98.8067 75.9082 109.35C75.9082 119.893 84.5356 128.44 95.1782 128.44Z" fill="url(#paint6_linear_228_828)"/>
        <path d="M127.839 103.3L127.889 103.04C127.889 103.04 127.839 102.97 127.829 102.88C124.969 104.21 121.759 104.65 118.109 103.89C121.959 103.43 124.919 101.74 126.739 98.4796C128.529 95.2196 128.879 91.3596 127.719 86.8596C127.719 86.8596 127.639 86.5396 127.589 86.3496C127.579 86.4096 127.589 86.7996 127.589 86.7996C127.489 87.2896 127.439 87.8196 127.339 88.3096C126.749 91.1296 125.129 93.0096 122.989 94.3696C120.779 95.7696 118.199 96.4896 115.569 97.1696C114.499 97.4296 113.449 97.6896 112.389 98.0096C115.259 102.39 116.429 107.85 115.289 113.35C114.149 118.85 115.099 114.24 114.949 114.69C115.979 114.78 116.969 114.63 117.949 114.41C120.659 113.8 122.609 112.08 122.609 112.08C119.219 111.37 118.759 111.1 117.319 110.23C117.439 110.25 119.799 110.27 120.599 110.19C124.509 109.83 126.799 107.22 127.849 103.33V103.3H127.839Z" fill="url(#paint7_linear_228_828)"/>
        <path d="M74.2485 108.72C74.3885 103.93 76.1685 99.6101 79.0285 96.2001C75.8185 94.3401 72.4885 92.6501 69.1885 90.9701C64.0685 88.3801 59.0285 85.6401 54.6585 81.6901C50.4185 77.8901 47.1885 73.1801 45.7785 67.0201C45.5485 65.9601 45.3785 64.8301 45.1685 63.7701C45.1685 63.7701 45.1085 62.9701 45.1085 62.8301C45.0085 63.2401 44.8685 63.8501 44.8685 63.8501C43.0185 72.7601 43.9985 81.0501 47.7385 88.6501C51.5085 96.3401 57.3585 101.22 64.7985 103.97C57.7785 103.85 51.5885 101.43 45.9585 97.3501C45.8985 97.5201 45.8785 97.9601 45.9585 98.2601C48.3485 106.91 52.9385 113.43 60.5285 116.01C62.0685 116.53 66.6185 117.6 66.8585 117.61C64.1485 118.73 63.2885 119.09 56.8285 119.01C56.8285 119.01 60.7785 123.54 66.0185 126.04C69.1485 127.54 72.3185 128.58 75.8985 127.95C76.6085 127.82 77.2885 127.58 77.9685 127.4C75.3685 130.91 71.9785 132.1 68.0385 132.3C68.7885 132.65 69.9185 133.3 71.1985 133.72C77.4885 135.76 82.6485 133.98 87.7485 129.57C88.0185 129.34 88.2585 129.12 88.5085 128.89C80.0085 126.11 73.9585 118.08 74.2385 108.74V108.71H74.2485V108.72Z" fill="url(#paint8_linear_228_828)"/>
        <path d="M104.489 103.27L96.6188 107.09C96.2388 106.8 95.7389 106.65 95.2089 106.65C93.8889 106.65 92.7988 107.74 92.7988 109.06C92.7988 110.38 93.8889 111.47 95.2089 111.47C96.5289 111.47 97.6188 110.38 97.6188 109.06C97.6188 107.74 97.6188 108.88 97.6188 108.77L104.639 103.51C104.789 103.42 104.639 103.19 104.489 103.28V103.27Z" fill="#F5F5F5"/>
        <path d="M81.608 109.7C81.608 107.53 82.1381 105.47 83.0181 103.65L80.1981 102.27C79.0781 104.56 78.498 107.06 78.498 109.64C78.498 112.22 78.998 114.31 79.938 116.45L82.7581 115.19C82.0281 113.52 81.608 111.67 81.608 109.73V109.7Z" fill="#F5F5F5"/>
        <path d="M93.9487 96.1593L93.6588 92.9893C88.7288 93.4593 84.2887 96.0393 81.4688 100.129L84.0787 101.919C86.3087 98.7193 89.8687 96.5393 93.9487 96.1593Z" fill="#F5F5F5"/>
        <path d="M106.198 101.68L108.758 99.8297C105.818 95.7797 101.298 93.2497 96.3077 92.9297L96.0977 96.1297C100.238 96.3897 103.878 98.5397 106.198 101.68Z" fill="#F5F5F5"/>
        <path d="M110.097 102.009L107.277 103.449C108.247 105.329 108.807 107.44 108.807 109.71C108.807 111.98 108.367 113.65 107.577 115.38L110.367 116.669C111.397 114.439 111.927 112.059 111.927 109.589C111.927 107.119 111.307 104.329 110.107 101.979V102.009H110.097Z" fill="#F5F5F5"/>
    </g>
    <defs>
        <radialGradient id="paint0_radial_228_828" cx="0" cy="0" r="1" gradientUnits="userSpaceOnUse" gradientTransform="translate(87.3789 26) rotate(-13.8287) scale(33.4701 33.4701)">
            <stop offset="0.02"/>
            <stop offset="0.05" stop-color="#1E1E1E"/>
            <stop offset="0.11" stop-color="#4C4C4C"/>
            <stop offset="0.16" stop-color="#777777"/>
            <stop offset="0.22" stop-color="#9C9C9C"/>
            <stop offset="0.28" stop-color="#BABABA"/>
            <stop offset="0.35" stop-color="#D3D3D3"/>
            <stop offset="0.43" stop-color="#E7E7E7"/>
            <stop offset="0.52" stop-color="#F4F4F4"/>
            <stop offset="0.63" stop-color="#FCFCFC"/>
            <stop offset="0.84" stop-color="white"/>
        </radialGradient>
        <radialGradient id="paint1_radial_228_828" cx="0" cy="0" r="1" gradientUnits="userSpaceOnUse" gradientTransform="translate(84.3789 177.5) rotate(7.76517) scale(33.3054 33.3055)">
            <stop offset="0.02"/>
            <stop offset="0.05" stop-color="#1E1E1E"/>
            <stop offset="0.11" stop-color="#4C4C4C"/>
            <stop offset="0.16" stop-color="#777777"/>
            <stop offset="0.22" stop-color="#9C9C9C"/>
            <stop offset="0.28" stop-color="#BABABA"/>
            <stop offset="0.35" stop-color="#D3D3D3"/>
            <stop offset="0.43" stop-color="#E7E7E7"/>
            <stop offset="0.52" stop-color="#F4F4F4"/>
            <stop offset="0.63" stop-color="#FCFCFC"/>
            <stop offset="0.84" stop-color="white"/>
        </radialGradient>
        <radialGradient id="paint2_radial_228_828" cx="0" cy="0" r="1" gradientUnits="userSpaceOnUse" gradientTransform="translate(-1.2118 100.02) scale(28.98 28.98)">
            <stop offset="0.02"/>
            <stop offset="0.05" stop-color="#1E1E1E"/>
            <stop offset="0.11" stop-color="#4C4C4C"/>
            <stop offset="0.16" stop-color="#777777"/>
            <stop offset="0.22" stop-color="#9C9C9C"/>
            <stop offset="0.28" stop-color="#BABABA"/>
            <stop offset="0.35" stop-color="#D3D3D3"/>
            <stop offset="0.43" stop-color="#E7E7E7"/>
            <stop offset="0.52" stop-color="#F4F4F4"/>
            <stop offset="0.63" stop-color="#FCFCFC"/>
            <stop offset="0.84" stop-color="white"/>
        </radialGradient>
        <radialGradient id="paint3_radial_228_828" cx="0" cy="0" r="1" gradientUnits="userSpaceOnUse" gradientTransform="translate(1.6582 102.36) scale(23.22 23.22)">
            <stop offset="0.02"/>
            <stop offset="0.05" stop-color="#1E1E1E"/>
            <stop offset="0.11" stop-color="#4C4C4C"/>
            <stop offset="0.16" stop-color="#777777"/>
            <stop offset="0.22" stop-color="#9C9C9C"/>
            <stop offset="0.28" stop-color="#BABABA"/>
            <stop offset="0.35" stop-color="#D3D3D3"/>
            <stop offset="0.43" stop-color="#E7E7E7"/>
            <stop offset="0.52" stop-color="#F4F4F4"/>
            <stop offset="0.63" stop-color="#FCFCFC"/>
            <stop offset="0.84" stop-color="white"/>
        </radialGradient>
        <linearGradient id="paint4_linear_228_828" x1="157.219" y1="98.9396" x2="24.0391" y2="98.9396" gradientUnits="userSpaceOnUse">
            <stop stop-color="white" offset=""/>
            <stop offset="0.33" stop-color="#FBFBFC"/>
            <stop offset="0.59" stop-color="#F1F2F2"/>
            <stop offset="0.83" stop-color="#E1E2E3"/>
            <stop offset="1" stop-color="#D0D2D3"/>
        </linearGradient>
        <linearGradient id="paint5_linear_228_828" x1="26.8281" y1="98.9397" x2="256.978" y2="98.9397" gradientUnits="userSpaceOnUse">
            <stop stop-color="white" offset=""/>
            <stop offset="0.33" stop-color="#FBFBFC"/>
            <stop offset="0.59" stop-color="#F1F2F2"/>
            <stop offset="0.83" stop-color="#E1E2E3"/>
            <stop offset="1" stop-color="#D0D2D3"/>
        </linearGradient>
        <linearGradient id="paint6_linear_228_828" x1="53.6382" y1="48.3298" x2="102.628" y2="120.29" gradientUnits="userSpaceOnUse">
            <stop stop-color="#70BE44" offset=""/>
            <stop offset="1" stop-color="#008748"/>
        </linearGradient>
        <linearGradient id="paint7_linear_228_828" x1="125.047" y1="82.0407" x2="117.75" y2="109.633" gradientUnits="userSpaceOnUse">
            <stop stop-color="#F9C815" offset=""/>
            <stop offset="1" stop-color="#F3A41E"/>
        </linearGradient>
        <linearGradient id="paint8_linear_228_828" x1="47.3439" y1="86.4906" x2="63.0319" y2="103.119" gradientUnits="userSpaceOnUse">
            <stop stop-color="#F9C815" offset=""/>
            <stop offset="1" stop-color="#F3A41E"/>
        </linearGradient>
        <clipPath id="clip0_228_828">
            <rect width="187" height="199" fill="white"/>
        </clipPath>
    </defs>
</svg>
