<svg viewBox="0 0 186 199" fill="none" xmlns="http://www.w3.org/2000/svg" preserveAspectRatio="xMidYMid meet" overflow="visible">
    <g clip-path="url(#clip0_228_478)">
        <path d="M372.219 99.3496H370.319C370.319 111.69 367.899 123.67 363.129 134.95C358.519 145.84 351.929 155.62 343.539 164.01C335.149 172.4 325.369 179 314.479 183.6C303.199 188.37 291.219 190.79 278.879 190.79C266.539 190.79 254.559 188.37 243.279 183.6C232.389 178.99 222.609 172.4 214.219 164.01C205.829 155.62 199.229 145.84 194.629 134.95C189.859 123.67 187.439 111.69 187.439 99.3496H185.539C185.539 111.95 188.009 124.17 192.879 135.69C197.579 146.81 204.309 156.79 212.879 165.36C221.449 173.93 231.429 180.66 242.549 185.36C254.069 190.23 266.299 192.7 278.889 192.7C291.479 192.7 303.709 190.23 315.229 185.36C326.349 180.66 336.329 173.93 344.899 165.36C353.469 156.79 360.199 146.81 364.899 135.69C369.769 124.17 372.239 111.94 372.239 99.3496H372.219Z" fill="#8BC53F"/>
        <path d="M93.7701 181.69C82.6201 181.69 71.7901 179.5 61.6001 175.19C57.9001 173.62 54.2901 171.78 50.8701 169.7L51.8601 168.07C55.2001 170.1 58.7201 171.9 62.3401 173.43C72.3001 177.64 82.8701 179.78 93.7701 179.78C104.67 179.78 115.24 177.64 125.2 173.43C134.82 169.36 143.45 163.54 150.86 156.13C158.27 148.72 163.74 140.6 167.79 131.33C168 130.85 168.55 130.64 169.03 130.84C169.52 131.05 169.74 131.61 169.53 132.1C165.39 141.59 159.56 150.12 152.2 157.48C144.61 165.07 135.77 171.03 125.93 175.19C115.73 179.5 104.91 181.69 93.7601 181.69H93.7701Z" fill="#209E3D"/>
        <path d="M170.32 65.1598C169.84 65.3598 169.29 65.1398 169.08 64.6698C165.03 55.3998 159.34 47.0598 152.15 39.8698C147.56 35.2798 142.45 31.2598 136.97 27.9298L137.96 26.2998C143.57 29.7098 148.8 33.8198 153.5 38.5198C160.86 45.8798 166.69 54.4098 170.83 63.8998C171.04 64.3898 170.82 64.9498 170.33 65.1598H170.32Z" fill="#209E3D"/>
        <path opacity="0.5" d="M148.226 13.9552L126.956 44.2305L145.539 57.2856L166.808 27.0103L148.226 13.9552Z" fill="url(#paint0_radial_228_478)" style="mix-blend-mode:multiply"/>
        <path d="M134.994 4.66713L113.724 34.9424L126.955 44.2379L148.225 13.9627L134.994 4.66713Z" fill="white"/>
        <path opacity="0.5" d="M65.0824 153.7L43.8125 183.976L62.395 197.031L83.6649 166.755L65.0824 153.7Z" fill="url(#paint1_radial_228_478)" style="mix-blend-mode:multiply"/>
        <path d="M51.8285 144.42L30.5586 174.695L43.7897 183.991L65.0596 153.716L51.8285 144.42Z" fill="white"/>
        <path d="M187.13 99.0404H185.23C185.23 86.7004 182.81 74.7204 178.04 63.4404C173.43 52.5504 166.84 42.7704 158.45 34.3804C150.06 25.9904 140.28 19.3904 129.39 14.7904C118.11 10.0204 106.13 7.60043 93.7902 7.60043C81.4502 7.60043 69.4702 10.0204 58.1902 14.7904C47.3002 19.4004 37.5202 25.9904 29.1302 34.3804C20.7402 42.7704 14.1402 52.5504 9.54019 63.4404C4.77019 74.7204 2.3502 86.7004 2.3502 99.0404H0.450195C0.450195 86.4404 2.92019 74.2204 7.79019 62.7004C12.4902 51.5804 19.2202 41.6004 27.7902 33.0304C36.3602 24.4604 46.3402 17.7304 57.4602 13.0304C68.9802 8.16043 81.2102 5.69043 93.8002 5.69043C106.39 5.69043 118.62 8.16043 130.14 13.0304C141.26 17.7304 151.24 24.4604 159.81 33.0304C168.38 41.6004 175.11 51.5804 179.81 62.7004C184.68 74.2204 187.15 86.4504 187.15 99.0404H187.13Z" fill="#209E3D"/>
        <path d="M0.0497742 99.0402C0.0497742 111.38 -2.37022 123.36 -7.14023 134.64C-11.7502 145.53 -18.3402 155.31 -26.7302 163.7C-35.1202 172.09 -44.9002 178.69 -55.7902 183.29C-67.0802 188.06 -79.0502 190.48 -91.3902 190.48C-103.73 190.48 -115.71 188.06 -126.99 183.29C-137.88 178.68 -147.66 172.09 -156.05 163.7C-164.44 155.31 -171.04 145.53 -175.64 134.64C-180.41 123.35 -182.83 111.38 -182.83 99.0402C-182.83 86.7002 -180.41 74.7202 -175.64 63.4402C-171.03 52.5502 -164.44 42.7702 -156.05 34.3802C-147.66 25.9902 -137.88 19.3902 -126.99 14.7902C-115.71 10.0202 -103.73 7.60019 -91.3902 7.60019C-79.0502 7.60019 -67.0702 10.0202 -55.7902 14.7902C-45.3402 19.2102 -35.9102 25.4602 -27.7502 33.3802C-28.6202 34.3802 -29.1502 35.6902 -29.1502 37.1202C-29.1502 40.2702 -26.5902 42.8302 -23.4402 42.8302C-20.2902 42.8302 -17.7302 40.2702 -17.7302 37.1202C-17.7302 33.9702 -20.2902 31.4102 -23.4402 31.4102C-24.4702 31.4102 -25.4302 31.6802 -26.2702 32.1602C-34.6402 24.0102 -44.3102 17.5802 -55.0502 13.0402C-66.5702 8.1702 -78.8002 5.7002 -91.3902 5.7002C-103.98 5.7002 -116.21 8.1702 -127.73 13.0402C-138.85 17.7402 -148.83 24.4702 -157.4 33.0402C-165.97 41.6102 -172.7 51.5902 -177.4 62.7102C-182.27 74.2302 -184.74 86.4602 -184.74 99.0502C-184.74 111.64 -182.27 123.87 -177.4 135.39C-172.7 146.51 -165.97 156.49 -157.4 165.06C-148.83 173.63 -138.85 180.36 -127.73 185.06C-116.21 189.93 -103.98 192.4 -91.3902 192.4C-78.8002 192.4 -66.5702 189.93 -55.0502 185.06C-43.9302 180.36 -33.9502 173.63 -25.3802 165.06C-16.8102 156.49 -10.0802 146.51 -5.38023 135.39C-0.510239 123.87 1.95978 111.64 1.95978 99.0502H0.0497742V99.0402ZM-19.6402 37.1102C-19.6402 39.2102 -21.3502 40.9202 -23.4502 40.9202C-25.5502 40.9202 -27.2602 39.2102 -27.2602 37.1102C-27.2602 35.0102 -25.5502 33.3002 -23.4502 33.3002C-21.3502 33.3002 -19.6402 35.0102 -19.6402 37.1102Z" fill="#008848"/>
        <path d="M162.56 158.13C161.25 158.13 160.18 159.2 160.18 160.51C160.18 161.82 161.25 162.89 162.56 162.89C163.87 162.89 164.94 161.82 164.94 160.51C164.94 159.2 163.87 158.13 162.56 158.13Z" fill="#209E3D"/>
        <path d="M162.56 154.8C159.41 154.8 156.85 157.36 156.85 160.51C156.85 161.85 157.32 163.08 158.09 164.06C149.77 172.29 140.11 178.77 129.37 183.31C118.08 188.08 106.11 190.5 93.7699 190.5C81.4299 190.5 69.4499 188.08 58.1699 183.31C47.2799 178.7 37.4999 172.11 29.1099 163.72C28.7399 163.35 28.1399 163.35 27.7599 163.72C27.3899 164.09 27.3899 164.69 27.7599 165.07C36.3299 173.64 46.3099 180.37 57.4299 185.07C68.9499 189.94 81.1799 192.41 93.7699 192.41C106.36 192.41 118.59 189.94 130.11 185.07C141.11 180.42 151 173.78 159.5 165.34C160.38 165.9 161.43 166.23 162.55 166.23C165.7 166.23 168.26 163.67 168.26 160.52C168.26 157.37 165.7 154.81 162.55 154.81H162.56V154.8ZM162.56 164.31C160.46 164.31 158.75 162.6 158.75 160.5C158.75 158.4 160.46 156.69 162.56 156.69C164.66 156.69 166.37 158.4 166.37 160.5C166.37 162.6 164.66 164.31 162.56 164.31Z" fill="#209E3D"/>
        <path opacity="0.5" d="M19.5098 68.25H-17.4902V90.96H19.5098V68.25Z" fill="url(#paint2_radial_228_478)" style="mix-blend-mode:multiply"/>
        <path d="M19.5098 90.96H-17.4902V107.13H19.5098V90.96Z" fill="white"/>
        <path opacity="0.5" d="M19.5098 107.13H-17.4902V129.84H19.5098V107.13Z" fill="url(#paint3_radial_228_478)" style="mix-blend-mode:multiply"/>
        <path d="M19.5 90.96H-17.5V107.13H19.5V90.96Z" fill="white"/>
        <path opacity="0.5" d="M204.68 68.25H167.68V90.96H204.68V68.25Z" fill="url(#paint4_radial_228_478)" style="mix-blend-mode:multiply"/>
        <path d="M204.68 90.96H167.68V107.13H204.68V90.96Z" fill="white"/>
        <path opacity="0.5" d="M204.68 107.13H167.68V129.84H204.68V107.13Z" fill="url(#paint5_radial_228_478)" style="mix-blend-mode:multiply"/>
        <path d="M204.67 90.96H167.67V107.13H204.67V90.96Z" fill="white"/>
        <path d="M93.7695 174.69C135.605 174.69 169.52 140.776 169.52 98.9404C169.52 57.1049 135.605 23.1904 93.7695 23.1904C51.9339 23.1904 18.0195 57.1049 18.0195 98.9404C18.0195 140.776 51.9339 174.69 93.7695 174.69Z" fill="#209E3D"/>
        <path d="M94.3595 165.53C131.136 165.53 160.95 135.716 160.95 98.9396C160.95 62.163 131.136 32.3496 94.3595 32.3496C57.5829 32.3496 27.7695 62.163 27.7695 98.9396C27.7695 135.716 57.5829 165.53 94.3595 165.53Z" fill="url(#paint6_linear_228_478)"/>
        <path d="M94.3596 162.74C129.595 162.74 158.16 134.175 158.16 98.9397C158.16 63.7039 129.595 35.1396 94.3596 35.1396C59.1238 35.1396 30.5596 63.7039 30.5596 98.9397C30.5596 134.175 59.1238 162.74 94.3596 162.74Z" fill="url(#paint7_linear_228_478)"/>
        <path d="M96.7596 68.2402L66.8496 75.5702C66.8496 75.5702 68.1296 98.9802 72.0496 110.08C76.3296 121.47 96.7596 134.17 96.7596 134.17C96.7596 134.17 116.88 121.46 121.47 110.08C125.3 99.1202 126.4 75.5702 126.4 75.5702L96.7696 68.2402H96.7596Z" fill="url(#paint8_linear_228_478)"/>
        <path opacity="0.3" d="M91.0098 100.29L96.7798 118.05L102.66 100.4L96.8898 82.9404L91.0098 100.29ZM96.9198 113.26L93.1998 102.26H100.53L96.9198 113.26Z" fill="#008748"/>
        <path d="M90.5693 100.201L96.3393 117.961L102.219 100.311L96.4493 82.8506L90.5693 100.201ZM96.4893 113.151L92.2793 100.261H100.569L96.4893 113.151Z" fill="#FFC114"/>
        <path d="M94.9895 76.5106V72.5605H96.0295L96.8495 74.0106C97.0795 74.4306 97.3195 74.9205 97.4895 75.3605H97.5095C97.4495 74.8405 97.4295 74.3105 97.4295 73.7105V72.5605H98.2495V76.5106H97.3095L96.4695 74.9905C96.2395 74.5705 95.9795 74.0605 95.7795 73.6005H95.7595C95.7795 74.1305 95.7995 74.6806 95.7995 75.3306V76.5205H94.9795L94.9895 76.5106Z" fill="white"/>
        <path d="M95.4593 129.741C95.6993 129.861 96.0693 129.991 96.4493 129.991C96.8593 129.991 97.0793 129.821 97.0793 129.561C97.0793 129.301 96.8893 129.171 96.4193 129.001C95.7593 128.771 95.3393 128.411 95.3393 127.831C95.3393 127.161 95.8993 126.641 96.8293 126.641C97.2693 126.641 97.5993 126.731 97.8393 126.841L97.6393 127.561C97.4793 127.481 97.1993 127.371 96.8093 127.371C96.4193 127.371 96.2393 127.551 96.2393 127.751C96.2393 128.001 96.4593 128.111 96.9693 128.311C97.6693 128.571 97.9893 128.931 97.9893 129.491C97.9893 130.151 97.4793 130.711 96.3993 130.711C95.9493 130.711 95.4993 130.591 95.2793 130.471L95.4593 129.731V129.741Z" fill="white"/>
    </g>
    <defs>
        <radialGradient id="paint0_radial_228_478" cx="0" cy="0" r="1" gradientUnits="userSpaceOnUse" gradientTransform="translate(123 33) rotate(3.90049) scale(44.1022 44.1021)">
            <stop offset="0.02"/>
            <stop offset="0.05" stop-color="#1E1E1E"/>
            <stop offset="0.11" stop-color="#4C4C4C"/>
            <stop offset="0.16" stop-color="#777777"/>
            <stop offset="0.22" stop-color="#9C9C9C"/>
            <stop offset="0.28" stop-color="#BABABA"/>
            <stop offset="0.35" stop-color="#D3D3D3"/>
            <stop offset="0.43" stop-color="#E7E7E7"/>
            <stop offset="0.52" stop-color="#F4F4F4"/>
            <stop offset="0.63" stop-color="#FCFCFC"/>
            <stop offset="0.84" stop-color="white"/>
        </radialGradient>
        <radialGradient id="paint1_radial_228_478" cx="0" cy="0" r="1" gradientUnits="userSpaceOnUse" gradientTransform="translate(55 156.5) rotate(75.5792) scale(36.1386 36.1386)">
            <stop offset="0.02"/>
            <stop offset="0.05" stop-color="#1E1E1E"/>
            <stop offset="0.11" stop-color="#4C4C4C"/>
            <stop offset="0.16" stop-color="#777777"/>
            <stop offset="0.22" stop-color="#9C9C9C"/>
            <stop offset="0.28" stop-color="#BABABA"/>
            <stop offset="0.35" stop-color="#D3D3D3"/>
            <stop offset="0.43" stop-color="#E7E7E7"/>
            <stop offset="0.52" stop-color="#F4F4F4"/>
            <stop offset="0.63" stop-color="#FCFCFC"/>
            <stop offset="0.84" stop-color="white"/>
        </radialGradient>
        <radialGradient id="paint2_radial_228_478" cx="0" cy="0" r="1" gradientUnits="userSpaceOnUse" gradientTransform="translate(0.169766 96.36) scale(23.69 23.69)">
            <stop offset="0.02"/>
            <stop offset="0.05" stop-color="#1E1E1E"/>
            <stop offset="0.11" stop-color="#4C4C4C"/>
            <stop offset="0.16" stop-color="#777777"/>
            <stop offset="0.22" stop-color="#9C9C9C"/>
            <stop offset="0.28" stop-color="#BABABA"/>
            <stop offset="0.35" stop-color="#D3D3D3"/>
            <stop offset="0.43" stop-color="#E7E7E7"/>
            <stop offset="0.52" stop-color="#F4F4F4"/>
            <stop offset="0.63" stop-color="#FCFCFC"/>
            <stop offset="0.84" stop-color="white"/>
        </radialGradient>
        <radialGradient id="paint3_radial_228_478" cx="0" cy="0" r="1" gradientUnits="userSpaceOnUse" gradientTransform="translate(-0.350234 101.84) scale(24.01 24.01)">
            <stop offset="0.02"/>
            <stop offset="0.05" stop-color="#1E1E1E"/>
            <stop offset="0.11" stop-color="#4C4C4C"/>
            <stop offset="0.16" stop-color="#777777"/>
            <stop offset="0.22" stop-color="#9C9C9C"/>
            <stop offset="0.28" stop-color="#BABABA"/>
            <stop offset="0.35" stop-color="#D3D3D3"/>
            <stop offset="0.43" stop-color="#E7E7E7"/>
            <stop offset="0.52" stop-color="#F4F4F4"/>
            <stop offset="0.63" stop-color="#FCFCFC"/>
            <stop offset="0.84" stop-color="white"/>
        </radialGradient>
        <radialGradient id="paint4_radial_228_478" cx="0" cy="0" r="1" gradientUnits="userSpaceOnUse" gradientTransform="translate(184.09 99.49) scale(26.88 26.88)">
            <stop offset="0.02"/>
            <stop offset="0.05" stop-color="#1E1E1E"/>
            <stop offset="0.11" stop-color="#4C4C4C"/>
            <stop offset="0.16" stop-color="#777777"/>
            <stop offset="0.22" stop-color="#9C9C9C"/>
            <stop offset="0.28" stop-color="#BABABA"/>
            <stop offset="0.35" stop-color="#D3D3D3"/>
            <stop offset="0.43" stop-color="#E7E7E7"/>
            <stop offset="0.52" stop-color="#F4F4F4"/>
            <stop offset="0.63" stop-color="#FCFCFC"/>
            <stop offset="0.84" stop-color="white"/>
        </radialGradient>
        <radialGradient id="paint5_radial_228_478" cx="0" cy="0" r="1" gradientUnits="userSpaceOnUse" gradientTransform="translate(185.13 97.1499) scale(26.45 26.45)">
            <stop offset="0.02"/>
            <stop offset="0.05" stop-color="#1E1E1E"/>
            <stop offset="0.11" stop-color="#4C4C4C"/>
            <stop offset="0.16" stop-color="#777777"/>
            <stop offset="0.22" stop-color="#9C9C9C"/>
            <stop offset="0.28" stop-color="#BABABA"/>
            <stop offset="0.35" stop-color="#D3D3D3"/>
            <stop offset="0.43" stop-color="#E7E7E7"/>
            <stop offset="0.52" stop-color="#F4F4F4"/>
            <stop offset="0.63" stop-color="#FCFCFC"/>
            <stop offset="0.84" stop-color="white"/>
        </radialGradient>
        <linearGradient id="paint6_linear_228_478" x1="160.95" y1="98.9396" x2="27.7695" y2="98.9396" gradientUnits="userSpaceOnUse">
            <stop stop-color="white" offset=""/>
            <stop offset="0.33" stop-color="#FBFBFC"/>
            <stop offset="0.59" stop-color="#F1F2F2"/>
            <stop offset="0.83" stop-color="#E1E2E3"/>
            <stop offset="1" stop-color="#D0D2D3"/>
        </linearGradient>
        <linearGradient id="paint7_linear_228_478" x1="30.5596" y1="98.9397" x2="256.38" y2="98.9397" gradientUnits="userSpaceOnUse">
            <stop stop-color="white" offset=""/>
            <stop offset="0.33" stop-color="#FBFBFC"/>
            <stop offset="0.59" stop-color="#F1F2F2"/>
            <stop offset="0.83" stop-color="#E1E2E3"/>
            <stop offset="1" stop-color="#D0D2D3"/>
        </linearGradient>
        <linearGradient id="paint8_linear_228_478" x1="121.21" y1="34.1402" x2="89.3696" y2="103.24" gradientUnits="userSpaceOnUse">
            <stop stop-color="#70BE44" offset=""/>
            <stop offset="1" stop-color="#008748"/>
        </linearGradient>
        <clipPath id="clip0_228_478">
            <rect width="186" height="199" fill="white"/>
        </clipPath>
    </defs>
</svg>
