<svg viewBox="0 0 187 199" fill="none" xmlns="http://www.w3.org/2000/svg" preserveAspectRatio="xMidYMid meet" overflow="visible">
    <g clip-path="url(#clip0_228_303)">
        <path d="M95.6002 181.69C84.4502 181.69 73.6202 179.5 63.4302 175.19C53.5902 171.03 44.7502 165.07 37.1602 157.48C29.5702 149.89 23.6102 141.05 19.4502 131.21C15.1402 121.02 12.9502 110.19 12.9502 99.0396C12.9502 87.8896 15.1402 77.0597 19.4502 66.8697C23.6102 57.0297 29.5702 48.1896 37.1602 40.5996C44.7502 33.0096 53.5902 27.0496 63.4302 22.8896C73.6202 18.5796 84.4502 16.3896 95.6002 16.3896V18.2896C84.7002 18.2896 74.1302 20.4296 64.1702 24.6396C54.5502 28.7096 45.9202 34.5297 38.5102 41.9397C31.1002 49.3497 25.2702 57.9896 21.2102 67.5996C17.0002 77.5596 14.8602 88.1296 14.8602 99.0296C14.8602 109.93 17.0002 120.5 21.2102 130.46C25.2802 140.08 31.1002 148.71 38.5102 156.12C45.9202 163.53 54.5602 169.36 64.1702 173.42C74.1302 177.63 84.7002 179.77 95.6002 179.77V181.69Z" fill="#008848"/>
        <path opacity="0.5" d="M104.749 2.63867H86.7793V31.9887H104.749V2.63867Z" fill="url(#paint0_radial_228_303)" style="mix-blend-mode:multiply"/>
        <path d="M107.56 2.62988H94.7598V31.9799H107.56V2.62988Z" fill="white"/>
        <path opacity="0.5" d="M104.26 162.238H81.5498V199.238H104.26V162.238Z" fill="url(#paint1_radial_228_303)" style="mix-blend-mode:multiply"/>
        <path d="M110.43 162.239H94.2598V199.239H110.43V162.239Z" fill="white"/>
        <path d="M187.05 99.0392C187.05 111.379 184.63 123.359 179.86 134.639C175.25 145.529 168.66 155.309 160.27 163.699C151.88 172.089 142.1 178.689 131.21 183.289C119.92 188.059 107.95 190.479 95.6098 190.479C83.2698 190.479 71.2898 188.059 60.0098 183.289C49.1198 178.679 39.3398 172.089 30.9498 163.699C22.5598 155.309 15.9598 145.529 11.3598 134.639C6.58977 123.349 4.16977 111.379 4.16977 99.0392C4.16977 86.6992 6.58977 74.7192 11.3598 63.4392C15.9698 52.5492 22.5598 42.7692 30.9498 34.3792C39.3398 25.9892 49.1198 19.3892 60.0098 14.7892C71.2898 10.0192 83.2698 7.59922 95.6098 7.59922C107.95 7.59922 119.93 10.0192 131.21 14.7892C141.66 19.2092 151.09 25.4592 159.25 33.3792C158.38 34.3792 157.85 35.6892 157.85 37.1192C157.85 40.2692 160.41 42.8292 163.56 42.8292C166.71 42.8292 169.27 40.2692 169.27 37.1192C169.27 33.9692 166.71 31.4092 163.56 31.4092C162.53 31.4092 161.57 31.6792 160.73 32.1592C152.36 24.0092 142.69 17.5792 131.95 13.0392C120.43 8.16922 108.2 5.69922 95.6098 5.69922C83.0198 5.69922 70.7898 8.16922 59.2698 13.0392C48.1498 17.7392 38.1698 24.4692 29.5998 33.0392C21.0298 41.6092 14.2998 51.5892 9.59977 62.7092C4.72977 74.2292 2.25977 86.4592 2.25977 99.0492C2.25977 111.639 4.72977 123.869 9.59977 135.389C14.2998 146.509 21.0298 156.489 29.5998 165.059C38.1698 173.629 48.1498 180.359 59.2698 185.059C70.7898 189.929 83.0198 192.399 95.6098 192.399C108.2 192.399 120.43 189.929 131.95 185.059C143.07 180.359 153.05 173.629 161.62 165.059C170.19 156.489 176.92 146.509 181.62 135.389C186.49 123.869 188.96 111.639 188.96 99.0492H187.05V99.0392ZM167.36 37.1092C167.36 39.2092 165.65 40.9192 163.55 40.9192C161.45 40.9192 159.74 39.2092 159.74 37.1092C159.74 35.0092 161.45 33.2992 163.55 33.2992C165.65 33.2992 167.36 35.0092 167.36 37.1092Z" fill="#008848"/>
        <path d="M163.55 39.4895C164.86 39.4895 165.93 38.4195 165.93 37.1095C165.93 35.7995 164.86 34.7295 163.55 34.7295C162.24 34.7295 161.17 35.7995 161.17 37.1095C161.17 38.4195 162.24 39.4895 163.55 39.4895Z" fill="#008848"/>
        <path opacity="0.5" d="M206.51 68.25H169.51V90.96H206.51V68.25Z" fill="url(#paint2_radial_228_303)" style="mix-blend-mode:multiply"/>
        <path d="M206.51 90.96H169.51V107.13H206.51V90.96Z" fill="white"/>
        <path opacity="0.5" d="M206.51 107.13H169.51V129.84H206.51V107.13Z" fill="url(#paint3_radial_228_303)" style="mix-blend-mode:multiply"/>
        <path d="M206.5 90.96H169.5V107.13H206.5V90.96Z" fill="white"/>
        <path d="M95.5996 174.689C137.435 174.689 171.35 140.775 171.35 98.9395C171.35 57.1039 137.435 23.1895 95.5996 23.1895C53.764 23.1895 19.8496 57.1039 19.8496 98.9395C19.8496 140.775 53.764 174.689 95.5996 174.689Z" fill="#008848"/>
        <path d="M95.5998 165.53C132.376 165.53 162.19 135.716 162.19 98.9396C162.19 62.163 132.376 32.3496 95.5998 32.3496C58.8231 32.3496 29.0098 62.163 29.0098 98.9396C29.0098 135.716 58.8231 165.53 95.5998 165.53Z" fill="url(#paint4_linear_228_303)"/>
        <path d="M95.5998 162.74C130.836 162.74 159.4 134.175 159.4 98.9397C159.4 63.7039 130.836 35.1396 95.5998 35.1396C60.364 35.1396 31.7998 63.7039 31.7998 98.9397C31.7998 134.175 60.364 162.74 95.5998 162.74Z" fill="url(#paint5_linear_228_303)"/>
        <path d="M94.3997 72.3596C94.2297 72.5296 93.9597 72.5396 93.7797 72.3796C92.4397 71.1096 86.9797 66.3396 80.1397 66.4096C71.8697 66.4896 64.9497 71.4196 61.5997 77.1596C59.0397 81.5396 57.1097 87.3196 58.6697 94.9296C60.3497 103.12 66.2397 109.22 71.6997 114.75C77.2097 120.33 92.7897 133 94.0897 133C95.3897 133 109.89 121.26 116.43 114.75C122.06 109.14 128.1 102.77 129.5 95.0096C130.67 88.5196 129.66 81.9096 126.57 77.1996C123.58 72.6496 117.31 66.2996 108.45 66.3996C101.23 66.4896 96.4097 70.2696 94.3997 72.3696V72.3596Z" fill="#FFC114"/>
        <mask id="mask0_228_303" style="mask-type:luminance" maskUnits="userSpaceOnUse" x="58" y="66" width="72" height="67">
            <path d="M94.3997 72.3596C94.2297 72.5296 93.9597 72.5396 93.7797 72.3796C92.4397 71.1096 86.9797 66.3396 80.1397 66.4096C71.8697 66.4896 64.9497 71.4196 61.5997 77.1596C59.0397 81.5396 57.1097 87.3196 58.6697 94.9296C60.3497 103.12 66.2397 109.22 71.6997 114.75C77.2097 120.33 92.7897 133 94.0897 133C95.3897 133 109.89 121.26 116.43 114.75C122.06 109.14 128.1 102.77 129.5 95.0096C130.67 88.5196 129.66 81.9096 126.57 77.1996C123.58 72.6496 117.31 66.2996 108.45 66.3996C101.23 66.4896 96.4097 70.2696 94.3997 72.3696V72.3596Z" fill="white"/>
        </mask>
        <g mask="url(#mask0_228_303)">
            <path d="M111.79 95.1195C110.66 96.1295 109.58 97.1795 108.48 98.2195C106.48 100.099 104.45 102.009 102.45 103.889C102.27 104.039 102.12 104.129 101.94 103.889C101.76 103.679 101.76 103.559 101.97 103.319C105.07 100.399 108.2 97.4695 111.31 94.5495C112.71 93.2395 114.11 91.9295 115.52 90.5795C116.65 89.5095 116.68 87.6295 115.58 86.4895C114.48 85.3595 112.63 85.2995 111.49 86.3695C108.57 89.1095 105.64 91.8595 102.72 94.5995C101.14 96.0895 99.5599 97.5495 97.9799 99.0395C97.7399 99.2795 97.5599 99.2495 97.3799 99.0395C97.2299 98.8295 97.3199 98.6795 97.4699 98.5295C99.4099 96.7095 101.35 94.8895 103.29 93.0395C105.35 91.0995 107.44 89.1595 109.49 87.1895C110.89 85.8795 112.26 84.5995 113.64 83.2795C114.5 82.4395 114.77 81.1295 114.3 80.0595C113.41 78.1195 111.08 77.7595 109.68 79.0195C108.46 80.1195 107.26 81.2595 106.07 82.3895C103.8 84.5095 101.54 86.6595 99.2699 88.7695C97.3299 90.5895 95.3899 92.4095 93.4499 94.2595C93.2099 94.4695 93.0899 94.4695 92.9099 94.2595C92.6999 94.0495 92.7599 93.8995 92.9399 93.7195C94.3099 92.4395 95.7099 91.1295 97.0899 89.8095C99.2699 87.7495 101.47 85.6895 103.65 83.6395C104.07 83.2495 104.51 82.8595 104.9 82.4495C106.03 81.2895 106.06 79.5295 104.96 78.3595C103.89 77.2295 102.1 77.1395 100.9 78.2095C99.1399 79.8195 97.4099 81.4595 95.6799 83.0995C92.7299 85.8695 89.7699 88.6495 86.7899 91.4495C85.2099 92.9395 83.6299 94.4295 82.0499 95.9195C81.8699 96.0995 81.7199 96.1295 81.5099 95.9195C81.2999 95.7095 81.3599 95.5595 81.5399 95.3795C82.7899 94.2195 84.0499 93.0495 85.2699 91.8895C87.4499 89.7695 87.5399 86.4295 85.4799 84.1895L85.2099 83.9195C84.7599 84.3395 84.3199 84.7595 83.8699 85.1695C81.4199 87.4695 78.9499 89.7595 76.5299 92.0895C73.7899 94.7095 71.9399 97.8795 71.1299 101.599C70.5599 104.249 70.6199 106.879 71.5499 109.439C71.6099 109.589 71.6099 109.709 71.4599 109.829C70.6499 110.579 69.8499 111.319 69.0699 112.099C69.0699 112.099 69.0099 112.159 68.9799 112.159C67.0699 113.709 65.2799 114.579 65.9099 115.229L80.6099 128.469C80.7599 128.379 83.8599 125.189 83.9499 125.069C84.8099 124.259 85.6499 123.459 86.5199 122.679C86.6399 122.589 86.7899 122.499 86.9399 122.499C89.7399 122.439 92.0999 121.429 94.1299 119.519C97.5599 116.239 101.05 113.019 104.51 109.769C107.1 107.319 109.7 104.879 112.29 102.429C113.39 101.389 114.53 100.339 115.63 99.2995C116.79 98.1995 116.79 96.4095 115.69 95.1795C114.68 94.0795 112.83 93.9895 111.69 95.0295L111.78 95.0595V95.1195H111.79Z" fill="url(#paint6_linear_228_303)"/>
        </g>
    </g>
    <defs>
        <radialGradient id="paint0_radial_228_303" cx="0" cy="0" r="1" gradientUnits="userSpaceOnUse" gradientTransform="translate(96 18.3135) scale(15.4983 15.3116)">
            <stop offset="0.02"/>
            <stop offset="0.05" stop-color="#1E1E1E"/>
            <stop offset="0.11" stop-color="#4C4C4C"/>
            <stop offset="0.16" stop-color="#777777"/>
            <stop offset="0.22" stop-color="#9C9C9C"/>
            <stop offset="0.28" stop-color="#BABABA"/>
            <stop offset="0.35" stop-color="#D3D3D3"/>
            <stop offset="0.43" stop-color="#E7E7E7"/>
            <stop offset="0.52" stop-color="#F4F4F4"/>
            <stop offset="0.63" stop-color="#FCFCFC"/>
            <stop offset="0.84" stop-color="white"/>
        </radialGradient>
        <radialGradient id="paint1_radial_228_303" cx="0" cy="0" r="1" gradientUnits="userSpaceOnUse" gradientTransform="translate(97 183.214) scale(20.5137 20.0527)">
            <stop offset="0.02"/>
            <stop offset="0.05" stop-color="#1E1E1E"/>
            <stop offset="0.11" stop-color="#4C4C4C"/>
            <stop offset="0.16" stop-color="#777777"/>
            <stop offset="0.22" stop-color="#9C9C9C"/>
            <stop offset="0.28" stop-color="#BABABA"/>
            <stop offset="0.35" stop-color="#D3D3D3"/>
            <stop offset="0.43" stop-color="#E7E7E7"/>
            <stop offset="0.52" stop-color="#F4F4F4"/>
            <stop offset="0.63" stop-color="#FCFCFC"/>
            <stop offset="0.84" stop-color="white"/>
        </radialGradient>
        <radialGradient id="paint2_radial_228_303" cx="0" cy="0" r="1" gradientUnits="userSpaceOnUse" gradientTransform="translate(187.17 96.36) scale(23.69 23.69)">
            <stop offset="0.02"/>
            <stop offset="0.05" stop-color="#1E1E1E"/>
            <stop offset="0.11" stop-color="#4C4C4C"/>
            <stop offset="0.16" stop-color="#777777"/>
            <stop offset="0.22" stop-color="#9C9C9C"/>
            <stop offset="0.28" stop-color="#BABABA"/>
            <stop offset="0.35" stop-color="#D3D3D3"/>
            <stop offset="0.43" stop-color="#E7E7E7"/>
            <stop offset="0.52" stop-color="#F4F4F4"/>
            <stop offset="0.63" stop-color="#FCFCFC"/>
            <stop offset="0.84" stop-color="white"/>
        </radialGradient>
        <radialGradient id="paint3_radial_228_303" cx="0" cy="0" r="1" gradientUnits="userSpaceOnUse" gradientTransform="translate(186.65 101.84) scale(24.01 24.01)">
            <stop offset="0.02"/>
            <stop offset="0.05" stop-color="#1E1E1E"/>
            <stop offset="0.11" stop-color="#4C4C4C"/>
            <stop offset="0.16" stop-color="#777777"/>
            <stop offset="0.22" stop-color="#9C9C9C"/>
            <stop offset="0.28" stop-color="#BABABA"/>
            <stop offset="0.35" stop-color="#D3D3D3"/>
            <stop offset="0.43" stop-color="#E7E7E7"/>
            <stop offset="0.52" stop-color="#F4F4F4"/>
            <stop offset="0.63" stop-color="#FCFCFC"/>
            <stop offset="0.84" stop-color="white"/>
        </radialGradient>
        <linearGradient id="paint4_linear_228_303" x1="162.19" y1="98.9396" x2="29.0098" y2="98.9396" gradientUnits="userSpaceOnUse">
            <stop stop-color="white" offset=""/>
            <stop offset="0.33" stop-color="#FBFBFC"/>
            <stop offset="0.59" stop-color="#F1F2F2"/>
            <stop offset="0.83" stop-color="#E1E2E3"/>
            <stop offset="1" stop-color="#D0D2D3"/>
        </linearGradient>
        <linearGradient id="paint5_linear_228_303" x1="33.5698" y1="98.2896" x2="265.93" y2="100.73" gradientUnits="userSpaceOnUse">
            <stop stop-color="white" offset=""/>
            <stop offset="0.33" stop-color="#FBFBFC"/>
            <stop offset="0.59" stop-color="#F1F2F2"/>
            <stop offset="0.83" stop-color="#E1E2E3"/>
            <stop offset="1" stop-color="#D0D2D3"/>
        </linearGradient>
        <linearGradient id="paint6_linear_228_303" x1="115.79" y1="73.2695" x2="86.8299" y2="106.139" gradientUnits="userSpaceOnUse">
            <stop stop-color="#70BE44" offset=""/>
            <stop offset="1" stop-color="#008748"/>
        </linearGradient>
        <clipPath id="clip0_228_303">
            <rect width="187" height="199" fill="white"/>
        </clipPath>
    </defs>
</svg>
