<svg width="16" height="16" viewBox="0 0 16 16" fill="none" xmlns="http://www.w3.org/2000/svg">
  <path d="M4 1H2.5C1.67157 1 1 1.67157 1 2.5V4" stroke="currentColor" stroke-width="1.5" stroke-linecap="round"/>
  <path d="M1 7V9" stroke="currentColor" stroke-width="1.5" stroke-linecap="round"/>
  <path d="M1 12V13.5C1 14.3284 1.67157 15 2.5 15H4" stroke="currentColor" stroke-width="1.5" stroke-linecap="round"/>
  <path d="M7 15H9" stroke="currentColor" stroke-width="1.5" stroke-linecap="round"/>
  <path d="M12 15H13.5C14.3284 15 15 14.3284 15 13.5V12" stroke="currentColor" stroke-width="1.5" stroke-linecap="round"/>
  <path d="M15 9V7" stroke="currentColor" stroke-width="1.5" stroke-linecap="round"/>
  <path d="M15 4V2.5C15 1.67157 14.3284 1 13.5 1H12" stroke="currentColor" stroke-width="1.5" stroke-linecap="round"/>
  <path d="M9 1H7" stroke="currentColor" stroke-width="1.5" stroke-linecap="round"/>
  <path d="M4 4L12 12" stroke="currentColor" stroke-width="1.5" stroke-linecap="round"/>
  <path d="M12 4L4 12" stroke="currentColor" stroke-width="1.5" stroke-linecap="round"/>
</svg>
