<svg width="14" height="12" viewBox="0 0 14 12" fill="none" xmlns="http://www.w3.org/2000/svg">
  <path d="M3.5 11C4.05228 11 4.5 10.5523 4.5 10C4.5 9.44772 4.05228 9 3.5 9C2.94772 9 2.5 9.44772 2.5 10C2.5 10.5523 2.94772 11 3.5 11Z" fill="currentColor"/>
  <path d="M11.5 11C12.0523 11 12.5 10.5523 12.5 10C12.5 9.44772 12.05228 9 11.5 9C10.9477 9 10.5 9.44772 10.5 10C10.5 10.5523 10.9477 11 11.5 11Z" fill="currentColor"/>
  <path d="M0 0.5C0 0.223858 0.223858 0 0.5 0H1.28482C1.51463 0 1.71234 0.160171 1.75947 0.386276L2.5 4V4.0654L3.45072 8.01591C3.48985 8.17553 3.42107 8.34073 3.28626 8.43052C3.11861 8.54241 2.88957 8.63497 2.60879 8.70214C2.50128 8.7278 2.38359 8.74829 2.25918 8.76316C1.8265 8.81488 1.3172 8.82853 0.792472 8.78742C0.341321 8.75159 0 8.38271 0 7.9298V5.96431C0 5.96431 0 4.5 0 4.5V4V0.5Z" fill="currentColor"/>
  <path d="M4.5 4.5L4.55745 3.82477C4.56895 3.68941 4.63507 3.56525 4.74084 3.48096L5.5 2.875V1.5C5.5 1.22386 5.72386 1 6 1H11.5C11.7761 1 12 1.22386 12 1.5V2.875L12.7592 3.48096C12.8649 3.56525 12.9311 3.68941 12.9426 3.82477L13 4.5H4.5Z" fill="currentColor"/>
  <path d="M13.5 4.5H4.5L5.41336 8.82961C5.57818 9.65695 6.31587 10.2329 7.16136 10.1887C8.01705 10.1441 8.7289 9.51771 8.86102 8.6703L9 7.5L13.5 4.5Z" fill="currentColor"/>
  <path d="M12 2.5H6V3.5H12V2.5Z" fill="white"/>
</svg>
