<svg width="16" height="14" viewBox="0 0 16 14" fill="none" xmlns="http://www.w3.org/2000/svg">
  <path d="M8 0.75C4.36364 0.75 1.25818 2.94909 0 6C1.25818 9.05091 4.36364 11.25 8 11.25C11.6364 11.25 14.7418 9.05091 16 6C14.7418 2.94909 11.6364 0.75 8 0.75ZM8 9.75C5.93091 9.75 4.25 8.06909 4.25 6C4.25 3.93091 5.93091 2.25 8 2.25C10.0691 2.25 11.75 3.93091 11.75 6C11.75 8.06909 10.0691 9.75 8 9.75ZM8 3.75C6.75727 3.75 5.75 4.75727 5.75 6C5.75 7.24273 6.75727 8.25 8 8.25C9.24273 8.25 10.25 7.24273 10.25 6C10.25 4.75727 9.24273 3.75 8 3.75Z" fill="currentColor"/>
</svg>
