<svg width="14" height="18" viewBox="0 0 14 18" fill="none" xmlns="http://www.w3.org/2000/svg">
  <path d="M13.5 4.5C13 4.7 12.5 4.9 11.9 5C12.5 4.6 12.9 4.1 13.1 3.4C12.6 3.7 12 4 11.4 4.1C10.8 3.5 10 3 9.1 3C7.5 3 6.1 4.4 6.1 6C6.1 6.2 6.1 6.4 6.2 6.6C4.1 6.5 2.3 5.3 1.1 3.7C0.9 4.1 0.8 4.5 0.8 4.9C0.8 5.7 1.2 6.5 1.8 6.9C1.4 6.9 1.1 6.8 0.8 6.7C0.8 8.2 1.9 9.4 3.3 9.7C3.1 9.7 2.9 9.8 2.6 9.8C2.5 9.8 2.3 9.8 2.2 9.7C2.5 10.9 3.6 11.8 4.9 11.8C3.8 12.7 2.4 13.2 0.9 13.2C0.7 13.2 0.4 13.2 0.2 13.1C1.7 14 3.4 14.5 5.2 14.5C9 14.5 11.1 11.3 11.1 8.5C11.1 8.4 11.1 8.3 11.1 8.2C11.7 7.7 12.2 7.2 12.5 6.5C12 6.7 11.4 6.9 10.8 7C11.3 6.6 11.7 6.2 12 5.7C11.4 5.7 10.9 5.7 10.5 5.7Z" fill="white"/>
</svg>
