<svg xmlns="http://www.w3.org/2000/svg" width="22" height="22" viewBox="0 0 22 22" fill="none">
    <g clip-path="url(#clip0_87_377)">
        <path d="M11.7608 1.99834C11.5219 1.88939 11.2624 1.83301 10.9999 1.83301C10.7374 1.83301 10.4779 1.88939 10.2391 1.99834L2.38326 5.57333C2.2206 5.64506 2.0823 5.76253 1.98521 5.91145C1.88812 6.06037 1.83643 6.23431 1.83643 6.41208C1.83643 6.58986 1.88812 6.7638 1.98521 6.91272C2.0823 7.06164 2.2206 7.17911 2.38326 7.25083L10.2483 10.835C10.4871 10.9439 10.7466 11.0003 11.0091 11.0003C11.2716 11.0003 11.5311 10.9439 11.7699 10.835L19.6349 7.26C19.7976 7.18828 19.9359 7.0708 20.033 6.92188C20.1301 6.77296 20.1818 6.59903 20.1818 6.42125C20.1818 6.24348 20.1301 6.06954 20.033 5.92062C19.9359 5.7717 19.7976 5.65423 19.6349 5.5825L11.7608 1.99834Z" stroke="#00844A" stroke-width="1.83333" stroke-linecap="round" stroke-linejoin="round"/>
        <path d="M1.8335 11C1.83307 11.1753 1.88292 11.3471 1.97716 11.495C2.07139 11.6428 2.20605 11.7605 2.36517 11.8342L10.2485 15.4183C10.4861 15.5259 10.7439 15.5816 11.0047 15.5816C11.2656 15.5816 11.5234 15.5259 11.761 15.4183L19.626 11.8433C19.7883 11.7704 19.9258 11.6518 20.0218 11.5021C20.1179 11.3523 20.1682 11.1779 20.1668 11" stroke="#00844A" stroke-width="1.83333" stroke-linecap="round" stroke-linejoin="round"/>
        <path d="M1.8335 15.5835C1.83307 15.7588 1.88292 15.9306 1.97716 16.0784C2.07139 16.2263 2.20605 16.344 2.36517 16.4177L10.2485 20.0018C10.4861 20.1094 10.7439 20.1651 11.0047 20.1651C11.2656 20.1651 11.5234 20.1094 11.761 20.0018L19.626 16.4268C19.7883 16.3539 19.9258 16.2353 20.0218 16.0856C20.1179 15.9358 20.1682 15.7614 20.1668 15.5835" stroke="#00844A" stroke-width="1.83333" stroke-linecap="round" stroke-linejoin="round"/>
    </g>
    <defs>
        <clipPath id="clip0_87_377">
            <rect width="22" height="22" fill="white"/>
        </clipPath>
    </defs>
</svg>