<svg xmlns="http://www.w3.org/2000/svg" width="12" height="12" viewBox="0 0 12 12" fill="none">
    <path d="M2.63158 11.8957H0.210526V3.96522H2.73684V11.8957H2.63158ZM1.47368 2.92174C0.631579 2.92174 0 2.1913 0 1.46087C0 0.626087 0.631579 0 1.47368 0C2.31579 0 2.94737 0.626087 2.94737 1.46087C2.8421 2.1913 2.21053 2.92174 1.47368 2.92174ZM12 11.8957H9.47368V8.03478C9.47368 7.09565 9.47368 5.94783 8.21053 5.94783C6.94737 5.94783 6.73684 6.9913 6.73684 8.03478V12H4.21053V3.96522H6.63158V5.0087C6.94737 4.38261 7.78947 3.75652 8.94737 3.75652C11.4737 3.75652 11.8947 5.42609 11.8947 7.51304V11.8957H12Z" fill="white"/>
</svg>