<svg xmlns="http://www.w3.org/2000/svg" viewBox="0 0 44 44" fill="none">
    <path d="M3.6665 21.9997C3.6665 15.0857 3.6665 11.6288 5.81439 9.48089C7.96227 7.33301 11.4192 7.33301 18.3332 7.33301H25.6665C32.5804 7.33301 36.0374 7.33301 38.1853 9.48089C40.3332 11.6288 40.3332 15.0857 40.3332 21.9997C40.3332 28.9136 40.3332 32.3706 38.1853 34.5185C36.0374 36.6663 32.5804 36.6663 25.6665 36.6663H18.3332C11.4192 36.6663 7.96227 36.6663 5.81439 34.5185C3.6665 32.3706 3.6665 28.9136 3.6665 21.9997Z" stroke="#00844A" stroke-width="1.5"/>
    <path d="M11 14.667L14.958 17.9653C18.3251 20.7713 20.0087 22.1743 22 22.1743C23.9913 22.1743 25.6749 20.7713 29.042 17.9653L33 14.667" stroke="#00844A" stroke-width="1.5" stroke-linecap="round"/>
</svg>
