<svg xmlns="http://www.w3.org/2000/svg" viewBox="0 0 45 51" fill="none" shape-rendering="geometricPrecision">
    <g>
        <path d="M10.0435 6.46777C10.0435 5.3632 10.9389 4.46777 12.0435 4.46777L30.1827 4.46777C30.7373 4.46777 31.2669 4.698 31.6452 5.10348L40.4442 14.5355C40.7894 14.9055 40.9815 15.3926 40.9818 15.8986L40.9988 45.249C40.9994 46.3541 40.1038 47.2502 38.9988 47.2502H12.0435C10.9389 47.2502 10.0435 46.3548 10.0435 45.2502V6.46777Z" fill="url(#paint0_linear_173_122)"/>
        <path d="M30.1831 3.96777C30.8761 3.96787 31.5385 4.25594 32.0112 4.7627L40.8101 14.1943C41.2415 14.6568 41.4816 15.266 41.4819 15.8984L41.4985 45.249C41.4992 46.6302 40.3797 47.75 38.9985 47.75H12.0435C10.6627 47.75 9.54346 46.6307 9.54346 45.25V6.46777C9.54346 5.08706 10.6627 3.96777 12.0435 3.96777H30.1831Z" stroke="#E5E5E5"/>
    </g>
    <g>
        <path d="M32.0628 15.1701L38.6951 15.1003C39.5647 15.0912 40.009 14.053 39.4152 13.4176L32.7829 6.31987C32.1634 5.65692 31.0522 6.09529 31.0522 7.00262L31.0522 14.1702C31.0522 14.7266 31.5064 15.176 32.0628 15.1701Z" fill="url(#paint1_linear_173_122)"/>
    </g>
    <path d="M23.1858 24.4699C23.2889 22.5921 25.591 22.3635 26.1923 24.4699C26.6733 26.155 25.8997 28.8623 25.4073 30.7954C25.8998 31.9321 27.5085 34.0385 28.4674 34.9692C31.6688 34.4793 33.4727 34.534 34.659 35.0998C36.2679 35.8673 35.9266 37.7554 34.3665 37.9083C33.0339 38.039 31.0675 37.9083 28.2723 35.5733C27.5464 35.6713 25.3829 36.0926 22.7958 36.9939C21.8044 38.5941 20.4231 40.7827 19.253 41.7292C17.3354 43.2804 15.889 42.7743 15.4828 41.9252C14.9302 40.423 17.1729 39.0187 21.2519 36.9939C21.8965 35.7094 23.384 32.497 24.1771 29.9236C23.8304 29.0909 23.0558 26.8375 23.1858 24.4699ZM20.6994 37.8757C15.1415 40.2855 15.4015 41.9089 16.4416 42.0721C17.4817 42.2354 18.7655 40.9128 20.6994 37.8757ZM34.3015 36.4388C34.2365 34.9039 31.8964 34.9039 28.8412 35.4264C32.4001 37.9736 34.3015 37.5165 34.3015 36.4388ZM25.1359 31.4095C24.2779 33.9568 23.4458 35.7475 23.137 36.3245C25.4512 35.606 27.2865 35.2196 27.9148 35.1161C26.6278 33.6531 25.5259 32.0355 25.1359 31.4095ZM24.4696 29.1072C25.8184 24.7801 25.3634 23.4085 24.3396 23.5555C23.2671 23.7351 23.4133 26.8049 24.4696 29.1072Z" fill="#FF2116"/>
    <g>
        <rect x="1" y="7.59863" width="26.713" height="11.8956" rx="2" fill="url(#paint2_linear_173_122)"/>
    </g>
    <g>
        <path d="M20.3843 10.4238V17.5455H18.6675V10.4238H20.3843ZM23.1528 13.3879V14.7086H19.8952V13.3879H23.1528ZM23.4316 10.4238V11.7494H19.8952V10.4238H23.4316Z" fill="white"/>
    </g>
    <g>
        <path d="M14.4967 17.5455H12.9168L12.9266 16.2249H14.4967C14.8228 16.2249 15.0983 16.1466 15.3233 15.9901C15.5516 15.8336 15.7244 15.6004 15.8418 15.2907C15.9624 14.9776 16.0228 14.5928 16.0228 14.1363V13.8282C16.0228 13.4858 15.9885 13.1858 15.9201 12.9282C15.8548 12.6673 15.757 12.4504 15.6266 12.2776C15.4961 12.1015 15.3331 11.9695 15.1374 11.8814C14.9451 11.7934 14.7233 11.7494 14.4722 11.7494H12.8875V10.4238H14.4722C14.9548 10.4238 15.3967 10.507 15.7978 10.6733C16.2021 10.8363 16.551 11.0711 16.8445 11.3776C17.1412 11.6809 17.3695 12.0412 17.5293 12.4586C17.6923 12.8727 17.7739 13.3325 17.7739 13.8379V14.1363C17.7739 14.6385 17.6923 15.0983 17.5293 15.5157C17.3695 15.933 17.1429 16.2934 16.8494 16.5966C16.5559 16.8999 16.2086 17.1347 15.8076 17.301C15.4097 17.464 14.9728 17.5455 14.4967 17.5455ZM13.9 10.4238V17.5455H12.1831V10.4238H13.9Z" fill="white"/>
    </g>
    <g>
        <path d="M8.49712 15.1292H6.72647V13.8037H8.49712C8.73842 13.8037 8.93407 13.7629 9.08407 13.6814C9.23407 13.5999 9.34331 13.4874 9.41179 13.3439C9.48353 13.1972 9.5194 13.0325 9.5194 12.8499C9.5194 12.6543 9.48353 12.4733 9.41179 12.307C9.34331 12.1407 9.23407 12.007 9.08407 11.9059C8.93407 11.8015 8.73842 11.7494 8.49712 11.7494H7.37212V17.5455H5.65527V10.4238H8.49712C9.06777 10.4238 9.55853 10.5282 9.9694 10.7369C10.3835 10.9456 10.7015 11.2325 10.9232 11.5977C11.1449 11.9597 11.2558 12.3738 11.2558 12.8401C11.2558 13.2999 11.1449 13.701 10.9232 14.0434C10.7015 14.3858 10.3835 14.6532 9.9694 14.8455C9.55853 15.0347 9.06777 15.1292 8.49712 15.1292Z" fill="white"/>
    </g>
    <defs>
        <linearGradient id="paint0_linear_173_122" x1="25.0695" y1="4.46777" x2="25.0695" y2="47.2502" gradientUnits="userSpaceOnUse">
            <stop stop-color="#F7F7F7"/>
            <stop offset="1" stop-color="white"/>
        </linearGradient>
        <linearGradient id="paint1_linear_173_122" x1="36.0262" y1="4.46777" x2="36.0262" y2="15.1808" gradientUnits="userSpaceOnUse">
            <stop stop-color="#F6F6F6"/>
            <stop offset="1" stop-color="white"/>
        </linearGradient>
        <linearGradient id="paint2_linear_173_122" x1="14.3565" y1="22.9377" x2="14.3565" y2="5.61603" gradientUnits="userSpaceOnUse">
            <stop stop-color="#D0180E"/>
            <stop offset="1" stop-color="#FF2116"/>
        </linearGradient>
    </defs>
</svg>
