<svg width="80" height="80" viewBox="0 0 80 80" fill="none" xmlns="http://www.w3.org/2000/svg">
<g clip-path="url(#clip0_21_344)">
<path d="M80 0H0V80H80V0Z" fill="white"/>
<path d="M7.41379 5H5V7.41379H7.41379V5Z" fill="black"/>
<path d="M9.82759 5H7.41379V7.41379H9.82759V5Z" fill="black"/>
<path d="M12.2414 5H9.82759V7.41379H12.2414V5Z" fill="black"/>
<path d="M14.6552 5H12.2414V7.41379H14.6552V5Z" fill="black"/>
<path d="M17.069 5H14.6552V7.41379H17.069V5Z" fill="black"/>
<path d="M19.4828 5H17.069V7.41379H19.4828V5Z" fill="black"/>
<path d="M21.8966 5H19.4828V7.41379H21.8966V5Z" fill="black"/>
<path d="M26.7241 5H24.3103V7.41379H26.7241V5Z" fill="black"/>
<path d="M31.5517 5H29.1379V7.41379H31.5517V5Z" fill="black"/>
<path d="M43.6207 5H41.2069V7.41379H43.6207V5Z" fill="black"/>
<path d="M46.0345 5H43.6207V7.41379H46.0345V5Z" fill="black"/>
<path d="M50.8621 5H48.4483V7.41379H50.8621V5Z" fill="black"/>
<path d="M55.6897 5H53.2759V7.41379H55.6897V5Z" fill="black"/>
<path d="M60.5172 5H58.1035V7.41379H60.5172V5Z" fill="black"/>
<path d="M62.931 5H60.5172V7.41379H62.931V5Z" fill="black"/>
<path d="M65.3448 5H62.931V7.41379H65.3448V5Z" fill="black"/>
<path d="M67.7586 5H65.3448V7.41379H67.7586V5Z" fill="black"/>
<path d="M70.1724 5H67.7586V7.41379H70.1724V5Z" fill="black"/>
<path d="M72.5862 5H70.1724V7.41379H72.5862V5Z" fill="black"/>
<path d="M75 5H72.5862V7.41379H75V5Z" fill="black"/>
<path d="M7.41379 7.41379H5V9.82759H7.41379V7.41379Z" fill="black"/>
<path d="M21.8966 7.41379H19.4828V9.82759H21.8966V7.41379Z" fill="black"/>
<path d="M29.1379 7.41379H26.7241V9.82759H29.1379V7.41379Z" fill="black"/>
<path d="M31.5517 7.41379H29.1379V9.82759H31.5517V7.41379Z" fill="black"/>
<path d="M33.9655 7.41379H31.5517V9.82759H33.9655V7.41379Z" fill="black"/>
<path d="M36.3793 7.41379H33.9655V9.82759H36.3793V7.41379Z" fill="black"/>
<path d="M41.2069 7.41379H38.7931V9.82759H41.2069V7.41379Z" fill="black"/>
<path d="M43.6207 7.41379H41.2069V9.82759H43.6207V7.41379Z" fill="black"/>
<path d="M60.5172 7.41379H58.1035V9.82759H60.5172V7.41379Z" fill="black"/>
<path d="M75 7.41379H72.5862V9.82759H75V7.41379Z" fill="black"/>
<path d="M7.41379 9.82759H5V12.2414H7.41379V9.82759Z" fill="black"/>
<path d="M12.2414 9.82759H9.82759V12.2414H12.2414V9.82759Z" fill="black"/>
<path d="M14.6552 9.82759H12.2414V12.2414H14.6552V9.82759Z" fill="black"/>
<path d="M17.069 9.82759H14.6552V12.2414H17.069V9.82759Z" fill="black"/>
<path d="M21.8966 9.82759H19.4828V12.2414H21.8966V9.82759Z" fill="black"/>
<path d="M31.5517 9.82759H29.1379V12.2414H31.5517V9.82759Z" fill="black"/>
<path d="M33.9655 9.82759H31.5517V12.2414H33.9655V9.82759Z" fill="black"/>
<path d="M36.3793 9.82759H33.9655V12.2414H36.3793V9.82759Z" fill="black"/>
<path d="M38.7931 9.82759H36.3793V12.2414H38.7931V9.82759Z" fill="black"/>
<path d="M43.6207 9.82759H41.2069V12.2414H43.6207V9.82759Z" fill="black"/>
<path d="M46.0345 9.82759H43.6207V12.2414H46.0345V9.82759Z" fill="black"/>
<path d="M53.2759 9.82759H50.8621V12.2414H53.2759V9.82759Z" fill="black"/>
<path d="M55.6897 9.82759H53.2759V12.2414H55.6897V9.82759Z" fill="black"/>
<path d="M60.5172 9.82759H58.1035V12.2414H60.5172V9.82759Z" fill="black"/>
<path d="M65.3448 9.82759H62.931V12.2414H65.3448V9.82759Z" fill="black"/>
<path d="M67.7586 9.82759H65.3448V12.2414H67.7586V9.82759Z" fill="black"/>
<path d="M70.1724 9.82759H67.7586V12.2414H70.1724V9.82759Z" fill="black"/>
<path d="M75 9.82759H72.5862V12.2414H75V9.82759Z" fill="black"/>
<path d="M7.41379 12.2414H5V14.6552H7.41379V12.2414Z" fill="black"/>
<path d="M12.2414 12.2414H9.82759V14.6552H12.2414V12.2414Z" fill="black"/>
<path d="M14.6552 12.2414H12.2414V14.6552H14.6552V12.2414Z" fill="black"/>
<path d="M17.069 12.2414H14.6552V14.6552H17.069V12.2414Z" fill="black"/>
<path d="M21.8966 12.2414H19.4828V14.6552H21.8966V12.2414Z" fill="black"/>
<path d="M26.7241 12.2414H24.3103V14.6552H26.7241V12.2414Z" fill="black"/>
<path d="M29.1379 12.2414H26.7241V14.6552H29.1379V12.2414Z" fill="black"/>
<path d="M31.5517 12.2414H29.1379V14.6552H31.5517V12.2414Z" fill="black"/>
<path d="M33.9655 12.2414H31.5517V14.6552H33.9655V12.2414Z" fill="black"/>
<path d="M38.7931 12.2414H36.3793V14.6552H38.7931V12.2414Z" fill="black"/>
<path d="M46.0345 12.2414H43.6207V14.6552H46.0345V12.2414Z" fill="black"/>
<path d="M53.2759 12.2414H50.8621V14.6552H53.2759V12.2414Z" fill="black"/>
<path d="M60.5172 12.2414H58.1035V14.6552H60.5172V12.2414Z" fill="black"/>
<path d="M65.3448 12.2414H62.931V14.6552H65.3448V12.2414Z" fill="black"/>
<path d="M67.7586 12.2414H65.3448V14.6552H67.7586V12.2414Z" fill="black"/>
<path d="M70.1724 12.2414H67.7586V14.6552H70.1724V12.2414Z" fill="black"/>
<path d="M75 12.2414H72.5862V14.6552H75V12.2414Z" fill="black"/>
<path d="M7.41379 14.6552H5V17.069H7.41379V14.6552Z" fill="black"/>
<path d="M12.2414 14.6552H9.82759V17.069H12.2414V14.6552Z" fill="black"/>
<path d="M14.6552 14.6552H12.2414V17.069H14.6552V14.6552Z" fill="black"/>
<path d="M17.069 14.6552H14.6552V17.069H17.069V14.6552Z" fill="black"/>
<path d="M21.8966 14.6552H19.4828V17.069H21.8966V14.6552Z" fill="black"/>
<path d="M38.7931 14.6552H36.3793V17.069H38.7931V14.6552Z" fill="black"/>
<path d="M41.2069 14.6552H38.7931V17.069H41.2069V14.6552Z" fill="black"/>
<path d="M43.6207 14.6552H41.2069V17.069H43.6207V14.6552Z" fill="black"/>
<path d="M48.4483 14.6552H46.0345V17.069H48.4483V14.6552Z" fill="black"/>
<path d="M60.5172 14.6552H58.1035V17.069H60.5172V14.6552Z" fill="black"/>
<path d="M65.3448 14.6552H62.931V17.069H65.3448V14.6552Z" fill="black"/>
<path d="M67.7586 14.6552H65.3448V17.069H67.7586V14.6552Z" fill="black"/>
<path d="M70.1724 14.6552H67.7586V17.069H70.1724V14.6552Z" fill="black"/>
<path d="M75 14.6552H72.5862V17.069H75V14.6552Z" fill="black"/>
<path d="M7.41379 17.069H5V19.4828H7.41379V17.069Z" fill="black"/>
<path d="M21.8966 17.069H19.4828V19.4828H21.8966V17.069Z" fill="black"/>
<path d="M26.7241 17.069H24.3103V19.4828H26.7241V17.069Z" fill="black"/>
<path d="M29.1379 17.069H26.7241V19.4828H29.1379V17.069Z" fill="black"/>
<path d="M31.5517 17.069H29.1379V19.4828H31.5517V17.069Z" fill="black"/>
<path d="M33.9655 17.069H31.5517V19.4828H33.9655V17.069Z" fill="black"/>
<path d="M36.3793 17.069H33.9655V19.4828H36.3793V17.069Z" fill="black"/>
<path d="M38.7931 17.069H36.3793V19.4828H38.7931V17.069Z" fill="black"/>
<path d="M43.6207 17.069H41.2069V19.4828H43.6207V17.069Z" fill="black"/>
<path d="M46.0345 17.069H43.6207V19.4828H46.0345V17.069Z" fill="black"/>
<path d="M60.5172 17.069H58.1035V19.4828H60.5172V17.069Z" fill="black"/>
<path d="M75 17.069H72.5862V19.4828H75V17.069Z" fill="black"/>
<path d="M7.41379 19.4828H5V21.8966H7.41379V19.4828Z" fill="black"/>
<path d="M9.82759 19.4828H7.41379V21.8966H9.82759V19.4828Z" fill="black"/>
<path d="M12.2414 19.4828H9.82759V21.8966H12.2414V19.4828Z" fill="black"/>
<path d="M14.6552 19.4828H12.2414V21.8966H14.6552V19.4828Z" fill="black"/>
<path d="M17.069 19.4828H14.6552V21.8966H17.069V19.4828Z" fill="black"/>
<path d="M19.4828 19.4828H17.069V21.8966H19.4828V19.4828Z" fill="black"/>
<path d="M21.8966 19.4828H19.4828V21.8966H21.8966V19.4828Z" fill="black"/>
<path d="M26.7241 19.4828H24.3103V21.8966H26.7241V19.4828Z" fill="black"/>
<path d="M31.5517 19.4828H29.1379V21.8966H31.5517V19.4828Z" fill="black"/>
<path d="M36.3793 19.4828H33.9655V21.8966H36.3793V19.4828Z" fill="black"/>
<path d="M41.2069 19.4828H38.7931V21.8966H41.2069V19.4828Z" fill="black"/>
<path d="M46.0345 19.4828H43.6207V21.8966H46.0345V19.4828Z" fill="black"/>
<path d="M50.8621 19.4828H48.4483V21.8966H50.8621V19.4828Z" fill="black"/>
<path d="M55.6897 19.4828H53.2759V21.8966H55.6897V19.4828Z" fill="black"/>
<path d="M60.5172 19.4828H58.1035V21.8966H60.5172V19.4828Z" fill="black"/>
<path d="M62.931 19.4828H60.5172V21.8966H62.931V19.4828Z" fill="black"/>
<path d="M65.3448 19.4828H62.931V21.8966H65.3448V19.4828Z" fill="black"/>
<path d="M67.7586 19.4828H65.3448V21.8966H67.7586V19.4828Z" fill="black"/>
<path d="M70.1724 19.4828H67.7586V21.8966H70.1724V19.4828Z" fill="black"/>
<path d="M72.5862 19.4828H70.1724V21.8966H72.5862V19.4828Z" fill="black"/>
<path d="M75 19.4828H72.5862V21.8966H75V19.4828Z" fill="black"/>
<path d="M29.1379 21.8966H26.7241V24.3103H29.1379V21.8966Z" fill="black"/>
<path d="M41.2069 21.8966H38.7931V24.3103H41.2069V21.8966Z" fill="black"/>
<path d="M48.4483 21.8966H46.0345V24.3103H48.4483V21.8966Z" fill="black"/>
<path d="M50.8621 21.8966H48.4483V24.3103H50.8621V21.8966Z" fill="black"/>
<path d="M53.2759 21.8966H50.8621V24.3103H53.2759V21.8966Z" fill="black"/>
<path d="M55.6897 21.8966H53.2759V24.3103H55.6897V21.8966Z" fill="black"/>
<path d="M19.4828 24.3103H17.069V26.7241H19.4828V24.3103Z" fill="black"/>
<path d="M21.8966 24.3103H19.4828V26.7241H21.8966V24.3103Z" fill="black"/>
<path d="M26.7241 24.3103H24.3103V26.7241H26.7241V24.3103Z" fill="black"/>
<path d="M29.1379 24.3103H26.7241V26.7241H29.1379V24.3103Z" fill="black"/>
<path d="M33.9655 24.3103H31.5517V26.7241H33.9655V24.3103Z" fill="black"/>
<path d="M36.3793 24.3103H33.9655V26.7241H36.3793V24.3103Z" fill="black"/>
<path d="M41.2069 24.3103H38.7931V26.7241H41.2069V24.3103Z" fill="black"/>
<path d="M43.6207 24.3103H41.2069V26.7241H43.6207V24.3103Z" fill="black"/>
<path d="M46.0345 24.3103H43.6207V26.7241H46.0345V24.3103Z" fill="black"/>
<path d="M48.4483 24.3103H46.0345V26.7241H48.4483V24.3103Z" fill="black"/>
<path d="M58.1035 24.3103H55.6897V26.7241H58.1035V24.3103Z" fill="black"/>
<path d="M62.931 24.3103H60.5172V26.7241H62.931V24.3103Z" fill="black"/>
<path d="M67.7586 24.3103H65.3448V26.7241H67.7586V24.3103Z" fill="black"/>
<path d="M75 24.3103H72.5862V26.7241H75V24.3103Z" fill="black"/>
<path d="M7.41379 26.7241H5V29.1379H7.41379V26.7241Z" fill="black"/>
<path d="M14.6552 26.7241H12.2414V29.1379H14.6552V26.7241Z" fill="black"/>
<path d="M24.3103 26.7241H21.8966V29.1379H24.3103V26.7241Z" fill="black"/>
<path d="M26.7241 26.7241H24.3103V29.1379H26.7241V26.7241Z" fill="black"/>
<path d="M29.1379 26.7241H26.7241V29.1379H29.1379V26.7241Z" fill="black"/>
<path d="M43.6207 26.7241H41.2069V29.1379H43.6207V26.7241Z" fill="black"/>
<path d="M48.4483 26.7241H46.0345V29.1379H48.4483V26.7241Z" fill="black"/>
<path d="M53.2759 26.7241H50.8621V29.1379H53.2759V26.7241Z" fill="black"/>
<path d="M58.1035 26.7241H55.6897V29.1379H58.1035V26.7241Z" fill="black"/>
<path d="M7.41379 29.1379H5V31.5517H7.41379V29.1379Z" fill="black"/>
<path d="M14.6552 29.1379H12.2414V31.5517H14.6552V29.1379Z" fill="black"/>
<path d="M17.069 29.1379H14.6552V31.5517H17.069V29.1379Z" fill="black"/>
<path d="M21.8966 29.1379H19.4828V31.5517H21.8966V29.1379Z" fill="black"/>
<path d="M24.3103 29.1379H21.8966V31.5517H24.3103V29.1379Z" fill="black"/>
<path d="M26.7241 29.1379H24.3103V31.5517H26.7241V29.1379Z" fill="black"/>
<path d="M31.5517 29.1379H29.1379V31.5517H31.5517V29.1379Z" fill="black"/>
<path d="M36.3793 29.1379H33.9655V31.5517H36.3793V29.1379Z" fill="black"/>
<path d="M43.6207 29.1379H41.2069V31.5517H43.6207V29.1379Z" fill="black"/>
<path d="M50.8621 29.1379H48.4483V31.5517H50.8621V29.1379Z" fill="black"/>
<path d="M55.6897 29.1379H53.2759V31.5517H55.6897V29.1379Z" fill="black"/>
<path d="M60.5172 29.1379H58.1035V31.5517H60.5172V29.1379Z" fill="black"/>
<path d="M65.3448 29.1379H62.931V31.5517H65.3448V29.1379Z" fill="black"/>
<path d="M70.1724 29.1379H67.7586V31.5517H70.1724V29.1379Z" fill="black"/>
<path d="M75 29.1379H72.5862V31.5517H75V29.1379Z" fill="black"/>
<path d="M19.4828 31.5517H17.069V33.9655H19.4828V31.5517Z" fill="black"/>
<path d="M31.5517 31.5517H29.1379V33.9655H31.5517V31.5517Z" fill="black"/>
<path d="M38.7931 31.5517H36.3793V33.9655H38.7931V31.5517Z" fill="black"/>
<path d="M41.2069 31.5517H38.7931V33.9655H41.2069V31.5517Z" fill="black"/>
<path d="M46.0345 31.5517H43.6207V33.9655H46.0345V31.5517Z" fill="black"/>
<path d="M50.8621 31.5517H48.4483V33.9655H50.8621V31.5517Z" fill="black"/>
<path d="M53.2759 31.5517H50.8621V33.9655H53.2759V31.5517Z" fill="black"/>
<path d="M55.6897 31.5517H53.2759V33.9655H55.6897V31.5517Z" fill="black"/>
<path d="M58.1035 31.5517H55.6897V33.9655H58.1035V31.5517Z" fill="black"/>
<path d="M62.931 31.5517H60.5172V33.9655H62.931V31.5517Z" fill="black"/>
<path d="M65.3448 31.5517H62.931V33.9655H65.3448V31.5517Z" fill="black"/>
<path d="M12.2414 33.9655H9.82759V36.3793H12.2414V33.9655Z" fill="black"/>
<path d="M21.8966 33.9655H19.4828V36.3793H21.8966V33.9655Z" fill="black"/>
<path d="M26.7241 33.9655H24.3103V36.3793H26.7241V33.9655Z" fill="black"/>
<path d="M29.1379 33.9655H26.7241V36.3793H29.1379V33.9655Z" fill="black"/>
<path d="M31.5517 33.9655H29.1379V36.3793H31.5517V33.9655Z" fill="black"/>
<path d="M33.9655 33.9655H31.5517V36.3793H33.9655V33.9655Z" fill="black"/>
<path d="M36.3793 33.9655H33.9655V36.3793H36.3793V33.9655Z" fill="black"/>
<path d="M41.2069 33.9655H38.7931V36.3793H41.2069V33.9655Z" fill="black"/>
<path d="M43.6207 33.9655H41.2069V36.3793H43.6207V33.9655Z" fill="black"/>
<path d="M50.8621 33.9655H48.4483V36.3793H50.8621V33.9655Z" fill="black"/>
<path d="M53.2759 33.9655H50.8621V36.3793H53.2759V33.9655Z" fill="black"/>
<path d="M60.5172 33.9655H58.1035V36.3793H60.5172V33.9655Z" fill="black"/>
<path d="M65.3448 33.9655H62.931V36.3793H65.3448V33.9655Z" fill="black"/>
<path d="M70.1724 33.9655H67.7586V36.3793H70.1724V33.9655Z" fill="black"/>
<path d="M75 33.9655H72.5862V36.3793H75V33.9655Z" fill="black"/>
<path d="M7.41379 36.3793H5V38.7931H7.41379V36.3793Z" fill="black"/>
<path d="M9.82759 36.3793H7.41379V38.7931H9.82759V36.3793Z" fill="black"/>
<path d="M12.2414 36.3793H9.82759V38.7931H12.2414V36.3793Z" fill="black"/>
<path d="M14.6552 36.3793H12.2414V38.7931H14.6552V36.3793Z" fill="black"/>
<path d="M17.069 36.3793H14.6552V38.7931H17.069V36.3793Z" fill="black"/>
<path d="M19.4828 36.3793H17.069V38.7931H19.4828V36.3793Z" fill="black"/>
<path d="M43.6207 36.3793H41.2069V38.7931H43.6207V36.3793Z" fill="black"/>
<path d="M46.0345 36.3793H43.6207V38.7931H46.0345V36.3793Z" fill="black"/>
<path d="M50.8621 36.3793H48.4483V38.7931H50.8621V36.3793Z" fill="black"/>
<path d="M53.2759 36.3793H50.8621V38.7931H53.2759V36.3793Z" fill="black"/>
<path d="M58.1035 36.3793H55.6897V38.7931H58.1035V36.3793Z" fill="black"/>
<path d="M60.5172 36.3793H58.1035V38.7931H60.5172V36.3793Z" fill="black"/>
<path d="M62.931 36.3793H60.5172V38.7931H62.931V36.3793Z" fill="black"/>
<path d="M72.5862 36.3793H70.1724V38.7931H72.5862V36.3793Z" fill="black"/>
<path d="M75 36.3793H72.5862V38.7931H75V36.3793Z" fill="black"/>
<path d="M9.82759 38.7931H7.41379V41.2069H9.82759V38.7931Z" fill="black"/>
<path d="M14.6552 38.7931H12.2414V41.2069H14.6552V38.7931Z" fill="black"/>
<path d="M17.069 38.7931H14.6552V41.2069H17.069V38.7931Z" fill="black"/>
<path d="M19.4828 38.7931H17.069V41.2069H19.4828V38.7931Z" fill="black"/>
<path d="M21.8966 38.7931H19.4828V41.2069H21.8966V38.7931Z" fill="black"/>
<path d="M24.3103 38.7931H21.8966V41.2069H24.3103V38.7931Z" fill="black"/>
<path d="M29.1379 38.7931H26.7241V41.2069H29.1379V38.7931Z" fill="black"/>
<path d="M33.9655 38.7931H31.5517V41.2069H33.9655V38.7931Z" fill="black"/>
<path d="M43.6207 38.7931H41.2069V41.2069H43.6207V38.7931Z" fill="black"/>
<path d="M46.0345 38.7931H43.6207V41.2069H46.0345V38.7931Z" fill="black"/>
<path d="M55.6897 38.7931H53.2759V41.2069H55.6897V38.7931Z" fill="black"/>
<path d="M60.5172 38.7931H58.1035V41.2069H60.5172V38.7931Z" fill="black"/>
<path d="M65.3448 38.7931H62.931V41.2069H65.3448V38.7931Z" fill="black"/>
<path d="M67.7586 38.7931H65.3448V41.2069H67.7586V38.7931Z" fill="black"/>
<path d="M75 38.7931H72.5862V41.2069H75V38.7931Z" fill="black"/>
<path d="M9.82759 41.2069H7.41379V43.6207H9.82759V41.2069Z" fill="black"/>
<path d="M14.6552 41.2069H12.2414V43.6207H14.6552V41.2069Z" fill="black"/>
<path d="M26.7241 41.2069H24.3103V43.6207H26.7241V41.2069Z" fill="black"/>
<path d="M29.1379 41.2069H26.7241V43.6207H29.1379V41.2069Z" fill="black"/>
<path d="M33.9655 41.2069H31.5517V43.6207H33.9655V41.2069Z" fill="black"/>
<path d="M38.7931 41.2069H36.3793V43.6207H38.7931V41.2069Z" fill="black"/>
<path d="M41.2069 41.2069H38.7931V43.6207H41.2069V41.2069Z" fill="black"/>
<path d="M46.0345 41.2069H43.6207V43.6207H46.0345V41.2069Z" fill="black"/>
<path d="M48.4483 41.2069H46.0345V43.6207H48.4483V41.2069Z" fill="black"/>
<path d="M53.2759 41.2069H50.8621V43.6207H53.2759V41.2069Z" fill="black"/>
<path d="M58.1035 41.2069H55.6897V43.6207H58.1035V41.2069Z" fill="black"/>
<path d="M60.5172 41.2069H58.1035V43.6207H60.5172V41.2069Z" fill="black"/>
<path d="M65.3448 41.2069H62.931V43.6207H65.3448V41.2069Z" fill="black"/>
<path d="M67.7586 41.2069H65.3448V43.6207H67.7586V41.2069Z" fill="black"/>
<path d="M72.5862 41.2069H70.1724V43.6207H72.5862V41.2069Z" fill="black"/>
<path d="M7.41379 43.6207H5V46.0345H7.41379V43.6207Z" fill="black"/>
<path d="M12.2414 43.6207H9.82759V46.0345H12.2414V43.6207Z" fill="black"/>
<path d="M17.069 43.6207H14.6552V46.0345H17.069V43.6207Z" fill="black"/>
<path d="M21.8966 43.6207H19.4828V46.0345H21.8966V43.6207Z" fill="black"/>
<path d="M31.5517 43.6207H29.1379V46.0345H31.5517V43.6207Z" fill="black"/>
<path d="M36.3793 43.6207H33.9655V46.0345H36.3793V43.6207Z" fill="black"/>
<path d="M41.2069 43.6207H38.7931V46.0345H41.2069V43.6207Z" fill="black"/>
<path d="M43.6207 43.6207H41.2069V46.0345H43.6207V43.6207Z" fill="black"/>
<path d="M46.0345 43.6207H43.6207V46.0345H46.0345V43.6207Z" fill="black"/>
<path d="M53.2759 43.6207H50.8621V46.0345H53.2759V43.6207Z" fill="black"/>
<path d="M55.6897 43.6207H53.2759V46.0345H55.6897V43.6207Z" fill="black"/>
<path d="M58.1035 43.6207H55.6897V46.0345H58.1035V43.6207Z" fill="black"/>
<path d="M62.931 43.6207H60.5172V46.0345H62.931V43.6207Z" fill="black"/>
<path d="M67.7586 43.6207H65.3448V46.0345H67.7586V43.6207Z" fill="black"/>
<path d="M9.82759 46.0345H7.41379V48.4483H9.82759V46.0345Z" fill="black"/>
<path d="M12.2414 46.0345H9.82759V48.4483H12.2414V46.0345Z" fill="black"/>
<path d="M24.3103 46.0345H21.8966V48.4483H24.3103V46.0345Z" fill="black"/>
<path d="M31.5517 46.0345H29.1379V48.4483H31.5517V46.0345Z" fill="black"/>
<path d="M36.3793 46.0345H33.9655V48.4483H36.3793V46.0345Z" fill="black"/>
<path d="M38.7931 46.0345H36.3793V48.4483H38.7931V46.0345Z" fill="black"/>
<path d="M43.6207 46.0345H41.2069V48.4483H43.6207V46.0345Z" fill="black"/>
<path d="M46.0345 46.0345H43.6207V48.4483H46.0345V46.0345Z" fill="black"/>
<path d="M50.8621 46.0345H48.4483V48.4483H50.8621V46.0345Z" fill="black"/>
<path d="M53.2759 46.0345H50.8621V48.4483H53.2759V46.0345Z" fill="black"/>
<path d="M60.5172 46.0345H58.1035V48.4483H60.5172V46.0345Z" fill="black"/>
<path d="M7.41379 48.4483H5V50.8621H7.41379V48.4483Z" fill="black"/>
<path d="M9.82759 48.4483H7.41379V50.8621H9.82759V48.4483Z" fill="black"/>
<path d="M12.2414 48.4483H9.82759V50.8621H12.2414V48.4483Z" fill="black"/>
<path d="M14.6552 48.4483H12.2414V50.8621H14.6552V48.4483Z" fill="black"/>
<path d="M17.069 48.4483H14.6552V50.8621H17.069V48.4483Z" fill="black"/>
<path d="M21.8966 48.4483H19.4828V50.8621H21.8966V48.4483Z" fill="black"/>
<path d="M24.3103 48.4483H21.8966V50.8621H24.3103V48.4483Z" fill="black"/>
<path d="M26.7241 48.4483H24.3103V50.8621H26.7241V48.4483Z" fill="black"/>
<path d="M38.7931 48.4483H36.3793V50.8621H38.7931V48.4483Z" fill="black"/>
<path d="M43.6207 48.4483H41.2069V50.8621H43.6207V48.4483Z" fill="black"/>
<path d="M48.4483 48.4483H46.0345V50.8621H48.4483V48.4483Z" fill="black"/>
<path d="M50.8621 48.4483H48.4483V50.8621H50.8621V48.4483Z" fill="black"/>
<path d="M53.2759 48.4483H50.8621V50.8621H53.2759V48.4483Z" fill="black"/>
<path d="M55.6897 48.4483H53.2759V50.8621H55.6897V48.4483Z" fill="black"/>
<path d="M62.931 48.4483H60.5172V50.8621H62.931V48.4483Z" fill="black"/>
<path d="M65.3448 48.4483H62.931V50.8621H65.3448V48.4483Z" fill="black"/>
<path d="M7.41379 50.8621H5V53.2759H7.41379V50.8621Z" fill="black"/>
<path d="M19.4828 50.8621H17.069V53.2759H19.4828V50.8621Z" fill="black"/>
<path d="M26.7241 50.8621H24.3103V53.2759H26.7241V50.8621Z" fill="black"/>
<path d="M31.5517 50.8621H29.1379V53.2759H31.5517V50.8621Z" fill="black"/>
<path d="M33.9655 50.8621H31.5517V53.2759H33.9655V50.8621Z" fill="black"/>
<path d="M38.7931 50.8621H36.3793V53.2759H38.7931V50.8621Z" fill="black"/>
<path d="M53.2759 50.8621H50.8621V53.2759H53.2759V50.8621Z" fill="black"/>
<path d="M67.7586 50.8621H65.3448V53.2759H67.7586V50.8621Z" fill="black"/>
<path d="M70.1724 50.8621H67.7586V53.2759H70.1724V50.8621Z" fill="black"/>
<path d="M72.5862 50.8621H70.1724V53.2759H72.5862V50.8621Z" fill="black"/>
<path d="M12.2414 53.2759H9.82759V55.6897H12.2414V53.2759Z" fill="black"/>
<path d="M21.8966 53.2759H19.4828V55.6897H21.8966V53.2759Z" fill="black"/>
<path d="M29.1379 53.2759H26.7241V55.6897H29.1379V53.2759Z" fill="black"/>
<path d="M31.5517 53.2759H29.1379V55.6897H31.5517V53.2759Z" fill="black"/>
<path d="M38.7931 53.2759H36.3793V55.6897H38.7931V53.2759Z" fill="black"/>
<path d="M43.6207 53.2759H41.2069V55.6897H43.6207V53.2759Z" fill="black"/>
<path d="M46.0345 53.2759H43.6207V55.6897H46.0345V53.2759Z" fill="black"/>
<path d="M48.4483 53.2759H46.0345V55.6897H48.4483V53.2759Z" fill="black"/>
<path d="M55.6897 53.2759H53.2759V55.6897H55.6897V53.2759Z" fill="black"/>
<path d="M58.1035 53.2759H55.6897V55.6897H58.1035V53.2759Z" fill="black"/>
<path d="M60.5172 53.2759H58.1035V55.6897H60.5172V53.2759Z" fill="black"/>
<path d="M62.931 53.2759H60.5172V55.6897H62.931V53.2759Z" fill="black"/>
<path d="M65.3448 53.2759H62.931V55.6897H65.3448V53.2759Z" fill="black"/>
<path d="M72.5862 53.2759H70.1724V55.6897H72.5862V53.2759Z" fill="black"/>
<path d="M75 53.2759H72.5862V55.6897H75V53.2759Z" fill="black"/>
<path d="M26.7241 55.6897H24.3103V58.1035H26.7241V55.6897Z" fill="black"/>
<path d="M36.3793 55.6897H33.9655V58.1035H36.3793V55.6897Z" fill="black"/>
<path d="M41.2069 55.6897H38.7931V58.1035H41.2069V55.6897Z" fill="black"/>
<path d="M43.6207 55.6897H41.2069V58.1035H43.6207V55.6897Z" fill="black"/>
<path d="M46.0345 55.6897H43.6207V58.1035H46.0345V55.6897Z" fill="black"/>
<path d="M48.4483 55.6897H46.0345V58.1035H48.4483V55.6897Z" fill="black"/>
<path d="M50.8621 55.6897H48.4483V58.1035H50.8621V55.6897Z" fill="black"/>
<path d="M55.6897 55.6897H53.2759V58.1035H55.6897V55.6897Z" fill="black"/>
<path d="M65.3448 55.6897H62.931V58.1035H65.3448V55.6897Z" fill="black"/>
<path d="M70.1724 55.6897H67.7586V58.1035H70.1724V55.6897Z" fill="black"/>
<path d="M72.5862 55.6897H70.1724V58.1035H72.5862V55.6897Z" fill="black"/>
<path d="M7.41379 58.1035H5V60.5172H7.41379V58.1035Z" fill="black"/>
<path d="M9.82759 58.1035H7.41379V60.5172H9.82759V58.1035Z" fill="black"/>
<path d="M12.2414 58.1035H9.82759V60.5172H12.2414V58.1035Z" fill="black"/>
<path d="M14.6552 58.1035H12.2414V60.5172H14.6552V58.1035Z" fill="black"/>
<path d="M17.069 58.1035H14.6552V60.5172H17.069V58.1035Z" fill="black"/>
<path d="M19.4828 58.1035H17.069V60.5172H19.4828V58.1035Z" fill="black"/>
<path d="M21.8966 58.1035H19.4828V60.5172H21.8966V58.1035Z" fill="black"/>
<path d="M29.1379 58.1035H26.7241V60.5172H29.1379V58.1035Z" fill="black"/>
<path d="M33.9655 58.1035H31.5517V60.5172H33.9655V58.1035Z" fill="black"/>
<path d="M36.3793 58.1035H33.9655V60.5172H36.3793V58.1035Z" fill="black"/>
<path d="M41.2069 58.1035H38.7931V60.5172H41.2069V58.1035Z" fill="black"/>
<path d="M48.4483 58.1035H46.0345V60.5172H48.4483V58.1035Z" fill="black"/>
<path d="M55.6897 58.1035H53.2759V60.5172H55.6897V58.1035Z" fill="black"/>
<path d="M60.5172 58.1035H58.1035V60.5172H60.5172V58.1035Z" fill="black"/>
<path d="M65.3448 58.1035H62.931V60.5172H65.3448V58.1035Z" fill="black"/>
<path d="M67.7586 58.1035H65.3448V60.5172H67.7586V58.1035Z" fill="black"/>
<path d="M75 58.1035H72.5862V60.5172H75V58.1035Z" fill="black"/>
<path d="M7.41379 60.5172H5V62.931H7.41379V60.5172Z" fill="black"/>
<path d="M21.8966 60.5172H19.4828V62.931H21.8966V60.5172Z" fill="black"/>
<path d="M26.7241 60.5172H24.3103V62.931H26.7241V60.5172Z" fill="black"/>
<path d="M31.5517 60.5172H29.1379V62.931H31.5517V60.5172Z" fill="black"/>
<path d="M33.9655 60.5172H31.5517V62.931H33.9655V60.5172Z" fill="black"/>
<path d="M38.7931 60.5172H36.3793V62.931H38.7931V60.5172Z" fill="black"/>
<path d="M48.4483 60.5172H46.0345V62.931H48.4483V60.5172Z" fill="black"/>
<path d="M50.8621 60.5172H48.4483V62.931H50.8621V60.5172Z" fill="black"/>
<path d="M53.2759 60.5172H50.8621V62.931H53.2759V60.5172Z" fill="black"/>
<path d="M55.6897 60.5172H53.2759V62.931H55.6897V60.5172Z" fill="black"/>
<path d="M65.3448 60.5172H62.931V62.931H65.3448V60.5172Z" fill="black"/>
<path d="M67.7586 60.5172H65.3448V62.931H67.7586V60.5172Z" fill="black"/>
<path d="M72.5862 60.5172H70.1724V62.931H72.5862V60.5172Z" fill="black"/>
<path d="M7.41379 62.931H5V65.3448H7.41379V62.931Z" fill="black"/>
<path d="M12.2414 62.931H9.82759V65.3448H12.2414V62.931Z" fill="black"/>
<path d="M14.6552 62.931H12.2414V65.3448H14.6552V62.931Z" fill="black"/>
<path d="M17.069 62.931H14.6552V65.3448H17.069V62.931Z" fill="black"/>
<path d="M21.8966 62.931H19.4828V65.3448H21.8966V62.931Z" fill="black"/>
<path d="M31.5517 62.931H29.1379V65.3448H31.5517V62.931Z" fill="black"/>
<path d="M33.9655 62.931H31.5517V65.3448H33.9655V62.931Z" fill="black"/>
<path d="M41.2069 62.931H38.7931V65.3448H41.2069V62.931Z" fill="black"/>
<path d="M43.6207 62.931H41.2069V65.3448H43.6207V62.931Z" fill="black"/>
<path d="M50.8621 62.931H48.4483V65.3448H50.8621V62.931Z" fill="black"/>
<path d="M53.2759 62.931H50.8621V65.3448H53.2759V62.931Z" fill="black"/>
<path d="M55.6897 62.931H53.2759V65.3448H55.6897V62.931Z" fill="black"/>
<path d="M58.1035 62.931H55.6897V65.3448H58.1035V62.931Z" fill="black"/>
<path d="M60.5172 62.931H58.1035V65.3448H60.5172V62.931Z" fill="black"/>
<path d="M62.931 62.931H60.5172V65.3448H62.931V62.931Z" fill="black"/>
<path d="M65.3448 62.931H62.931V65.3448H65.3448V62.931Z" fill="black"/>
<path d="M67.7586 62.931H65.3448V65.3448H67.7586V62.931Z" fill="black"/>
<path d="M70.1724 62.931H67.7586V65.3448H70.1724V62.931Z" fill="black"/>
<path d="M72.5862 62.931H70.1724V65.3448H72.5862V62.931Z" fill="black"/>
<path d="M75 62.931H72.5862V65.3448H75V62.931Z" fill="black"/>
<path d="M7.41379 65.3448H5V67.7586H7.41379V65.3448Z" fill="black"/>
<path d="M12.2414 65.3448H9.82759V67.7586H12.2414V65.3448Z" fill="black"/>
<path d="M14.6552 65.3448H12.2414V67.7586H14.6552V65.3448Z" fill="black"/>
<path d="M17.069 65.3448H14.6552V67.7586H17.069V65.3448Z" fill="black"/>
<path d="M21.8966 65.3448H19.4828V67.7586H21.8966V65.3448Z" fill="black"/>
<path d="M29.1379 65.3448H26.7241V67.7586H29.1379V65.3448Z" fill="black"/>
<path d="M31.5517 65.3448H29.1379V67.7586H31.5517V65.3448Z" fill="black"/>
<path d="M33.9655 65.3448H31.5517V67.7586H33.9655V65.3448Z" fill="black"/>
<path d="M36.3793 65.3448H33.9655V67.7586H36.3793V65.3448Z" fill="black"/>
<path d="M43.6207 65.3448H41.2069V67.7586H43.6207V65.3448Z" fill="black"/>
<path d="M46.0345 65.3448H43.6207V67.7586H46.0345V65.3448Z" fill="black"/>
<path d="M50.8621 65.3448H48.4483V67.7586H50.8621V65.3448Z" fill="black"/>
<path d="M65.3448 65.3448H62.931V67.7586H65.3448V65.3448Z" fill="black"/>
<path d="M67.7586 65.3448H65.3448V67.7586H67.7586V65.3448Z" fill="black"/>
<path d="M7.41379 67.7586H5V70.1724H7.41379V67.7586Z" fill="black"/>
<path d="M12.2414 67.7586H9.82759V70.1724H12.2414V67.7586Z" fill="black"/>
<path d="M14.6552 67.7586H12.2414V70.1724H14.6552V67.7586Z" fill="black"/>
<path d="M17.069 67.7586H14.6552V70.1724H17.069V67.7586Z" fill="black"/>
<path d="M21.8966 67.7586H19.4828V70.1724H21.8966V67.7586Z" fill="black"/>
<path d="M31.5517 67.7586H29.1379V70.1724H31.5517V67.7586Z" fill="black"/>
<path d="M33.9655 67.7586H31.5517V70.1724H33.9655V67.7586Z" fill="black"/>
<path d="M38.7931 67.7586H36.3793V70.1724H38.7931V67.7586Z" fill="black"/>
<path d="M41.2069 67.7586H38.7931V70.1724H41.2069V67.7586Z" fill="black"/>
<path d="M55.6897 67.7586H53.2759V70.1724H55.6897V67.7586Z" fill="black"/>
<path d="M58.1035 67.7586H55.6897V70.1724H58.1035V67.7586Z" fill="black"/>
<path d="M62.931 67.7586H60.5172V70.1724H62.931V67.7586Z" fill="black"/>
<path d="M7.41379 70.1724H5V72.5862H7.41379V70.1724Z" fill="black"/>
<path d="M21.8966 70.1724H19.4828V72.5862H21.8966V70.1724Z" fill="black"/>
<path d="M31.5517 70.1724H29.1379V72.5862H31.5517V70.1724Z" fill="black"/>
<path d="M33.9655 70.1724H31.5517V72.5862H33.9655V70.1724Z" fill="black"/>
<path d="M36.3793 70.1724H33.9655V72.5862H36.3793V70.1724Z" fill="black"/>
<path d="M41.2069 70.1724H38.7931V72.5862H41.2069V70.1724Z" fill="black"/>
<path d="M43.6207 70.1724H41.2069V72.5862H43.6207V70.1724Z" fill="black"/>
<path d="M46.0345 70.1724H43.6207V72.5862H46.0345V70.1724Z" fill="black"/>
<path d="M50.8621 70.1724H48.4483V72.5862H50.8621V70.1724Z" fill="black"/>
<path d="M53.2759 70.1724H50.8621V72.5862H53.2759V70.1724Z" fill="black"/>
<path d="M58.1035 70.1724H55.6897V72.5862H58.1035V70.1724Z" fill="black"/>
<path d="M60.5172 70.1724H58.1035V72.5862H60.5172V70.1724Z" fill="black"/>
<path d="M62.931 70.1724H60.5172V72.5862H62.931V70.1724Z" fill="black"/>
<path d="M65.3448 70.1724H62.931V72.5862H65.3448V70.1724Z" fill="black"/>
<path d="M72.5862 70.1724H70.1724V72.5862H72.5862V70.1724Z" fill="black"/>
<path d="M75 70.1724H72.5862V72.5862H75V70.1724Z" fill="black"/>
<path d="M7.41379 72.5862H5V75H7.41379V72.5862Z" fill="black"/>
<path d="M9.82759 72.5862H7.41379V75H9.82759V72.5862Z" fill="black"/>
<path d="M12.2414 72.5862H9.82759V75H12.2414V72.5862Z" fill="black"/>
<path d="M14.6552 72.5862H12.2414V75H14.6552V72.5862Z" fill="black"/>
<path d="M17.069 72.5862H14.6552V75H17.069V72.5862Z" fill="black"/>
<path d="M19.4828 72.5862H17.069V75H19.4828V72.5862Z" fill="black"/>
<path d="M21.8966 72.5862H19.4828V75H21.8966V72.5862Z" fill="black"/>
<path d="M29.1379 72.5862H26.7241V75H29.1379V72.5862Z" fill="black"/>
<path d="M36.3793 72.5862H33.9655V75H36.3793V72.5862Z" fill="black"/>
<path d="M41.2069 72.5862H38.7931V75H41.2069V72.5862Z" fill="black"/>
<path d="M48.4483 72.5862H46.0345V75H48.4483V72.5862Z" fill="black"/>
<path d="M50.8621 72.5862H48.4483V75H50.8621V72.5862Z" fill="black"/>
<path d="M53.2759 72.5862H50.8621V75H53.2759V72.5862Z" fill="black"/>
<path d="M58.1035 72.5862H55.6897V75H58.1035V72.5862Z" fill="black"/>
<path d="M67.7586 72.5862H65.3448V75H67.7586V72.5862Z" fill="black"/>
<path d="M70.1724 72.5862H67.7586V75H70.1724V72.5862Z" fill="black"/>
</g>
<defs>
<clipPath id="clip0_21_344">
<rect width="80" height="80" fill="white"/>
</clipPath>
</defs>
</svg>
