<svg xmlns="http://www.w3.org/2000/svg" width="22" height="22" viewBox="0 0 22 22" fill="none">
    <g clip-path="url(#clip0_87_343)">
        <path d="M20.1668 11.0002C19.9191 8.74212 18.8466 6.65494 17.155 5.13879C15.4635 3.62263 13.2718 2.78418 11.0002 2.78418C8.72855 2.78418 6.53687 3.62263 4.84528 5.13879C3.15369 6.65494 2.08123 8.74212 1.8335 11.0002H20.1668Z" stroke="#16A34A" stroke-width="1.83333" stroke-linecap="round" stroke-linejoin="round"/>
        <path d="M11 11V18.3333C11 18.8196 11.1932 19.2859 11.537 19.6297C11.8808 19.9735 12.3471 20.1667 12.8333 20.1667C13.3196 20.1667 13.7859 19.9735 14.1297 19.6297C14.4735 19.2859 14.6667 18.8196 14.6667 18.3333" stroke="#16A34A" stroke-width="1.83333" stroke-linecap="round" stroke-linejoin="round"/>
        <path d="M11 1.8335V2.75016" stroke="#16A34A" stroke-width="1.83333" stroke-linecap="round" stroke-linejoin="round"/>
    </g>
    <defs>
        <clipPath id="clip0_87_343">
            <rect width="22" height="22" fill="white"/>
        </clipPath>
    </defs>
</svg>