<svg xmlns="http://www.w3.org/2000/svg" width="24" height="24" viewBox="0 0 24 24" fill="none">
    <path fill-rule="evenodd" clip-rule="evenodd" d="M3.21627 12C3.79391 12.7966 4.9778 14.2978 6.53673 15.6047C8.15313 16.9598 10.0459 18 12 18C13.9542 18 15.847 16.9598 17.4634 15.6047C19.0223 14.2978 20.2062 12.7966 20.7838 12C20.2062 11.2033 19.0223 9.70224 17.4634 8.39529C15.847 7.04015 13.9542 6 12 6C10.0459 6 8.15313 7.04015 6.53673 8.39529C4.9778 9.70224 3.79391 11.2033 3.21627 12ZM5.25181 6.86265C7.01354 5.38568 9.35633 4 12 4C14.6438 4 16.9865 5.38568 18.7483 6.86264C20.5271 8.35393 21.8432 10.0471 22.4514 10.893C22.9297 11.5584 22.9297 12.4416 22.4514 13.107C21.8432 13.9529 20.5271 15.6461 18.7483 17.1374C16.9865 18.6143 14.6438 20 12 20C9.35633 20 7.01354 18.6143 5.25181 17.1374C3.473 15.6461 2.15685 13.9529 1.54872 13.107C1.07035 12.4416 1.07035 11.5584 1.54872 10.893C2.15685 10.0471 3.473 8.35393 5.25181 6.86265Z" fill="#EFFEF7"/>
    <path fill-rule="evenodd" clip-rule="evenodd" d="M12 14C13.1046 14 14 13.1046 14 12C14 10.8954 13.1046 10 12 10C10.8955 10 10 10.8954 10 12C10 13.1046 10.8955 14 12 14ZM12 16C14.2092 16 16 14.2091 16 12C16 9.79086 14.2092 8 12 8C9.7909 8 8.00004 9.79086 8.00004 12C8.00004 14.2091 9.7909 16 12 16Z" fill="#EFFEF7"/>
</svg>