<svg xmlns="http://www.w3.org/2000/svg" width="14" height="10" viewBox="0 0 14 10" fill="none">
    <path d="M13.8605 2.15773C13.8605 2.15773 13.7238 1.17745 13.3027 0.747015C12.7695 0.180505 12.1734 0.177728 11.9 0.144404C9.94219 -7.94508e-08 7.00273 0 7.00273 0H6.99726C6.99726 0 4.05781 -7.94508e-08 2.1 0.144404C1.82656 0.177728 1.23047 0.180505 0.697266 0.747015C0.276172 1.17745 0.142187 2.15773 0.142187 2.15773C0.142187 2.15773 0 3.31019 0 4.45987V5.53735C0 6.68703 0.139453 7.83949 0.139453 7.83949C0.139453 7.83949 0.276172 8.81977 0.694531 9.25021C1.22773 9.81672 1.92773 9.79728 2.23945 9.85837C3.36055 9.96668 7 10 7 10C7 10 9.94219 9.99445 11.9 9.85282C12.1734 9.8195 12.7695 9.81672 13.3027 9.25021C13.7238 8.81977 13.8605 7.83949 13.8605 7.83949C13.8605 7.83949 14 6.68981 14 5.53735V4.45987C14 3.31019 13.8605 2.15773 13.8605 2.15773ZM5.55352 6.84532V2.84921L9.33516 4.85421L5.55352 6.84532Z" fill="white"/>
</svg>