<svg width="10.5" height="12" viewBox="0 0 10.5 12" fill="none" xmlns="http://www.w3.org/2000/svg">
<path d="M8.25 5.25C9.49219 5.25 10.5 4.24219 10.5 3C10.5 1.75781 9.49219 0.75 8.25 0.75C7.00781 0.75 6 1.75781 6 3C6 3.09375 6.00469 3.1875 6.01641 3.27891L3.81094 4.38047C3.40781 3.98906 2.85703 3.75 2.25 3.75C1.00781 3.75 0 4.75781 0 6C0 7.24219 1.00781 8.25 2.25 8.25C2.85703 8.25 3.40781 8.01094 3.81094 7.61953L6.01641 8.72109C6.00469 8.8125 6 8.90391 6 9C6 10.2422 7.00781 11.25 8.25 11.25C9.49219 11.25 10.5 10.2422 10.5 9C10.5 7.75781 9.49219 6.75 8.25 6.75C7.64297 6.75 7.09219 6.98906 6.68906 7.38047L4.48359 6.27891C4.49531 6.1875 4.5 6.09609 4.5 6C4.5 5.90391 4.49531 5.8125 4.48359 5.72109L6.68906 4.61953C7.09219 5.01094 7.64297 5.25 8.25 5.25Z" fill="#48A6A7"/>
</svg>
