<svg width="13.5" height="12" viewBox="0 0 13.5 12" fill="none" xmlns="http://www.w3.org/2000/svg">
<path d="M6.75 0.75C4.85625 0.75 3.33984 1.6125 2.23594 2.63906C1.13906 3.65625 0.405469 4.875 0.0585938 5.71172C-0.01875 5.89687 -0.01875 6.10313 0.0585938 6.28828C0.405469 7.125 1.13906 8.34375 2.23594 9.36094C3.33984 10.3875 4.85625 11.25 6.75 11.25C8.64375 11.25 10.1602 10.3875 11.2641 9.36094C12.3609 8.34141 13.0945 7.125 13.4437 6.28828C13.5211 6.10313 13.5211 5.89687 13.4437 5.71172C13.0945 4.875 12.3609 3.65625 11.2641 2.63906C10.1602 1.6125 8.64375 0.75 6.75 0.75ZM3.375 6C3.375 4.13729 4.88729 2.625 6.75 2.625C8.61271 2.625 10.125 4.13729 10.125 6C10.125 7.86271 8.61271 9.375 6.75 9.375C4.88729 9.375 3.375 7.86271 3.375 6ZM6.75 4.5C6.75 5.32734 6.07734 6 5.25 6C5.08359 6 4.92422 5.97187 4.77422 5.92266C4.64531 5.88047 4.49531 5.96016 4.5 6.09609C4.50703 6.25781 4.53047 6.41953 4.575 6.58125C4.89609 7.78125 6.13125 8.49375 7.33125 8.17266C8.53125 7.85156 9.24375 6.61641 8.92266 5.41641C8.6625 4.44375 7.80234 3.78984 6.84609 3.75C6.71016 3.74531 6.63047 3.89297 6.67266 4.02422C6.72188 4.17422 6.75 4.33359 6.75 4.5Z" fill="#48A6A7"/>
</svg>
