<svg preserveAspectRatio="none" width="100%" height="100%" overflow="visible" style="display: block;" viewBox="0 0 45 36" fill="none" xmlns="http://www.w3.org/2000/svg">
<g id="Img">
<path id="Vector" d="M33.75 3.375C33.75 1.51172 32.2383 0 30.375 0H23.625C21.7617 0 20.25 1.51172 20.25 3.375V6.75H15.75V1.6875C15.75 0.752344 14.9977 0 14.0625 0C13.1273 0 12.375 0.752344 12.375 1.6875V6.75H7.875V1.6875C7.875 0.752344 7.12266 0 6.1875 0C5.25234 0 4.5 0.752344 4.5 1.6875V6.75H3.375C1.51172 6.75 0 8.26172 0 10.125V16.875V32.625C0 34.4883 1.51172 36 3.375 36H21.375H23.625H30.375H41.625C43.4883 36 45 34.4883 45 32.625V16.875C45 15.0117 43.4883 13.5 41.625 13.5H33.75V3.375V3.375M40.5 25.875V28.125C40.5 28.7437 39.9937 29.25 39.375 29.25H37.125C36.5063 29.25 36 28.7437 36 28.125V25.875C36 25.2563 36.5063 24.75 37.125 24.75H39.375C39.9937 24.75 40.5 25.2563 40.5 25.875V25.875M16.875 29.25H14.625C14.0063 29.25 13.5 28.7437 13.5 28.125V25.875C13.5 25.2563 14.0063 24.75 14.625 24.75H16.875C17.4937 24.75 18 25.2563 18 25.875V28.125C18 28.7437 17.4937 29.25 16.875 29.25V29.25M9 28.125C9 28.7437 8.49375 29.25 7.875 29.25H5.625C5.00625 29.25 4.5 28.7437 4.5 28.125V25.875C4.5 25.2563 5.00625 24.75 5.625 24.75H7.875C8.49375 24.75 9 25.2563 9 25.875V28.125V28.125M39.375 18C39.9937 18 40.5 18.5063 40.5 19.125V21.375C40.5 21.9937 39.9937 22.5 39.375 22.5H37.125C36.5063 22.5 36 21.9937 36 21.375V19.125C36 18.5063 36.5063 18 37.125 18H39.375V18M18 12.375V14.625C18 15.2437 17.4937 15.75 16.875 15.75H14.625C14.0063 15.75 13.5 15.2437 13.5 14.625V12.375C13.5 11.7563 14.0063 11.25 14.625 11.25H16.875C17.4937 11.25 18 11.7563 18 12.375V12.375M7.875 11.25C8.49375 11.25 9 11.7563 9 12.375V14.625C9 15.2437 8.49375 15.75 7.875 15.75H5.625C5.00625 15.75 4.5 15.2437 4.5 14.625V12.375C4.5 11.7563 5.00625 11.25 5.625 11.25H7.875V11.25M18 21.375C18 21.9937 17.4937 22.5 16.875 22.5H14.625C14.0063 22.5 13.5 21.9937 13.5 21.375V19.125C13.5 18.5063 14.0063 18 14.625 18H16.875C17.4937 18 18 18.5063 18 19.125V21.375V21.375M7.875 22.5H5.625C5.00625 22.5 4.5 21.9937 4.5 21.375V19.125C4.5 18.5063 5.00625 18 5.625 18H7.875C8.49375 18 9 18.5063 9 19.125V21.375C9 21.9937 8.49375 22.5 7.875 22.5V22.5M29.25 19.125V21.375C29.25 21.9937 28.7437 22.5 28.125 22.5H25.875C25.2563 22.5 24.75 21.9937 24.75 21.375V19.125C24.75 18.5063 25.2563 18 25.875 18H28.125C28.7437 18 29.25 18.5063 29.25 19.125V19.125M28.125 4.5C28.7437 4.5 29.25 5.00625 29.25 5.625V7.875C29.25 8.49375 28.7437 9 28.125 9H25.875C25.2563 9 24.75 8.49375 24.75 7.875V5.625C24.75 5.00625 25.2563 4.5 25.875 4.5H28.125V4.5M29.25 12.375V14.625C29.25 15.2437 28.7437 15.75 28.125 15.75H25.875C25.2563 15.75 24.75 15.2437 24.75 14.625V12.375C24.75 11.7563 25.2563 11.25 25.875 11.25H28.125C28.7437 11.25 29.25 11.7563 29.25 12.375V12.375" fill="var(--fill-0, #4B5563)"/>
</g>
</svg>
