<svg preserveAspectRatio="none" width="100%" height="100%" overflow="visible" style="display: block;" viewBox="0 0 40.5 36" fill="none" xmlns="http://www.w3.org/2000/svg">
<g id="Img">
<path id="Vector" d="M18 2.25C16.7555 2.25 15.75 3.25547 15.75 4.5V4.66172V11.6648C15.75 12.0586 15.4336 12.375 15.0398 12.375C14.7867 12.375 14.5477 12.2414 14.4211 12.0164L11.0461 6.11719C5.83594 8.68359 2.25 14.0484 2.25 20.25V24.75H38.25V20.0812C38.1867 13.95 34.6148 8.6625 29.4539 6.11719L26.0789 12.0164C25.9523 12.2414 25.7133 12.375 25.4602 12.375C25.0664 12.375 24.75 12.0586 24.75 11.6648V4.66172V4.5C24.75 3.25547 23.7445 2.25 22.5 2.25H18V2.25M1.16719 27C0.520312 27 0 27.5203 0 28.1672C0 28.4977 0.140625 28.8141 0.407813 29.0039C1.93359 30.1219 7.86094 33.75 20.25 33.75C32.6391 33.75 38.5664 30.1219 40.0922 29.0039C40.3594 28.807 40.5 28.4977 40.5 28.1672C40.5 27.5203 39.9797 27 39.3328 27H1.16719V27" fill="var(--fill-0, #4B5563)"/>
</g>
</svg>
