<svg preserveAspectRatio="none" width="100%" height="100%" overflow="visible" style="display: block;" viewBox="0 0 36.007 36" fill="none" xmlns="http://www.w3.org/2000/svg">
<g id="Img">
<path id="Vector" d="M24.75 6.75C24.75 7.75547 24.532 8.71172 24.1313 9.57656L27.8438 15.9891C26.1773 17.768 24.0328 19.0898 21.6211 19.7578L18 13.5V13.5V13.5L13.2188 21.7617C14.7305 22.2398 16.3336 22.5 18.007 22.5C22.9781 22.5 27.4148 20.2008 30.3047 16.5938C31.0852 15.6234 32.4984 15.4688 33.4688 16.2422C34.4391 17.0156 34.5938 18.4359 33.8203 19.4062C30.1008 24.0328 24.3984 27 18 27C15.5109 27 13.1203 26.55 10.9195 25.7273L6.93984 32.6039C6.60937 33.1734 6.11719 33.6375 5.52656 33.9328L1.63125 35.8805C1.27969 36.0563 0.864844 36.0352 0.534375 35.8312C0.203906 35.6273 0 35.2617 0 34.875V30.9797C0 30.3891 0.154687 29.8055 0.457031 29.2852L4.67578 21.9937C3.77578 21.2062 2.93906 20.3414 2.19375 19.4062C1.41328 18.4359 1.575 17.0227 2.54531 16.2422C3.51562 15.4617 4.92891 15.6234 5.70937 16.5938C6.11016 17.093 6.53906 17.5641 6.98906 18.007L11.8687 9.57656C11.475 8.71875 11.25 7.7625 11.25 6.75C11.25 3.02344 14.2734 0 18 0C21.7266 0 24.75 3.02344 24.75 6.75V6.75M26.2266 27.6961C28.5187 26.7961 30.6211 25.5305 32.4773 23.9766L35.55 29.2852C35.8453 29.7984 36.007 30.382 36.007 30.9797V34.875C36.007 35.2617 35.8031 35.6273 35.4727 35.8312Cnan nan 34.7273 36.0563 34.3758 35.8805L30.4805 33.9328C29.8898 33.6375 29.3977 33.1734 29.0672 32.6039L26.2266 27.6961V27.6961M18 9C19.2418 9 20.25 7.99181 20.25 6.75C20.25 5.50819 19.2418 4.5 18 4.5C16.7582 4.5 15.75 5.50819 15.75 6.75C15.75 7.99181 16.7582 9 18 9V9" fill="var(--fill-0, #4B5563)"/>
</g>
</svg>
