<svg preserveAspectRatio="none" width="100%" height="100%" overflow="visible" style="display: block;" viewBox="0 0 45 36" fill="none" xmlns="http://www.w3.org/2000/svg">
<g id="Img">
<path id="Vector" d="M7.875 0C6.01172 0 4.5 1.51172 4.5 3.375V6.75H1.125C0.50625 6.75 0 7.25625 0 7.875C0 8.49375 0.50625 9 1.125 9H4.5H19.125C19.7437 9 20.25 9.50625 20.25 10.125C20.25 10.7437 19.7437 11.25 19.125 11.25H4.5H3.375C2.75625 11.25 2.25 11.7563 2.25 12.375C2.25 12.9937 2.75625 13.5 3.375 13.5H4.5H16.875C17.4937 13.5 18 14.0063 18 14.625C18 15.2437 17.4937 15.75 16.875 15.75H4.5H1.125C0.50625 15.75 0 16.2563 0 16.875C0 17.4937 0.50625 18 1.125 18H4.5H14.625C15.2437 18 15.75 18.5063 15.75 19.125C15.75 19.7437 15.2437 20.25 14.625 20.25H4.5V29.25C4.5 32.9766 7.52344 36 11.25 36C14.9766 36 18 32.9766 18 29.25H27C27 32.9766 30.0234 36 33.75 36C37.4766 36 40.5 32.9766 40.5 29.25H42.75C43.9945 29.25 45 28.2445 45 27C45 25.7555 43.9945 24.75 42.75 24.75V20.25V18V16.6852C42.75 15.4898 42.2789 14.3438 41.4352 13.5L36 8.06484C35.1562 7.22109 34.0102 6.75 32.8148 6.75H29.25V3.375C29.25 1.51172 27.7383 0 25.875 0H7.875V0M38.25 16.6852V18H29.25V11.25H32.8148L38.25 16.6852V16.6852M11.25 25.875C13.1127 25.875 14.625 27.3873 14.625 29.25C14.625 31.1127 13.1127 32.625 11.25 32.625C9.38729 32.625 7.875 31.1127 7.875 29.25C7.875 27.3873 9.38729 25.875 11.25 25.875V25.875M30.375 29.25C30.375 27.3873 31.8873 25.875 33.75 25.875C35.6127 25.875 37.125 27.3873 37.125 29.25C37.125 31.1127 35.6127 32.625 33.75 32.625C31.8873 32.625 30.375 31.1127 30.375 29.25V29.25" fill="var(--fill-0, #4B5563)"/>
</g>
</svg>
